<svg xmlns="http://www.w3.org/2000/svg" height="521" xmlns:xlink="http://www.w3.org/1999/xlink" viewBox="0 0 498 521" xmlns:ev="http://www.w3.org/2001/xml-events" width="498"><defs/><g id="page1" transform="translate(5.5,5.5)"><rect x="0" y="0" height="511" width="488" fill="#ffffff"/><path id="shape1" d="M.0,.0L394.6,.0L394.6,124.8L.0,124.8L.0,.0z" transform="translate(54.495000,189.689900)" stroke-width="1.3333300352096558" fill-rule="nonzero" stroke="#333e48" fill="#e5eceb"/><path id="shape2" d="M.0,.0L20.0,.0" transform="translate(139.317410,209.650000)" stroke-width="2.7983601093292236" stroke="#7d868c" fill="none"/><path id="shape3" d="M.0,.0L134.9,.0" transform="translate(139.317100,224.620000)" stroke-width="2.7983601093292236" stroke="#7d868c" fill="none"/><path id="shape4" d="M.0,.0L74.9,.0L74.9,34.9L.0,34.9L.0,.0z" transform="translate(64.372800,199.669700)" stroke-width="1.3333300352096558" fill-rule="nonzero" stroke="#333e48" fill="#11809f"/><path id="shape5" d="M10.0,.0L5.0,10.0L.0,.0L10.0,.0z" transform="translate(194.276710,239.590910)" stroke-width="0.99727702140808105" fill-rule="nonzero" stroke="#333e48" fill="#333e48"/><path id="shape6" d="M.0,.0L.0,10.0" transform="translate(199.273000,234.599910)" stroke-width="2.7985999584197998" stroke="#333e48" fill="none"/><path id="shape7" d="M.0,.0L79.9,.0L79.9,34.9L.0,34.9L.0,.0z" transform="translate(159.302700,199.669700)" stroke-width="1.3333300352096558" fill-rule="nonzero" stroke="#333e48" fill="#00c1de"/><path id="shape8" d="M.0,.0L79.9,.0L79.9,34.9L.0,34.9L.0,.0z" transform="translate(274.217700,199.669700)" stroke-width="1.3333300352096558" fill-rule="nonzero" stroke="#333e48" fill="#00c1de"/><path id="shape9" d="M.0,.0L60.0,.0L60.0,34.9L.0,34.9L.0,.0z" transform="translate(64.373300,269.530700)" stroke-width="1.3333300352096558" fill-rule="nonzero" stroke="#333e48" fill="#ff6b00"/><path id="shape10" d="M.0,.0L79.9,.0L79.9,34.9L.0,34.9L.0,.0z" transform="translate(134.321700,269.530700)" stroke-width="1.3333300352096558" fill-rule="nonzero" stroke="#333e48" fill="#ff6b00"/><path id="shape11" d="M.0,.0L65.0,.0L65.0,34.9L.0,34.9L.0,.0z" transform="translate(224.254100,269.530700)" stroke-width="1.3333300352096558" fill-rule="nonzero" stroke="#333e48" fill="#ffc700"/><path id="shape12" d="M.0,.0L60.0,.0L60.0,34.9L.0,34.9L.0,.0z" transform="translate(299.199200,269.530700)" stroke-width="1.3333300352096558" fill-rule="nonzero" stroke="#333e48" fill="#7d868c"/><path id="shape13" d="M.0,.0L69.9,.0L69.9,34.9L.0,34.9L.0,.0z" transform="translate(369.147000,269.530700)" stroke-width="1.3333300352096558" fill-rule="nonzero" stroke="#333e48" fill="#7d868c"/><path id="shape14" d="M10.0,.0L5.0,10.0L.0,.0L10.0,.0z" transform="translate(309.191710,239.590910)" stroke-width="0.99727702140808105" fill-rule="nonzero" stroke="#333e48" fill="#333e48"/><path id="shape15" d="M.0,.0L.0,10.0" transform="translate(314.188000,234.599910)" stroke-width="2.7985999584197998" stroke="#333e48" fill="none"/><path id="shape16" d="M10.0,.0L5.0,10.0L.0,.0L10.0,.0z" transform="translate(89.354710,259.550910)" stroke-width="0.99727702140808105" fill-rule="nonzero" stroke="#333e48" fill="#333e48"/><path id="shape17" d="M.0,.0L.0,10.0" transform="translate(94.351000,254.560910)" stroke-width="2.7985999584197998" stroke="#333e48" fill="none"/><path id="shape18" d="M10.0,.0L5.0,10.0L.0,.0L10.0,.0z" transform="translate(169.295710,259.550910)" stroke-width="0.99727702140808105" fill-rule="nonzero" stroke="#333e48" fill="#333e48"/><path id="shape19" d="M.0,.0L.0,10.0" transform="translate(174.292000,254.560910)" stroke-width="2.7985999584197998" stroke="#333e48" fill="none"/><path id="shape20" d="M10.0,.0L5.0,10.0L.0,.0L10.0,.0z" transform="translate(252.233710,259.550910)" stroke-width="0.99727702140808105" fill-rule="nonzero" stroke="#333e48" fill="#333e48"/><path id="shape21" d="M.0,.0L.0,10.0" transform="translate(257.230000,254.560910)" stroke-width="2.7985999584197998" stroke="#333e48" fill="none"/><path id="shape22" d="M10.0,.0L5.0,10.0L.0,.0L10.0,.0z" transform="translate(324.180710,259.550910)" stroke-width="0.99727702140808105" fill-rule="nonzero" stroke="#333e48" fill="#333e48"/><path id="shape23" d="M.0,.0L.0,10.0" transform="translate(329.177000,254.560910)" stroke-width="2.7985999584197998" stroke="#333e48" fill="none"/><path id="shape24" d="M10.0,.0L5.0,10.0L.0,.0L10.0,.0z" transform="translate(399.124710,259.550910)" stroke-width="0.99727702140808105" fill-rule="nonzero" stroke="#333e48" fill="#333e48"/><path id="shape25" d="M.0,.0L.0,10.0" transform="translate(404.121000,254.560910)" stroke-width="2.7985999584197998" stroke="#333e48" fill="none"/><path id="shape26" d="M.0,.0L349.7,.0" transform="translate(74.366000,252.279000)" stroke-width="4.9923701286315918" stroke="#333e48" fill="none"/><path id="shape27" d="M.0,.0L74.9,.0L74.9,20.0L.0,20.0L.0,.0z" transform="translate(64.372800,159.748820)" stroke-width="1.3333300352096558" fill-rule="nonzero" stroke="#7d868c" fill="#e5eceb"/><path id="shape28" d="M10.0,.0L5.0,10.0L.0,.0L10.0,.0z" transform="translate(101.845710,189.689910)" stroke-width="0.99727702140808105" fill-rule="nonzero" stroke="#333e48" fill="#333e48"/><path id="shape29" d="M.0,.0L.0,15.0" transform="translate(106.842000,179.709870)" stroke-width="2.7985999584197998" stroke="#333e48" fill="none"/><path id="shape30" d="M.0,.0L69.9,.0L69.9,34.9L.0,34.9L.0,.0z" transform="translate(365.382000,324.421700)" stroke-width="1.3333300352096558" fill-rule="nonzero" stroke="#7d868c" fill="#e5eceb"/><path id="shape31" d="M10.0,.0L5.0,10.0L.0,.0L10.0,.0z" transform="translate(399.124710,314.441910)" stroke-width="0.99727702140808105" fill-rule="nonzero" stroke="#333e48" fill="#333e48"/><path id="shape32" d="M.0,.0L.0,15.0" transform="translate(404.121000,304.461870)" stroke-width="2.7985999584197998" stroke="#333e48" fill="none"/><path id="shape33" d="M.0,2.5C.0,1.1,1.1,.0,2.5,.0C3.8,.0,4.9,1.1,4.9,2.5C4.9,3.8,3.8,5.0,2.5,5.0C1.1,5.0,.0,3.8,.0,2.5z" transform="translate(66.961200,297.149850)" fill-rule="nonzero" fill="#333e48"/><path id="shape34" d="M10.0,10.0L5.0,.0L.0,10.0L10.0,10.0z" transform="translate(252.233710,304.461910)" stroke-width="0.99727702140808105" fill-rule="nonzero" stroke="#333e48" fill="#333e48"/><path id="shape35" d="M.0,.0L.0,15.0" transform="translate(257.230000,309.451870)" stroke-width="2.7985999584197998" stroke="#333e48" fill="none"/><path id="shape36" d="M10.0,10.0L5.0,.0L.0,10.0L10.0,10.0z" transform="translate(159.302710,304.461910)" stroke-width="0.99727702140808105" fill-rule="nonzero" stroke="#333e48" fill="#333e48"/><path id="shape37" d="M.0,.0L.0,15.0" transform="translate(164.299000,309.451870)" stroke-width="2.7985999584197998" stroke="#333e48" fill="none"/><g id="group38" transform="translate(179.287710,304.461820)"><path id="shape39" d="M10.0,.0L5.0,10.0L.0,.0L10.0,.0z" transform="translate(0.000000,9.980210)" stroke-width="0.99727702140808105" fill-rule="nonzero" stroke="#333e48" fill="#333e48"/><path id="shape40" d="M.0,15.0L.0,.0" transform="translate(4.996290,0.000000)" stroke-width="2.7985999584197998" stroke="#333e48" fill="none"/></g><g id="shape41" transform="translate(249.095000,195.472000)"><text xml:space="preserve" style="fill:#595959;font-family:Lato,PingFang SC,Mircrosoft YaHei,Arial;font-size:22px;font-weight:bold"><tspan x="4.0" textLength="9.0" y="19.0" style="font-size:15px">...</tspan></text></g><path id="shape42" d="M56.0,.0L.0,59.9L.0,99.8" transform="translate(13.410800,299.471100)" stroke-width="1.495919942855835" stroke-dasharray="3.7398,3.7398" stroke="#333e48" fill="none"/><path id="shape43" d="M.0,2.5C.0,1.1,1.1,.0,2.5,.0C3.8,.0,4.9,1.1,4.9,2.5C4.9,3.8,3.8,5.0,2.5,5.0C1.1,5.0,.0,3.8,.0,2.5z" transform="translate(10.912200,356.970850)" fill-rule="nonzero" fill="#333e48"/><path id="shape44" d="M.0,2.5C.0,1.1,1.1,.0,2.5,.0C3.8,.0,4.9,1.1,4.9,2.5C4.9,3.8,3.8,5.0,2.5,5.0C1.1,5.0,.0,3.8,.0,2.5z" transform="translate(10.912200,376.856850)" fill-rule="nonzero" fill="#333e48"/><path id="shape45" d="M.0,2.5C.0,1.1,1.1,.0,2.5,.0C3.8,.0,4.9,1.1,4.9,2.5C4.9,3.8,3.8,5.0,2.5,5.0C1.1,5.0,.0,3.8,.0,2.5z" transform="translate(11.063200,396.842850)" fill-rule="nonzero" fill="#333e48"/><path id="shape46" d="M.0,2.5C.0,1.1,1.1,.0,2.5,.0C3.8,.0,4.9,1.1,4.9,2.5C4.9,3.8,3.8,5.0,2.5,5.0C1.1,5.0,.0,3.8,.0,2.5z" transform="translate(136.995200,296.971850)" fill-rule="nonzero" fill="#333e48"/><path id="shape47" d="M.0,.0L35.3,91.4L35.8,191.5" transform="translate(139.352400,299.471400)" stroke-width="1.495919942855835" stroke-dasharray="3.7398,3.7398" stroke="#333e48" fill="none"/><path id="shape48" d="M.0,2.5C.0,1.1,1.1,.0,2.5,.0C3.8,.0,4.9,1.1,4.9,2.5C4.9,3.8,3.8,5.0,2.5,5.0C1.1,5.0,.0,3.8,.0,2.5z" transform="translate(172.641200,388.412850)" fill-rule="nonzero" fill="#333e48"/><path id="shape49" d="M.0,2.5C.0,1.1,1.1,.0,2.5,.0C3.8,.0,4.9,1.1,4.9,2.5C4.9,3.8,3.8,5.0,2.5,5.0C1.1,5.0,.0,3.8,.0,2.5z" transform="translate(172.792200,408.574850)" fill-rule="nonzero" fill="#333e48"/><path id="shape50" d="M.0,2.5C.0,1.1,1.1,.0,2.5,.0C3.8,.0,4.9,1.1,4.9,2.5C4.9,3.8,3.8,5.0,2.5,5.0C1.1,5.0,.0,3.8,.0,2.5z" transform="translate(172.792200,428.461850)" fill-rule="nonzero" fill="#333e48"/><path id="shape51" d="M.0,2.5C.0,1.1,1.1,.0,2.5,.0C3.8,.0,4.9,1.1,4.9,2.5C4.9,3.8,3.8,5.0,2.5,5.0C1.1,5.0,.0,3.8,.0,2.5z" transform="translate(172.943200,448.447850)" fill-rule="nonzero" fill="#333e48"/><path id="shape52" d="M.0,2.5C.0,1.1,1.1,.0,2.5,.0C3.8,.0,4.9,1.1,4.9,2.5C4.9,3.8,3.8,5.0,2.5,5.0C1.1,5.0,.0,3.8,.0,2.5z" transform="translate(172.792200,468.381850)" fill-rule="nonzero" fill="#333e48"/><path id="shape53" d="M.0,2.5C.0,1.1,1.1,.0,2.5,.0C3.8,.0,4.9,1.1,4.9,2.5C4.9,3.8,3.8,5.0,2.5,5.0C1.1,5.0,.0,3.8,.0,2.5z" transform="translate(172.943200,488.368850)" fill-rule="nonzero" fill="#333e48"/><path id="shape54" d="M4.9,2.5C4.9,1.1,3.8,.0,2.5,.0C1.1,.0,.0,1.1,.0,2.5C.0,3.8,1.1,5.0,2.5,5.0C3.8,5.0,4.9,3.8,4.9,2.5z" transform="translate(161.772200,307.569850)" fill-rule="nonzero" fill="#333e48"/><path id="shape55" d="M.0,.0L150.7,122.9L150.7,145.3" transform="translate(164.299500,309.452100)" stroke-width="1.495919942855835" stroke-dasharray="3.7398,3.7398" stroke="#333e48" fill="none"/><path id="shape56" d="M4.9,2.5C4.9,1.1,3.8,.0,2.5,.0C1.1,.0,.0,1.1,.0,2.5C.0,3.8,1.1,5.0,2.5,5.0C3.8,5.0,4.9,3.8,4.9,2.5z" transform="translate(312.805200,431.438850)" fill-rule="nonzero" fill="#333e48"/><path id="shape57" d="M4.9,2.5C4.9,1.1,3.8,.0,2.5,.0C1.1,.0,.0,1.1,.0,2.5C.0,3.8,1.1,5.0,2.5,5.0C3.8,5.0,4.9,3.8,4.9,2.5z" transform="translate(312.654200,451.601850)" fill-rule="nonzero" fill="#333e48"/><path id="shape58" d="M4.9,2.5C4.9,1.1,3.8,.0,2.5,.0C1.1,.0,.0,1.1,.0,2.5C.0,3.8,1.1,5.0,2.5,5.0C3.8,5.0,4.9,3.8,4.9,2.5z" transform="translate(181.757200,315.553850)" fill-rule="nonzero" fill="#333e48"/><path id="shape59" d="M.0,.0L70.7,39.2" transform="translate(184.284300,318.184200)" stroke-width="1.495919942855835" stroke-dasharray="3.7398,3.7398" stroke="#333e48" fill="none"/><path id="shape60" d="M4.9,2.4C4.9,1.1,3.8,.0,2.5,.0C1.1,.0,.0,1.1,.0,2.4C.0,3.7,1.1,4.7,2.5,4.7C3.8,4.7,4.9,3.7,4.9,2.4z" transform="translate(351.629200,297.016600)" fill-rule="nonzero" fill="#333e48"/><path id="shape61" d="M.0,.0L10.0,76.0L9.6,95.6" transform="translate(354.158400,299.119000)" stroke-width="1.495919942855835" stroke-dasharray="3.7398,3.7398" stroke="#333e48" fill="none"/><path id="shape62" d="M4.9,2.5C4.9,1.1,3.8,.0,2.5,.0C1.1,.0,.0,1.1,.0,2.5C.0,3.8,1.1,5.0,2.5,5.0C3.8,5.0,4.9,3.8,4.9,2.5z" transform="translate(361.807200,372.183850)" fill-rule="nonzero" fill="#333e48"/><path id="shape63" d="M4.9,2.5C4.9,1.1,3.8,.0,2.5,.0C1.1,.0,.0,1.1,.0,2.5C.0,3.8,1.1,5.0,2.5,5.0C3.8,5.0,4.9,3.8,4.9,2.5z" transform="translate(361.656200,392.169850)" fill-rule="nonzero" fill="#333e48"/><path id="shape64" d="M4.9,2.5C4.9,3.8,3.8,5.0,2.5,5.0C1.1,5.0,.0,3.8,.0,2.5C.0,1.1,1.1,.0,2.5,.0C3.8,.0,4.9,1.1,4.9,2.5z" transform="translate(227.143200,272.006850)" fill-rule="nonzero" fill="#333e48"/><path id="shape65" d="M.0,253.3L30.1,100.2L30.1,.0" transform="translate(229.352600,20.830000)" stroke-width="1.495919942855835" stroke-dasharray="3.7398,3.7398" stroke="#333e48" fill="none"/><path id="shape66" d="M.0,2.5C.0,3.8,1.1,5.0,2.5,5.0C3.8,5.0,4.9,3.8,4.9,2.5C4.9,1.1,3.8,.0,2.5,.0C1.1,.0,.0,1.1,.0,2.5z" transform="translate(161.938200,202.106850)" fill-rule="nonzero" fill="#333e48"/><path id="shape67" d="M28.3,84.1L.0,21.2L.0,.0" transform="translate(135.666000,120.611100)" stroke-width="1.495919942855835" stroke-dasharray="3.7398,3.7398" stroke="#333e48" fill="none"/><path id="shape68" d="M.0,2.5C.0,3.8,1.1,5.0,2.5,5.0C3.8,5.0,4.9,3.8,4.9,2.5C4.9,1.1,3.8,.0,2.5,.0C1.1,.0,.0,1.1,.0,2.5z" transform="translate(133.395200,138.019850)" fill-rule="nonzero" fill="#333e48"/><path id="shape69" d="M.0,2.5C.0,3.8,1.1,5.0,2.5,5.0C3.8,5.0,4.9,3.8,4.9,2.5C4.9,1.1,3.8,.0,2.5,.0C1.1,.0,.0,1.1,.0,2.5z" transform="translate(133.395200,117.856850)" fill-rule="nonzero" fill="#333e48"/><path id="shape70" d="M4.9,2.5C4.9,3.8,3.8,5.0,2.5,5.0C1.1,5.0,.0,3.8,.0,2.5C.0,1.1,1.1,.0,2.5,.0C3.8,.0,4.9,1.1,4.9,2.5z" transform="translate(257.033200,118.382850)" stroke-width="0.99727702140808105" stroke-dasharray="6,4" fill-rule="nonzero" stroke="#333e48" fill="#333e48"/><path id="shape71" d="M4.9,2.5C4.9,3.8,3.8,5.0,2.5,5.0C1.1,5.0,.0,3.8,.0,2.5C.0,1.1,1.1,.0,2.5,.0C3.8,.0,4.9,1.1,4.9,2.5z" transform="translate(257.033200,98.440850)" stroke-width="0.99727702140808105" stroke-dasharray="6,4" fill-rule="nonzero" stroke="#333e48" fill="#333e48"/><path id="shape72" d="M4.9,2.5C4.9,3.8,3.8,5.0,2.5,5.0C1.1,5.0,.0,3.8,.0,2.5C.0,1.1,1.1,.0,2.5,.0C3.8,.0,4.9,1.1,4.9,2.5z" transform="translate(257.033200,78.498850)" stroke-width="0.99727702140808105" stroke-dasharray="6,4" fill-rule="nonzero" stroke="#333e48" fill="#333e48"/><path id="shape73" d="M4.9,2.5C4.9,3.8,3.8,5.0,2.5,5.0C1.1,5.0,.0,3.8,.0,2.5C.0,1.1,1.1,.0,2.5,.0C3.8,.0,4.9,1.1,4.9,2.5z" transform="translate(257.033200,58.556850)" stroke-width="0.99727702140808105" stroke-dasharray="6,4" fill-rule="nonzero" stroke="#333e48" fill="#333e48"/><path id="shape74" d="M4.9,2.5C4.9,3.8,3.8,5.0,2.5,5.0C1.1,5.0,.0,3.8,.0,2.5C.0,1.1,1.1,.0,2.5,.0C3.8,.0,4.9,1.1,4.9,2.5z" transform="translate(257.033200,38.614850)" stroke-width="0.99727702140808105" stroke-dasharray="6,4" fill-rule="nonzero" stroke="#333e48" fill="#333e48"/><path id="shape75" d="M4.9,2.5C4.9,3.8,3.8,5.0,2.5,5.0C1.1,5.0,.0,3.8,.0,2.5C.0,1.1,1.1,.0,2.5,.0C3.8,.0,4.9,1.1,4.9,2.5z" transform="translate(257.033200,18.672850)" stroke-width="0.99727702140808105" stroke-dasharray="6,4" fill-rule="nonzero" stroke="#333e48" fill="#333e48"/><path id="shape76" d="M.0,161.2L20.7,20.1L20.8,.0" transform="translate(256.748000,149.291600)" stroke-width="1.495919942855835" stroke-dasharray="3.7398,3.7398" stroke="#333e48" fill="none"/><path id="shape77" d="M.0,2.5C.0,3.8,1.1,5.0,2.5,5.0C3.8,5.0,4.9,3.8,4.9,2.5C4.9,1.1,3.8,.0,2.5,.0C1.1,.0,.0,1.1,.0,2.5z" transform="translate(275.074200,166.951850)" fill-rule="nonzero" fill="#333e48"/><path id="shape78" d="M.0,2.5C.0,3.8,1.1,5.0,2.5,5.0C3.8,5.0,4.9,3.8,4.9,2.5C4.9,1.1,3.8,.0,2.5,.0C1.1,.0,.0,1.1,.0,2.5z" transform="translate(275.074200,147.038850)" fill-rule="nonzero" fill="#333e48"/><path id="shape79" d="M4.9,2.5C4.9,1.1,3.8,.0,2.5,.0C1.1,.0,.0,1.1,.0,2.5C.0,3.8,1.1,5.0,2.5,5.0C3.8,5.0,4.9,3.8,4.9,2.5z" transform="translate(254.490200,308.219850)" fill-rule="nonzero" fill="#333e48"/><path id="shape80" d="M.0,2.5C.0,3.8,1.1,5.0,2.5,5.0C3.8,5.0,4.9,3.8,4.9,2.5C4.9,1.1,3.8,.0,2.5,.0C1.1,.0,.0,1.1,.0,2.5z" transform="translate(67.082200,202.089850)" fill-rule="nonzero" fill="#333e48"/><path id="shape81" d="M40.6,118.3L.0,20.7L.0,.0" transform="translate(28.844100,86.349500)" stroke-width="1.495919942855835" stroke-dasharray="3.7398,3.7398" stroke="#333e48" fill="none"/><path id="shape82" d="M.0,2.5C.0,3.8,1.1,5.0,2.5,5.0C3.8,5.0,4.9,3.8,4.9,2.5C4.9,1.1,3.8,.0,2.5,.0C1.1,.0,.0,1.1,.0,2.5z" transform="translate(26.446200,104.157850)" stroke-width="0.99727702140808105" stroke-dasharray="6,4" fill-rule="nonzero" stroke="#333e48" fill="#333e48"/><path id="shape83" d="M.0,2.5C.0,3.8,1.1,5.0,2.5,5.0C3.8,5.0,4.9,3.8,4.9,2.5C4.9,1.1,3.8,.0,2.5,.0C1.1,.0,.0,1.1,.0,2.5z" transform="translate(26.597200,83.995850)" stroke-width="0.99727702140808105" stroke-dasharray="6,4" fill-rule="nonzero" stroke="#333e48" fill="#333e48"/><g id="shape84" transform="translate(64.372800,193.669800)"><text xml:space="preserve" style="fill:#ffffff;font-family:Lato,PingFang SC,Mircrosoft YaHei,Arial;font-size:20px"><tspan x="21.5" textLength="32.0" y="21.1" style="font-size:13px">Warp</tspan><tspan x="11.5" textLength="52.0" y="33.9" style="font-size:13px">Manager</tspan></text></g><g id="shape85" transform="translate(159.302600,193.669800)"><text xml:space="preserve" style="fill:#ffffff;font-family:Lato,PingFang SC,Mircrosoft YaHei,Arial;font-size:20px"><tspan x="12.0" textLength="56.0" y="21.4" style="font-size:13px">Execution</tspan><tspan x="15.0" textLength="50.0" y="34.2" style="font-size:13px">Engine 0</tspan></text></g><g id="shape86" transform="translate(274.217600,193.669800)"><text xml:space="preserve" style="fill:#ffffff;font-family:Lato,PingFang SC,Mircrosoft YaHei,Arial;font-size:20px"><tspan x="12.0" textLength="56.0" y="21.1" style="font-size:13px">Execution</tspan><tspan x="14.0" textLength="52.0" y="33.9" style="font-size:13px">Engine N</tspan></text></g><g id="shape87" transform="translate(64.373200,264.530200)"><text xml:space="preserve" style="fill:#ffffff;font-family:Lato,PingFang SC,Mircrosoft YaHei,Arial;font-size:20px"><tspan x="8.0" textLength="44.0" y="21.4" style="font-size:13px">Varying</tspan><tspan x="18.0" textLength="24.0" y="34.2" style="font-size:13px">Unit</tspan></text></g><g id="shape88" transform="translate(134.255600,265.007400)"><text xml:space="preserve" style="fill:#ffffff;font-family:Lato,PingFang SC,Mircrosoft YaHei,Arial;font-size:20px"><tspan x="8.5" textLength="63.0" y="21.2" style="font-size:13px">Load/Store</tspan><tspan x="28.0" textLength="24.0" y="34.0" style="font-size:13px">Unit</tspan></text></g><g id="shape89" transform="translate(224.254100,263.030300)"><text xml:space="preserve" style="fill:#333e48;font-family:Lato,PingFang SC,Mircrosoft YaHei,Arial;font-size:20px"><tspan x="11.0" textLength="43.0" y="21.4" style="font-size:13px">Texture</tspan><tspan x="20.5" textLength="24.0" y="34.2" style="font-size:13px">Unit</tspan></text></g><g id="shape90" transform="translate(299.199200,263.006500)"><text xml:space="preserve" style="fill:#ffffff;font-family:Lato,PingFang SC,Mircrosoft YaHei,Arial;font-size:20px"><tspan x="8.0" textLength="44.0" y="21.2" style="font-size:13px">Late ZS</tspan><tspan x="18.0" textLength="24.0" y="34.0" style="font-size:13px">Unit</tspan></text></g><g id="shape91" transform="translate(369.147000,265.007400)"><text xml:space="preserve" style="fill:#ffffff;font-family:Lato,PingFang SC,Mircrosoft YaHei,Arial;font-size:20px"><tspan x="19.0" textLength="32.0" y="21.2" style="font-size:13px">Blend</tspan><tspan x="23.0" textLength="24.0" y="34.0" style="font-size:13px">Unit</tspan></text></g><g id="shape92" transform="translate(365.382000,322.421700)"><text xml:space="preserve" style="fill:#7d868c;font-family:Lato,PingFang SC,Mircrosoft YaHei,Arial;font-size:20px"><tspan x="7.0" textLength="58.5" y="17.7" style="font-size:13px">Fragment </tspan><tspan x="9.0" textLength="52.0" y="30.5" style="font-size:13px">Back end</tspan></text></g><g id="shape93" transform="translate(379.140000,190.689700)"><text xml:space="preserve" style="fill:#7d868c;font-family:Lato,PingFang SC,Mircrosoft YaHei,Arial;font-size:20px"><tspan x="9.5" textLength="56.0" y="17.0" style="font-size:13px">Execution</tspan><tspan x="37.5" textLength="28.0" y="29.8" style="font-size:13px">Core</tspan></text></g><g id="shape94" transform="translate(64.372800,152.748900)"><text xml:space="preserve" style="fill:#7d868c;font-family:Lato,PingFang SC,Mircrosoft YaHei,Arial;font-size:20px"><tspan x="7.0" textLength="61.0" y="21.1" style="font-size:13px">Front ends</tspan></text></g><g id="shape95" transform="translate(32.445700,73.910600)"><text xml:space="preserve" style="fill:#333e48;font-family:Lato,PingFang SC,Mircrosoft YaHei,Arial;font-size:16px"><tspan x="4.4" textLength="92.0" y="16.1" style="font-size:11px">Warps with all regs</tspan></text></g><g id="shape96" transform="translate(32.445700,93.072600)"><text xml:space="preserve" style="fill:#333e48;font-family:Lato,PingFang SC,Mircrosoft YaHei,Arial;font-size:16px"><tspan x="4.4" textLength="100.0" y="16.5" style="font-size:11px">Warps with all quads</tspan></text></g><g id="shape97" transform="translate(140.601200,108.771700)"><text xml:space="preserve" style="fill:#333e48;font-family:Lato,PingFang SC,Mircrosoft YaHei,Arial;font-size:16px"><tspan x="4.4" textLength="57.0" y="16.1" style="font-size:11px">Instructions</tspan></text></g><g id="shape98" transform="translate(140.600300,128.915700)"><text xml:space="preserve" style="fill:#333e48;font-family:Lato,PingFang SC,Mircrosoft YaHei,Arial;font-size:16px"><tspan x="4.3" textLength="103.0" y="16.1" style="font-size:11px">Diverged instructions</tspan></text></g><g id="shape99" transform="translate(265.331000,18.029600)"><text xml:space="preserve" style="fill:#333e48;font-family:Lato,PingFang SC,Mircrosoft YaHei,Arial;font-size:16px"><tspan x="4.4" textLength="107.0" y="26.6" style="font-size:11px">Texture filtering active</tspan></text></g><g id="shape100" transform="translate(265.330700,48.471600)"><text xml:space="preserve" style="fill:#333e48;font-family:Lato,PingFang SC,Mircrosoft YaHei,Arial;font-size:16px"><tspan x="4.4" textLength="83.0" y="16.5" style="font-size:11px">Trilinear samples</tspan></text></g><g id="shape101" transform="translate(265.330700,67.825600)"><text xml:space="preserve" style="fill:#333e48;font-family:Lato,PingFang SC,Mircrosoft YaHei,Arial;font-size:16px"><tspan x="4.4" textLength="100.0" y="16.5" style="font-size:11px">Mipmapped samples</tspan></text></g><g id="shape102" transform="translate(265.330700,87.995600)"><text xml:space="preserve" style="fill:#333e48;font-family:Lato,PingFang SC,Mircrosoft YaHei,Arial;font-size:16px"><tspan x="4.4" textLength="103.0" y="16.5" style="font-size:11px">Compressed samples</tspan></text></g><g id="shape103" transform="translate(265.330700,107.728600)"><text xml:space="preserve" style="fill:#333e48;font-family:Lato,PingFang SC,Mircrosoft YaHei,Arial;font-size:16px"><tspan x="4.4" textLength="56.0" y="16.5" style="font-size:11px">3D samples</tspan></text></g><g id="shape104" transform="translate(280.259500,125.652600)"><text xml:space="preserve" style="fill:#333e48;font-family:Lato,PingFang SC,Mircrosoft YaHei,Arial;font-size:16px"><tspan x="4.4" textLength="128.0" y="26.6" style="font-size:11px">Texture read bytes from L2</tspan></text></g><g id="shape105" transform="translate(280.259900,146.664600)"><text xml:space="preserve" style="fill:#333e48;font-family:Lato,PingFang SC,Mircrosoft YaHei,Arial;font-size:16px"><tspan x="4.4" textLength="156.0" y="26.6" style="font-size:11px">Texture read bytes from external</tspan></text></g><g id="shape106" transform="translate(14.932700,346.885600)"><text xml:space="preserve" style="fill:#333e48;font-family:Lato,PingFang SC,Mircrosoft YaHei,Arial;font-size:16px"><tspan x="4.4" textLength="69.0" y="16.5" style="font-size:11px">Varying active</tspan></text></g><g id="shape107" transform="translate(15.433700,366.771600)"><text xml:space="preserve" style="fill:#333e48;font-family:Lato,PingFang SC,Mircrosoft YaHei,Arial;font-size:16px"><tspan x="4.4" textLength="100.0" y="16.5" style="font-size:11px">Varying 16-bit active</tspan></text></g><g id="shape108" transform="translate(15.362500,384.343200)"><text xml:space="preserve" style="fill:#333e48;font-family:Lato,PingFang SC,Mircrosoft YaHei,Arial;font-size:16px"><tspan x="4.4" textLength="100.0" y="19.0" style="font-size:11px">Varying 32-bit active</tspan></text></g><g id="shape109" transform="translate(175.533300,458.296700)"><text xml:space="preserve" style="fill:#333e48;font-family:Lato,PingFang SC,Mircrosoft YaHei,Arial;font-size:16px"><tspan x="4.3" textLength="82.0" y="16.1" style="font-size:11px">L/S partial writes</tspan></text></g><g id="shape110" transform="translate(175.561100,439.362700)"><text xml:space="preserve" style="fill:#333e48;font-family:Lato,PingFang SC,Mircrosoft YaHei,Arial;font-size:16px"><tspan x="4.3" textLength="66.0" y="16.1" style="font-size:11px">L/S full writes</tspan></text></g><g id="shape111" transform="translate(175.533300,418.376700)"><text xml:space="preserve" style="fill:#333e48;font-family:Lato,PingFang SC,Mircrosoft YaHei,Arial;font-size:16px"><tspan x="4.3" textLength="79.0" y="16.1" style="font-size:11px">L/S partial reads</tspan></text></g><g id="shape112" transform="translate(175.533200,398.489700)"><text xml:space="preserve" style="fill:#333e48;font-family:Lato,PingFang SC,Mircrosoft YaHei,Arial;font-size:16px"><tspan x="4.3" textLength="63.0" y="16.1" style="font-size:11px">L/S full reads</tspan></text></g><g id="shape113" transform="translate(175.533800,377.856700)"><text xml:space="preserve" style="fill:#333e48;font-family:Lato,PingFang SC,Mircrosoft YaHei,Arial;font-size:16px"><tspan x="4.2" textLength="47.0" y="16.1" style="font-size:11px">L/S active</tspan></text></g><g id="shape114" transform="translate(176.832651,481.961861)"><text xml:space="preserve" style="fill:#333e48;font-family:Lato,PingFang SC,Mircrosoft YaHei,Arial;font-size:16px"><tspan x="4.2" textLength="56.0" y="12.0" style="font-size:11px">L/S atomics</tspan></text></g><g id="shape115" transform="translate(318.366200,419.286200)"><text xml:space="preserve" style="fill:#333e48;font-family:Lato,PingFang SC,Mircrosoft YaHei,Arial;font-size:16px"><tspan x="4.4" textLength="108.0" y="19.1" style="font-size:11px">L/S read bytes from L2</tspan></text></g><g id="shape116" transform="translate(318.366500,442.516700)"><text xml:space="preserve" style="fill:#333e48;font-family:Lato,PingFang SC,Mircrosoft YaHei,Arial;font-size:16px"><tspan x="4.3" textLength="136.0" y="16.1" style="font-size:11px">L/S read bytes from external</tspan></text></g><g id="shape117" transform="translate(365.381300,362.098700)"><text xml:space="preserve" style="fill:#333e48;font-family:Lato,PingFang SC,Mircrosoft YaHei,Arial;font-size:16px"><tspan x="4.2" textLength="101.0" y="16.1" style="font-size:11px">Quads late ZS tested</tspan></text></g><g id="shape118" transform="translate(365.147000,382.327700)"><text xml:space="preserve" style="fill:#333e48;font-family:Lato,PingFang SC,Mircrosoft YaHei,Arial;font-size:16px"><tspan x="4.2" textLength="97.0" y="16.1" style="font-size:11px">Quads late ZS killed</tspan></text></g><g id="shape119" transform="translate(256.251800,346.885700)"><text xml:space="preserve" style="fill:#333e48;font-family:Lato,PingFang SC,Mircrosoft YaHei,Arial;font-size:16px"><tspan x="4.4" textLength="72.0" y="16.1" style="font-size:11px">L/S write bytes</tspan></text></g><g id="shape120" transform="translate(15.362500,384.343200)"><text xml:space="preserve" style="fill:#333e48;font-family:Lato,PingFang SC,Mircrosoft YaHei,Arial;font-size:16px"><tspan x="4.4" textLength="100.0" y="19.0" style="font-size:11px">Varying 32-bit active</tspan></text></g><g id="shape121" transform="translate(265.790500,15.000020)"><text xml:space="preserve" style="fill:#333e48;font-family:Lato,PingFang SC,Mircrosoft YaHei,Arial;font-size:16px"><tspan x="4.4" textLength="78.0" y="11.3" style="font-size:11px">Texture samples</tspan></text></g></g></svg>