<svg xmlns:ev="http://www.w3.org/2001/xml-events" xmlns:xlink="http://www.w3.org/1999/xlink" viewBox="0 0 535 506" xmlns="http://www.w3.org/2000/svg" width="535" height="506"><defs/><g transform="translate(5.5,5.5)" id="page1"><rect y="0" fill="#ffffff" width="525" height="496" x="0"/><path transform="translate(125.957000,213.568600)" fill-rule="nonzero" stroke-width="1.3333300352096558" fill="#11809f" id="shape1" stroke="#333e48" d="M.0,.0L219.7,.0L219.7,49.9L.0,49.9L.0,.0z"/><path transform="translate(125.957900,163.673800)" fill-rule="nonzero" stroke-width="1.3333300352096558" fill="#00c1de" id="shape2" stroke="#333e48" d="M.0,.0L99.9,.0L99.9,34.9L.0,34.9L.0,.0z"/><path transform="translate(170.894990,203.589530)" fill-rule="nonzero" stroke-width="0.99650001525878906" fill="#333e48" id="shape3" stroke="#333e48" d="M10.0,.0L5.0,10.0L.0,.0L10.0,.0z"/><path transform="translate(175.888000,198.600530)" stroke-width="2.7964200973510742" fill="none" id="shape4" stroke="#333e48" d="M.0,.0L.0,10.0"/><path transform="translate(290.727990,203.589530)" fill-rule="nonzero" stroke-width="0.99650001525878906" fill="#333e48" id="shape5" stroke="#333e48" d="M10.0,.0L5.0,10.0L.0,.0L10.0,.0z"/><path transform="translate(295.721000,198.600530)" stroke-width="2.7964200973510742" fill="none" id="shape6" stroke="#333e48" d="M.0,.0L.0,10.0"/><path transform="translate(350.643500,13.989000)" stroke-width="2" fill="none" id="shape7" stroke="#7d868c" d="M.0,.0L25.0,.0"/><path transform="translate(350.643500,468.032000)" stroke-width="2" fill="none" id="shape8" stroke="#7d868c" d="M.0,.0L25.0,.0"/><path transform="translate(365.623000,18.979000)" stroke-width="1.4947500228881836" fill="none" id="shape9" stroke="#7d868c" d="M.0,.0L.0,439.1" stroke-dasharray="3.73688,3.73688"/><path transform="translate(363.454490,13.989530)" fill-rule="nonzero" stroke-width="0.99650001525878906" fill="#7d868c" id="shape10" stroke="#7d868c" d="M4.3,10.0L2.2,.0L.0,10.0L4.3,10.0z"/><path transform="translate(363.454490,458.052500)" fill-rule="nonzero" stroke-width="0.99650001525878906" fill="#7d868c" id="shape11" stroke="#7d868c" d="M.0,.0L2.2,10.0L4.3,.0L.0,.0z"/><path transform="translate(245.790900,13.988800)" fill-rule="nonzero" stroke-width="1.3333300352096558" fill="#00c1de" id="shape12" stroke="#333e48" d="M.0,.0L99.9,.0L99.9,34.9L.0,34.9L.0,.0z"/><path transform="translate(290.727990,53.905530)" fill-rule="nonzero" stroke-width="0.99650001525878906" fill="#333e48" id="shape13" stroke="#333e48" d="M10.0,.0L5.0,10.0L.0,.0L10.0,.0z"/><path transform="translate(295.721000,48.915530)" stroke-width="2.7964200973510742" fill="none" id="shape14" stroke="#333e48" d="M.0,.0L.0,10.0"/><path transform="translate(245.790900,63.884060)" fill-rule="nonzero" stroke-width="1.3333300352096558" fill="#00c1de" id="shape15" stroke="#333e48" d="M.0,.0L99.9,.0L99.9,20.0L.0,20.0L.0,.0z"/><path transform="translate(305.706990,103.799530)" fill-rule="nonzero" stroke-width="0.99650001525878906" fill="#333e48" id="shape16" stroke="#333e48" d="M10.0,.0L5.0,10.0L.0,.0L10.0,.0z"/><path transform="translate(310.700000,98.810530)" stroke-width="2.7964200973510742" fill="none" id="shape17" stroke="#333e48" d="M.0,.0L.0,10.0"/><path transform="translate(275.748900,113.778800)" fill-rule="nonzero" stroke-width="1.3333300352096558" fill="#00c1de" id="shape18" stroke="#333e48" d="M.0,.0L69.9,.0L69.9,34.9L.0,34.9L.0,.0z"/><path transform="translate(260.769000,98.810400)" stroke-width="2.7964200973510742" fill="none" id="shape19" stroke="#333e48" d="M.0,.0L.0,64.9"/><path transform="translate(310.700000,148.705300)" stroke-width="2.7964200973510742" fill="none" id="shape20" stroke="#333e48" d="M.0,.0L.0,24.9"/><path transform="translate(245.790900,178.642060)" fill-rule="nonzero" stroke-width="1.3333300352096558" fill="#00c1de" id="shape21" stroke="#333e48" d="M.0,.0L99.9,.0L99.9,20.0L.0,20.0L.0,.0z"/><path transform="translate(290.727990,268.452530)" fill-rule="nonzero" stroke-width="0.99650001525878906" fill="#333e48" id="shape22" stroke="#333e48" d="M10.0,.0L5.0,10.0L.0,.0L10.0,.0z"/><path transform="translate(295.721000,263.463530)" stroke-width="2.7964200973510742" fill="none" id="shape23" stroke="#333e48" d="M.0,.0L.0,10.0"/><path transform="translate(245.790900,278.432060)" fill-rule="nonzero" stroke-width="1.3333300352096558" fill="#00c1de" id="shape24" stroke="#333e48" d="M.0,.0L99.9,.0L99.9,20.0L.0,20.0L.0,.0z"/><path transform="translate(290.727990,303.379530)" fill-rule="nonzero" stroke-width="0.99650001525878906" fill="#333e48" id="shape25" stroke="#333e48" d="M10.0,.0L5.0,10.0L.0,.0L10.0,.0z"/><path transform="translate(295.721000,298.389530)" stroke-width="2.7964200973510742" fill="none" id="shape26" stroke="#333e48" d="M.0,.0L.0,10.0"/><path transform="translate(245.790900,313.358060)" fill-rule="nonzero" stroke-width="1.3333300352096558" fill="#ff6b00" id="shape27" stroke="#333e48" d="M.0,.0L99.9,.0L99.9,20.0L.0,20.0L.0,.0z"/><path transform="translate(290.727990,338.305530)" fill-rule="nonzero" stroke-width="0.99650001525878906" fill="#333e48" id="shape28" stroke="#333e48" d="M10.0,.0L5.0,10.0L.0,.0L10.0,.0z"/><path transform="translate(295.721000,333.316530)" stroke-width="2.7964200973510742" fill="none" id="shape29" stroke="#333e48" d="M.0,.0L.0,10.0"/><path transform="translate(245.790900,348.284060)" fill-rule="nonzero" stroke-width="1.3333300352096558" fill="#00c1de" id="shape30" stroke="#333e48" d="M.0,.0L99.9,.0L99.9,20.0L.0,20.0L.0,.0z"/><path transform="translate(96.000500,163.674000)" stroke-width="2" fill="none" id="shape31" stroke="#7d868c" d="M.0,.0L25.0,.0"/><path transform="translate(96.000500,263.463000)" stroke-width="2" fill="none" id="shape32" stroke="#7d868c" d="M.0,.0L25.0,.0"/><path transform="translate(110.979000,168.663700)" stroke-width="1.4947500228881836" fill="none" id="shape33" stroke="#7d868c" d="M.0,.0L.0,89.8" stroke-dasharray="3.73688,3.73688"/><path transform="translate(108.810490,163.673530)" fill-rule="nonzero" stroke-width="0.99650001525878906" fill="#7d868c" id="shape34" stroke="#7d868c" d="M4.3,10.0L2.2,.0L.0,10.0L4.3,10.0z"/><path transform="translate(108.810490,253.484500)" fill-rule="nonzero" stroke-width="0.99650001525878906" fill="#7d868c" id="shape35" stroke="#7d868c" d="M.0,.0L2.2,10.0L4.3,.0L.0,.0z"/><g transform="translate(235.804900,104.276160)" id="group36"><path transform="translate(72.419920,0.000000)" fill-rule="nonzero" stroke-width="1.4947500228881836" fill="#333e48" id="shape37" stroke="#333e48" d="M4.9,2.5C4.9,3.8,3.8,5.0,2.5,5.0C1.1,5.0,.0,3.8,.0,2.5C.0,1.1,1.1,.0,2.5,.0C3.8,.0,4.9,1.1,4.9,2.5z" stroke-dasharray="3.73688,3.73688"/><path transform="translate(0.000000,2.225160)" fill-rule="nonzero" stroke-width="1.4947500228881836" fill="#333e48" id="shape38" stroke="#333e48" d="M74.9,.0L.0,2.3" stroke-dasharray="3.73688,3.73688"/></g><path transform="translate(295.721000,83.841790)" stroke-width="2.7964200973510742" fill="none" id="shape39" stroke="#333e48" d="M.0,.0L.0,15.0"/><path transform="translate(260.770000,98.810000)" stroke-width="2.7961800098419189" fill="none" id="shape40" stroke="#333e48" d="M.0,.0L49.9,.0" stroke-linecap="square"/><g transform="translate(235.804400,88.831890)" id="group41"><path transform="translate(57.440920,0.768530)" fill-rule="nonzero" stroke-width="1.4947500228881836" fill="#333e48" id="shape42" stroke="#333e48" d="M4.9,2.5C4.9,3.8,3.8,5.0,2.5,5.0C1.1,5.0,.0,3.8,.0,2.5C.0,1.1,1.1,.0,2.5,.0C3.8,.0,4.9,1.1,4.9,2.5z" stroke-dasharray="3.73688,3.73688"/><path fill-rule="nonzero" stroke-width="1.4947500228881836" fill="#333e48" id="shape43" stroke="#333e48" d="M59.9,3.0L.0,.0" stroke-dasharray="3.73688,3.73688"/></g><g transform="translate(338.214900,116.543890)" id="group44"><path fill-rule="nonzero" fill="#333e48" id="shape45" d="M.0,2.5C.0,3.8,1.1,5.0,2.5,5.0C3.8,5.0,4.9,3.8,4.9,2.5C4.9,1.1,3.8,.0,2.5,.0C1.1,.0,.0,1.1,.0,2.5z"/><path transform="translate(2.443100,2.225150)" fill-rule="nonzero" stroke-width="1.4947500228881836" fill="#333e48" id="shape46" stroke="#333e48" d="M.0,.0L44.9,9.0" stroke-dasharray="3.73688,3.73688"/></g><g transform="translate(338.214900,141.490850)" id="group47"><path fill-rule="nonzero" fill="#333e48" id="shape48" d="M.0,2.5C.0,3.8,1.1,5.0,2.5,5.0C3.8,5.0,4.9,3.8,4.9,2.5C4.9,1.1,3.8,.0,2.5,.0C1.1,.0,.0,1.1,.0,2.5z"/><path transform="translate(2.443200,2.225160)" fill-rule="nonzero" stroke-width="1.4947500228881836" fill="#333e48" id="shape49" stroke="#333e48" d="M.0,.0L44.9,8.0" stroke-dasharray="3.73688,3.73688"/></g><g transform="translate(338.567400,173.653250)" id="group50"><path transform="translate(0.000000,7.753760)" fill-rule="nonzero" fill="#333e48" id="shape51" d="M.0,2.5C.0,3.8,1.1,5.0,2.5,5.0C3.8,5.0,4.9,3.8,4.9,2.5C4.9,1.1,3.8,.0,2.5,.0C1.1,.0,.0,1.1,.0,2.5z"/><path transform="translate(2.443200,0.000000)" fill-rule="nonzero" stroke-width="1.4947500228881836" fill="#333e48" id="shape52" stroke="#333e48" d="M.0,10.0L44.6,.0" stroke-dasharray="3.73688,3.73688"/></g><g transform="translate(292.879300,204.065900)" id="group53"><path fill-rule="nonzero" fill="#333e48" id="shape54" d="M.0,2.5C.0,3.8,1.1,5.0,2.5,5.0C3.8,5.0,4.9,3.8,4.9,2.5C4.9,1.1,3.8,.0,2.5,.0C1.1,.0,.0,1.1,.0,2.5z"/><path transform="translate(2.443100,2.225190)" fill-rule="nonzero" stroke-width="1.4947500228881836" fill="#333e48" id="shape55" stroke="#333e48" d="M.0,.0L89.9,17.8" stroke-dasharray="3.73688,3.73688"/></g><g transform="translate(120.258800,204.607300)" id="group56"><path transform="translate(53.186020,0.000000)" fill-rule="nonzero" fill="#333e48" id="shape57" d="M.0,2.5C.0,3.8,1.1,5.0,2.5,5.0C3.8,5.0,4.9,3.8,4.9,2.5C4.9,1.1,3.8,.0,2.5,.0C1.1,.0,.0,1.1,.0,2.5z"/><path transform="translate(0.000000,2.225100)" fill-rule="nonzero" stroke-width="1.4947500228881836" fill="#333e48" id="shape58" stroke="#333e48" d="M55.6,.0L.0,77.3" stroke-dasharray="3.73688,3.73688"/></g><g transform="translate(338.214900,353.274130)" id="group59"><path transform="translate(0.000000,2.472050)" fill-rule="nonzero" fill="#333e48" id="shape60" d="M.0,2.5C.0,3.8,1.1,5.0,2.5,5.0C3.8,5.0,4.9,3.8,4.9,2.5C4.9,1.1,3.8,.0,2.5,.0C1.1,.0,.0,1.1,.0,2.5z"/><path transform="translate(2.443200,0.000000)" fill-rule="nonzero" stroke-width="1.4947500228881836" fill="#95d600" id="shape61" stroke="#333e48" d="M.0,4.7L44.9,.0" stroke-dasharray="3.73688,3.73688"/></g><path transform="translate(290.727990,373.231530)" fill-rule="nonzero" stroke-width="0.99650001525878906" fill="#333e48" id="shape62" stroke="#333e48" d="M10.0,.0L5.0,10.0L.0,.0L10.0,.0z"/><path transform="translate(295.721000,368.242530)" stroke-width="2.7964200973510742" fill="none" id="shape63" stroke="#333e48" d="M.0,.0L.0,10.0"/><path transform="translate(245.790900,383.210800)" fill-rule="nonzero" stroke-width="1.3333300352096558" fill="#00c1de" id="shape64" stroke="#333e48" d="M.0,.0L99.9,.0L99.9,34.9L.0,34.9L.0,.0z"/><g transform="translate(338.214900,254.253100)" id="group65"><path fill-rule="nonzero" fill="#333e48" id="shape66" d="M.0,2.5C.0,3.8,1.1,5.0,2.5,5.0C3.8,5.0,4.9,3.8,4.9,2.5C4.9,1.1,3.8,.0,2.5,.0C1.1,.0,.0,1.1,.0,2.5z"/><path transform="translate(2.443200,2.225200)" fill-rule="nonzero" stroke-width="1.4947500228881836" fill="#95d600" id="shape67" stroke="#333e48" d="M.0,.0L44.9,31.9" stroke-dasharray="3.73688,3.73688"/></g><path transform="translate(338.566820,191.386160)" fill-rule="nonzero" fill="#333e48" id="shape68" d="M.0,2.5C.0,3.8,1.1,5.0,2.5,5.0C3.8,5.0,4.9,3.8,4.9,2.5C4.9,1.1,3.8,.0,2.5,.0C1.1,.0,.0,1.1,.0,2.5z"/><path transform="translate(341.011000,193.611000)" stroke-width="1.4947500228881836" fill="none" id="shape69" stroke="#333e48" d="M.0,.0L44.6,.0" stroke-dasharray="3.73688,3.73688"/><path transform="translate(338.214820,397.950160)" fill-rule="nonzero" fill="#333e48" id="shape70" d="M.0,2.5C.0,3.8,1.1,5.0,2.5,5.0C3.8,5.0,4.9,3.8,4.9,2.5C4.9,1.1,3.8,.0,2.5,.0C1.1,.0,.0,1.1,.0,2.5z"/><path transform="translate(340.657500,393.189360)" fill-rule="nonzero" stroke-width="1.4947500228881836" fill="#95d600" id="shape71" stroke="#333e48" d="M.0,7.0L44.9,.0" stroke-dasharray="3.73688,3.73688"/><path transform="translate(260.770000,163.674000)" stroke-width="2.7961800098419189" fill="none" id="shape72" stroke="#333e48" d="M.0,.0L49.9,.0" stroke-linecap="square"/><path transform="translate(305.706990,168.663530)" fill-rule="nonzero" stroke-width="0.99650001525878906" fill="#333e48" id="shape73" stroke="#333e48" d="M10.0,.0L5.0,10.0L.0,.0L10.0,.0z"/><path transform="translate(295.720900,206.084200)" fill-rule="nonzero" stroke-width="1.4947500228881836" fill="#333e48" id="shape74" stroke="#333e48" d="M.0,.0L89.9,38.0" stroke-dasharray="3.73688,3.73688"/><path transform="translate(290.727990,423.126530)" fill-rule="nonzero" stroke-width="0.99650001525878906" fill="#333e48" id="shape75" stroke="#333e48" d="M10.0,.0L5.0,10.0L.0,.0L10.0,.0z"/><path transform="translate(295.721000,418.137530)" stroke-width="2.7964200973510742" fill="none" id="shape76" stroke="#333e48" d="M.0,.0L.0,10.0"/><path transform="translate(245.790900,433.105800)" fill-rule="nonzero" stroke-width="1.3333300352096558" fill="#00c1de" id="shape77" stroke="#333e48" d="M.0,.0L99.9,.0L99.9,34.9L.0,34.9L.0,.0z"/><path transform="translate(290.727990,473.021530)" fill-rule="nonzero" stroke-width="0.99650001525878906" fill="#333e48" id="shape78" stroke="#333e48" d="M10.0,.0L5.0,10.0L.0,.0L10.0,.0z"/><path transform="translate(295.721000,468.031530)" stroke-width="2.7964200973510742" fill="none" id="shape79" stroke="#333e48" d="M.0,.0L.0,10.0"/><path transform="translate(293.277820,473.291160)" fill-rule="nonzero" fill="#333e48" id="shape80" d="M.0,2.5C.0,3.8,1.1,5.0,2.5,5.0C3.8,5.0,4.9,3.8,4.9,2.5C4.9,1.1,3.8,.0,2.5,.0C1.1,.0,.0,1.1,.0,2.5z"/><path transform="translate(295.720900,473.021630)" fill-rule="nonzero" stroke-width="1.4947500228881836" fill="#95d600" id="shape81" stroke="#333e48" d="M.0,2.5L89.9,.0" stroke-dasharray="3.73688,3.73688"/><g transform="translate(245.790900,11.988900)" id="shape82"><text xml:space="preserve" style="fill:#ffffff;font-family:Lato,PingFang SC,Mircrosoft YaHei,Arial;font-size:20px"><tspan y="17.7" style="font-size:13px" x="26.9" textLength="49.0">Polygon </tspan><tspan y="30.5" style="font-size:13px" x="17.4" textLength="65.0">List Reader</tspan></text></g><g transform="translate(245.790200,56.384000)" id="shape83"><text xml:space="preserve" style="fill:#ffffff;font-family:Lato,PingFang SC,Mircrosoft YaHei,Arial;font-size:20px"><tspan y="21.2" style="font-size:13px" x="20.1" textLength="59.0">Rasterizer</tspan></text></g><g transform="translate(276.399000,107.634000)" id="shape84"><text xml:space="preserve" style="fill:#ffffff;font-family:Lato,PingFang SC,Mircrosoft YaHei,Arial;font-size:20px"><tspan y="21.7" style="font-size:13px" x="20.0" textLength="30.0">Early</tspan><tspan y="34.5" style="font-size:13px" x="14.0" textLength="42.0">ZS Test</tspan></text></g><g transform="translate(125.957200,158.673000)" id="shape85"><text xml:space="preserve" style="fill:#ffffff;font-family:Lato,PingFang SC,Mircrosoft YaHei,Arial;font-size:20px"><tspan y="21.3" style="font-size:13px" x="23.6" textLength="52.0">Non-frag</tspan><tspan y="34.1" style="font-size:13px" x="21.1" textLength="57.0">Front-end</tspan></text></g><g transform="translate(245.790200,171.142000)" id="shape86"><text xml:space="preserve" style="fill:#ffffff;font-family:Lato,PingFang SC,Mircrosoft YaHei,Arial;font-size:20px"><tspan y="21.6" style="font-size:13px" x="18.6" textLength="62.0">FPK Buffer</tspan></text></g><g transform="translate(126.783000,213.568600)" id="shape87"><text xml:space="preserve" style="fill:#ffffff;font-family:Lato,PingFang SC,Mircrosoft YaHei,Arial;font-size:20px"><tspan y="25.2" style="font-size:13px" x="81.8" textLength="56.0">Execution</tspan><tspan y="38.0" style="font-size:13px" x="95.8" textLength="28.0">Core</tspan></text></g><g transform="translate(245.790200,270.932000)" id="shape88"><text xml:space="preserve" style="fill:#ffffff;font-family:Lato,PingFang SC,Mircrosoft YaHei,Arial;font-size:20px"><tspan y="21.2" style="font-size:13px" x="27.6" textLength="44.0">Blender</tspan></text></g><g transform="translate(244.276200,305.858000)" id="shape89"><text xml:space="preserve" style="fill:#ffffff;font-family:Lato,PingFang SC,Mircrosoft YaHei,Arial;font-size:20px"><tspan y="21.2" style="font-size:13px" x="23.1" textLength="53.0">Tile RAM</tspan></text></g><g transform="translate(246.116200,340.784000)" id="shape90"><text xml:space="preserve" style="fill:#ffffff;font-family:Lato,PingFang SC,Mircrosoft YaHei,Arial;font-size:20px"><tspan y="21.2" style="font-size:13px" x="22.6" textLength="54.0">Tile write</tspan></text></g><g transform="translate(246.132200,378.058000)" id="shape91"><text xml:space="preserve" style="fill:#ffffff;font-family:Lato,PingFang SC,Mircrosoft YaHei,Arial;font-size:20px"><tspan y="21.3" style="font-size:13px" x="16.1" textLength="67.0">Transaction</tspan><tspan y="34.1" style="font-size:13px" x="17.6" textLength="64.0">Elimination</tspan></text></g><g transform="translate(245.790200,426.605400)" id="shape92"><text xml:space="preserve" style="fill:#ffffff;font-family:Lato,PingFang SC,Mircrosoft YaHei,Arial;font-size:20px"><tspan y="21.2" style="font-size:13px" x="14.1" textLength="71.0">Framebuffer</tspan><tspan y="34.0" style="font-size:13px" x="12.1" textLength="75.0">Compression</tspan></text></g><g transform="translate(109.699800,75.810200)" id="shape93"><text xml:space="preserve" style="fill:#333e48;font-family:Lato,PingFang SC,Mircrosoft YaHei,Arial;font-size:16px"><tspan y="15.0" style="font-size:11px" x="39.1" textLength="83.0">Quads rasterized</tspan></text></g><g transform="translate(76.713800,97.810000)" id="shape94"><text xml:space="preserve" style="fill:#333e48;font-family:Lato,PingFang SC,Mircrosoft YaHei,Arial;font-size:16px"><tspan y="15.0" style="font-size:11px" x="46.1" textLength="109.0">Quads early-ZS tested</tspan></text></g><g transform="translate(384.212200,115.778000)" id="shape95"><text xml:space="preserve" style="fill:#333e48;font-family:Lato,PingFang SC,Mircrosoft YaHei,Arial;font-size:16px"><tspan y="15.0" style="font-size:11px" x="4.4" textLength="118.0">Quads early-ZS updated</tspan></text></g><g transform="translate(11.000000,272.389000)" id="shape96"><text xml:space="preserve" style="fill:#333e48;font-family:Lato,PingFang SC,Mircrosoft YaHei,Arial;font-size:16px"><tspan y="15.0" style="font-size:11px" x="4.0" textLength="100.0">Non-fragment warps</tspan></text></g><g transform="translate(384.212200,140.673000)" id="shape97"><text xml:space="preserve" style="fill:#333e48;font-family:Lato,PingFang SC,Mircrosoft YaHei,Arial;font-size:16px"><tspan y="15.0" style="font-size:11px" x="4.4" textLength="105.0">Quads early-ZS killed</tspan></text></g><g transform="matrix(0.000000,-1.000000,1.000000,0.000000,89.714000,254.209700)" id="shape98"><text xml:space="preserve" style="fill:#333e48;font-family:Lato,PingFang SC,Mircrosoft YaHei,Arial;font-size:16px"><tspan y="15.0" style="font-size:11px" x="4.3" textLength="75.0">Non-frag active</tspan></text></g><g transform="translate(384.212200,162.153000)" id="shape99"><text xml:space="preserve" style="fill:#333e48;font-family:Lato,PingFang SC,Mircrosoft YaHei,Arial;font-size:16px"><tspan y="15.0" style="font-size:11px" x="4.4" textLength="83.0">FPK buffer active</tspan></text></g><g transform="matrix(0.000000,-1.000000,1.000000,0.000000,364.623000,104.000000)" id="shape100"><text xml:space="preserve" style="fill:#333e48;font-family:Lato,PingFang SC,Mircrosoft YaHei,Arial;font-size:16px"><tspan y="15.0" style="font-size:11px" x="4.0" textLength="78.0">Fragment active</tspan></text></g><g transform="translate(384.212200,182.365000)" id="shape101"><text xml:space="preserve" style="fill:#333e48;font-family:Lato,PingFang SC,Mircrosoft YaHei,Arial;font-size:16px"><tspan y="15.0" style="font-size:11px" x="4.4" textLength="83.0">Quads FPK killed</tspan></text></g><g transform="translate(384.212200,213.568000)" id="shape102"><text xml:space="preserve" style="fill:#333e48;font-family:Lato,PingFang SC,Mircrosoft YaHei,Arial;font-size:16px"><tspan y="15.0" style="font-size:11px" x="4.4" textLength="78.0">Fragment warps</tspan></text></g><g transform="translate(384.212200,234.474000)" id="shape103"><text xml:space="preserve" style="fill:#333e48;font-family:Lato,PingFang SC,Mircrosoft YaHei,Arial;font-size:16px"><tspan y="15.0" style="font-size:11px" x="4.4" textLength="63.0">Partial warps</tspan></text></g><g transform="translate(384.212200,277.048000)" id="shape104"><text xml:space="preserve" style="fill:#333e48;font-family:Lato,PingFang SC,Mircrosoft YaHei,Arial;font-size:16px"><tspan y="15.0" style="font-size:11px" x="4.4" textLength="101.0">Execution core active</tspan></text></g><g transform="translate(384.212200,381.907000)" id="shape105"><text xml:space="preserve" style="fill:#333e48;font-family:Lato,PingFang SC,Mircrosoft YaHei,Arial;font-size:16px"><tspan y="15.0" style="font-size:11px" x="4.4" textLength="107.0">Unchanged tiles killed</tspan></text></g><g transform="translate(384.212200,461.521000)" id="shape106"><text xml:space="preserve" style="fill:#333e48;font-family:Lato,PingFang SC,Mircrosoft YaHei,Arial;font-size:16px"><tspan y="15.0" style="font-size:11px" x="4.4" textLength="74.0">Tile write bytes</tspan></text></g><g transform="translate(384.212200,341.500000)" id="shape107"><text xml:space="preserve" style="fill:#333e48;font-family:Lato,PingFang SC,Mircrosoft YaHei,Arial;font-size:16px"><tspan y="15.0" style="font-size:11px" x="4.4" textLength="70.0">Fragment tiles</tspan></text></g></g></svg>