<svg xmlns="http://www.w3.org/2000/svg" height="373" xmlns:xlink="http://www.w3.org/1999/xlink" viewBox="0 0 509 373" xmlns:ev="http://www.w3.org/2001/xml-events" width="509"><defs/><g id="page1" transform="translate(5.5,5.5)"><rect x="0" y="0" height="363" width="499" fill="#ffffff"/><path id="shape1" d="M.0,.0L219.7,.0L219.7,50.0L.0,50.0L.0,.0z" transform="translate(165.000000,114.011000)" stroke-width="1.3333300352096558" fill-rule="nonzero" stroke="#333e48" fill="#ff6b00"/><path id="shape2" d="M.0,.0L99.9,.0L99.9,35.0L.0,35.0L.0,.0z" transform="translate(165.000200,64.049300)" stroke-width="1.3333300352096558" fill-rule="nonzero" stroke="#333e48" fill="#11809f"/><path id="shape3" d="M.0,.0L99.9,.0L99.9,35.0L.0,35.0L.0,.0z" transform="translate(284.822200,64.049300)" stroke-width="1.3333300352096558" fill-rule="nonzero" stroke="#333e48" fill="#11809f"/><path id="shape4" d="M.0,.0L99.9,.0L99.9,35.0L.0,35.0L.0,.0z" transform="translate(165.000200,178.962300)" stroke-width="1.3333300352096558" fill-rule="nonzero" stroke="#333e48" fill="#00c1de"/><path id="shape5" d="M10.0,.0L5.0,10.0L.0,.0L10.0,.0z" transform="translate(179.978420,233.919810)" stroke-width="0.99703299999237061" fill-rule="nonzero" stroke="#333e48" fill="#333e48"/><path id="shape6" d="M.0,.0L.0,25.0" transform="translate(184.971000,213.935500)" stroke-width="2.0997500419616699" stroke="#333e48" fill="none"/><path id="shape7" d="M.0,.0L99.9,.0L99.9,35.0L.0,35.0L.0,.0z" transform="translate(284.822200,178.962300)" stroke-width="1.3333300352096558" fill-rule="nonzero" stroke="#333e48" fill="#00c1de"/><path id="shape8" d="M10.0,10.0L5.0,.0L.0,10.0L10.0,10.0z" transform="translate(209.933420,213.934810)" stroke-width="0.99703299999237061" fill-rule="nonzero" stroke="#333e48" fill="#333e48"/><path id="shape9" d="M.0,25.0L.0,.0" transform="translate(214.926000,218.931500)" stroke-width="2.0997500419616699" stroke="#333e48" fill="none"/><path id="shape10" d="M10.0,10.0L5.0,.0L.0,10.0L10.0,10.0z" transform="translate(239.888420,213.934810)" stroke-width="0.99703299999237061" fill-rule="nonzero" stroke="#333e48" fill="#333e48"/><path id="shape11" d="M.0,20.0L.0,.0" transform="translate(244.881000,223.927630)" stroke-width="6.3869900703430176" stroke="#333e48" fill="none"/><path id="shape12" d="M10.0,.0L5.0,10.0L.0,.0L10.0,.0z" transform="translate(299.799420,233.919810)" stroke-width="0.99703299999237061" fill-rule="nonzero" stroke="#333e48" fill="#333e48"/><path id="shape13" d="M.0,.0L.0,25.0" transform="translate(304.792000,213.935500)" stroke-width="2.0997500419616699" stroke="#333e48" fill="none"/><path id="shape14" d="M10.0,10.0L5.0,.0L.0,10.0L10.0,10.0z" transform="translate(329.755420,213.934810)" stroke-width="0.99703299999237061" fill-rule="nonzero" stroke="#333e48" fill="#333e48"/><path id="shape15" d="M.0,25.0L.0,.0" transform="translate(334.748000,218.931500)" stroke-width="2.0997500419616699" stroke="#333e48" fill="none"/><path id="shape16" d="M10.0,.0L5.0,10.0L.0,.0L10.0,.0z" transform="translate(359.710420,233.919810)" stroke-width="0.99703299999237061" fill-rule="nonzero" stroke="#333e48" fill="#333e48"/><path id="shape17" d="M.0,.0L.0,20.0" transform="translate(364.703000,213.935630)" stroke-width="6.3869900703430176" stroke="#333e48" fill="none"/><path id="shape18" d="M.0,15.0L.0,.0" transform="translate(214.926000,163.973720)" stroke-width="6.3869900703430176" stroke="#333e48" fill="none"/><path id="shape19" d="M.0,15.0L.0,.0" transform="translate(334.748000,163.973720)" stroke-width="6.3869900703430176" stroke="#333e48" fill="none"/><path id="shape20" d="M10.0,.0L5.0,10.0L.0,.0L10.0,.0z" transform="translate(209.933420,54.057810)" stroke-width="0.99703299999237061" fill-rule="nonzero" stroke="#333e48" fill="#333e48"/><path id="shape21" d="M.0,.0L.0,15.0" transform="translate(214.926000,43.004720)" stroke-width="2.0997500419616699" stroke="#333e48" fill="none"/><path id="shape22" d="M10.0,.0L5.0,10.0L.0,.0L10.0,.0z" transform="translate(329.755420,54.057810)" stroke-width="0.99703299999237061" fill-rule="nonzero" stroke="#333e48" fill="#333e48"/><path id="shape23" d="M.0,.0L.0,15.0" transform="translate(334.748000,44.064720)" stroke-width="2.0997500419616699" stroke-dasharray="12.5985,8.399" stroke="#333e48" fill="none"/><path id="shape24" d="M.0,15.0L.0,.0" transform="translate(214.926000,99.022720)" stroke-width="6.3869900703430176" stroke="#333e48" fill="none"/><path id="shape25" d="M.0,15.0L.0,.0" transform="translate(334.748000,99.022720)" stroke-width="6.3869900703430176" stroke="#333e48" fill="none"/><path id="shape26" d="M40.1,.0L.0,68.2L.0,88.7" transform="translate(174.985400,220.167500)" stroke-width="1.4955500364303589" stroke-dasharray="3.73888,3.73888" stroke="#333e48" fill="none"/><path id="shape27" d="M.0,.0L.0,15.0" transform="translate(274.837000,29.076720)" stroke-width="2.0997500419616699" stroke="#333e48" fill="none"/><path id="shape28" stroke-linecap="square" d="M119.8,.0L.0,.0" transform="translate(214.926100,44.065000)" stroke-width="2.0997500419616699" stroke="#333e48" fill="none"/><path id="shape29" d="M.0,.0L.0,15.0" transform="translate(334.395000,43.711720)" stroke-width="2.0997500419616699" stroke="#333e48" fill="none"/><path id="shape30" d="M.0,2.5C.0,1.1,1.1,.0,2.5,.0C3.8,.0,4.9,1.1,4.9,2.5C4.9,3.9,3.8,5.0,2.5,5.0C1.1,5.0,.0,3.9,.0,2.5z" transform="translate(182.569030,234.949820)" fill-rule="nonzero" fill="#333e48"/><path id="shape31" d="M17.2,.0L.0,22.7" transform="translate(168.467590,237.038900)" stroke-width="1.4955500364303589" stroke-dasharray="3.73888,3.73888" stroke="#333e48" fill="none"/><path id="shape32" d="M.0,2.5C.0,1.1,1.1,.0,2.5,.0C3.8,.0,4.9,1.1,4.9,2.5C4.9,3.9,3.8,5.0,2.5,5.0C1.1,5.0,.0,3.9,.0,2.5z" transform="translate(172.632030,286.437820)" fill-rule="nonzero" fill="#333e48"/><path id="shape33" d="M.0,2.5C.0,1.1,1.1,.0,2.5,.0C3.8,.0,4.9,1.1,4.9,2.5C4.9,3.9,3.8,5.0,2.5,5.0C1.1,5.0,.0,3.9,.0,2.5z" transform="translate(172.430030,306.448820)" fill-rule="nonzero" fill="#333e48"/><path id="shape34" d="M61.3,.0L.0,118.5" transform="translate(183.306000,220.241300)" stroke-width="1.4955500364303589" stroke-dasharray="3.73888,3.73888" stroke="#333e48" fill="none"/><path id="shape35" d="M.0,2.5C.0,1.1,1.1,.0,2.5,.0C3.8,.0,4.9,1.1,4.9,2.5C4.9,3.9,3.8,5.0,2.5,5.0C1.1,5.0,.0,3.9,.0,2.5z" transform="translate(212.498030,218.076820)" fill-rule="nonzero" fill="#333e48"/><path id="shape36" d="M.0,2.5C.0,1.1,1.1,.0,2.5,.0C3.8,.0,4.9,1.1,4.9,2.5C4.9,3.9,3.8,5.0,2.5,5.0C1.1,5.0,.0,3.9,.0,2.5z" transform="translate(242.356030,217.902820)" fill-rule="nonzero" fill="#333e48"/><path id="shape37" d="M.0,.0L55.9,101.8" transform="translate(304.741000,237.100400)" stroke-width="1.4955500364303589" stroke-dasharray="3.73888,3.73888" stroke="#333e48" fill="none"/><path id="shape38" d="M.0,2.5C.0,1.1,1.1,.0,2.5,.0C3.8,.0,4.9,1.1,4.9,2.5C4.9,3.9,3.8,5.0,2.5,5.0C1.1,5.0,.0,3.9,.0,2.5z" transform="translate(302.252030,234.612820)" fill-rule="nonzero" fill="#333e48"/><path id="shape39" d="M.0,.0L16.0,21.7" transform="translate(364.718020,237.356200)" stroke-width="1.4955500364303589" stroke-dasharray="3.73888,3.73888" stroke="#333e48" fill="none"/><path id="shape40" d="M.0,2.5C.0,1.1,1.1,.0,2.5,.0C3.8,.0,4.9,1.1,4.9,2.5C4.9,3.9,3.8,5.0,2.5,5.0C1.1,5.0,.0,3.9,.0,2.5z" transform="translate(362.248030,234.881820)" fill-rule="nonzero" fill="#333e48"/><path id="shape41" d="M.0,.0L37.3,69.2" transform="translate(334.225500,220.085400)" stroke-width="1.4955500364303589" stroke-dasharray="3.73888,3.73888" stroke="#333e48" fill="none"/><path id="shape42" d="M.0,2.5C.0,1.1,1.1,.0,2.5,.0C3.8,.0,4.9,1.1,4.9,2.5C4.9,3.9,3.8,5.0,2.5,5.0C1.1,5.0,.0,3.9,.0,2.5z" transform="translate(332.005030,217.859820)" fill-rule="nonzero" fill="#333e48"/><g id="shape43" transform="translate(165.000300,58.549800)"><text xml:space="preserve" style="fill:#ffffff;font-family:Lato,PingFang SC,Mircrosoft YaHei,Arial;font-size:20px"><tspan x="27.4" textLength="45.0" y="21.2" style="font-size:13px">Internal</tspan><tspan x="21.4" textLength="57.0" y="34.0" style="font-size:13px">Read Port</tspan></text></g><g id="shape44" transform="translate(285.322200,58.549800)"><text xml:space="preserve" style="fill:#ffffff;font-family:Lato,PingFang SC,Mircrosoft YaHei,Arial;font-size:20px"><tspan x="27.4" textLength="45.0" y="21.1" style="font-size:13px">Internal</tspan><tspan x="19.4" textLength="61.0" y="33.9" style="font-size:13px">Write Port</tspan></text></g><g id="shape45" transform="translate(165.001000,114.011100)"><text xml:space="preserve" style="fill:#ffffff;font-family:Lato,PingFang SC,Mircrosoft YaHei,Arial;font-size:20px"><tspan x="82.8" textLength="54.0" y="25.2" style="font-size:13px">L2 Cache</tspan><tspan x="95.3" textLength="29.0" y="38.0" style="font-size:13px">RAM</tspan></text></g><g id="shape46" transform="translate(164.042800,173.462100)"><text xml:space="preserve" style="fill:#ffffff;font-family:Lato,PingFang SC,Mircrosoft YaHei,Arial;font-size:20px"><tspan x="25.9" textLength="49.0" y="21.3" style="font-size:13px">External</tspan><tspan x="21.9" textLength="57.0" y="34.1" style="font-size:13px">Read Port</tspan></text></g><g id="shape47" transform="translate(285.322200,173.462800)"><text xml:space="preserve" style="fill:#ffffff;font-family:Lato,PingFang SC,Mircrosoft YaHei,Arial;font-size:20px"><tspan x="25.4" textLength="49.0" y="21.1" style="font-size:13px">External</tspan><tspan x="19.4" textLength="61.0" y="33.9" style="font-size:13px">Write Port</tspan></text></g><g id="shape48" transform="translate(64.582300,243.825400)"><text xml:space="preserve" style="fill:#333e48;font-family:Lato,PingFang SC,Mircrosoft YaHei,Arial;font-size:16px"><tspan x="34.2" textLength="65.0" y="19.5" style="font-size:11px">External read</tspan></text></g><g id="shape49" transform="translate(70.000500,272.895400)"><text xml:space="preserve" style="fill:#333e48;font-family:Lato,PingFang SC,Mircrosoft YaHei,Arial;font-size:16px"><tspan x="11.2" textLength="88.0" y="19.5" style="font-size:11px">External read stall</tspan></text></g><g id="shape50" transform="translate(11.000000,295.448600)"><text xml:space="preserve" style="fill:#333e48;font-family:Lato,PingFang SC,Mircrosoft YaHei,Arial;font-size:16px"><tspan x="5.2" textLength="154.0" y="16.3" style="font-size:11px">External read latency histogram</tspan></text></g><g id="shape51" transform="translate(64.961210,328.441630)"><text xml:space="preserve" style="fill:#333e48;font-family:Lato,PingFang SC,Mircrosoft YaHei,Arial;font-size:16px"><tspan x="21.0" textLength="94.0" y="13.7" style="font-size:11px">External read bytes</tspan></text></g><g id="shape52" transform="translate(361.248200,326.951000)"><text xml:space="preserve" style="fill:#333e48;font-family:Lato,PingFang SC,Mircrosoft YaHei,Arial;font-size:16px"><tspan x="4.4" textLength="68.0" y="15.0" style="font-size:11px">External write</tspan></text></g><g id="shape53" transform="translate(370.582200,276.512000)"><text xml:space="preserve" style="fill:#333e48;font-family:Lato,PingFang SC,Mircrosoft YaHei,Arial;font-size:16px"><tspan x="4.2" textLength="91.0" y="15.0" style="font-size:11px">External write stall</tspan></text></g><g id="shape54" transform="translate(380.000000,247.350000)"><text xml:space="preserve" style="fill:#333e48;font-family:Lato,PingFang SC,Mircrosoft YaHei,Arial;font-size:16px"><tspan x="4.0" textLength="97.0" y="15.0" style="font-size:11px">External write bytes</tspan></text></g><g id="shape55" transform="translate(195.119600,15.183908)"><text xml:space="preserve" style="fill:#7d868c;font-family:Lato,PingFang SC,Mircrosoft YaHei,Arial;font-size:18px;font-style:italic"><tspan x="24.2" textLength="111.0" y="11.7" style="font-size:12px">From shader cores, etc.</tspan></text></g><g id="shape56" transform="translate(195.619500,316.926000)"><text xml:space="preserve" style="fill:#7d868c;font-family:Lato,PingFang SC,Mircrosoft YaHei,Arial;font-size:18px;font-style:italic"><tspan x="53.2" textLength="55.0" y="13.2" style="font-size:12px">To external </tspan><tspan x="42.7" textLength="74.0" y="28.2" style="font-size:12px">DRAM memory</tspan></text></g></g></svg>