<svg xmlns="http://www.w3.org/2000/svg" height="360" xmlns:xlink="http://www.w3.org/1999/xlink" viewBox="0 0 453 360" xmlns:ev="http://www.w3.org/2001/xml-events" width="453"><defs/><g id="page1" transform="translate(5.5,5.5)"><rect x="0" y="0" height="350" width="443" fill="#ffffff"/><path id="shape1" d="M.0,.0L229.8,.0L229.8,169.6L.0,169.6L.0,.0z" transform="translate(97.049000,168.685100)" stroke-width="0.74666702747344971" fill-rule="nonzero" stroke="#333e48" fill="#e5eceb"/><path id="shape2" d="M.0,.0L229.8,.0L229.8,64.9L.0,64.9L.0,.0z" transform="translate(97.049000,33.998000)" stroke-width="0.74666702747344971" fill-rule="nonzero" stroke="#333e48" fill="#e5eceb"/><path id="shape3" d="M.0,.0L99.9,.0L99.9,40.0L.0,40.0L.0,.0z" transform="translate(221.930600,53.951900)" stroke-width="0.99680298566818237" fill-rule="nonzero" stroke="#333e48" fill="#002b49"/><path id="shape4" d="M.0,.0L99.9,.0L99.9,40.0L.0,40.0L.0,.0z" transform="translate(102.040600,53.820900)" stroke-width="0.99680298566818237" fill-rule="nonzero" stroke="#333e48" fill="#002b49"/><path id="shape5" d="M.0,.0L219.8,.0L219.8,39.9L.0,39.9L.0,.0z" transform="translate(102.044000,233.535100)" stroke-width="1.3333300352096558" fill-rule="nonzero" stroke="#333e48" fill="#11809f"/><path id="shape6" d="M.0,.0L79.9,.0L79.9,39.9L.0,39.9L.0,.0z" transform="translate(122.021700,113.813100)" stroke-width="0.99680298566818237" fill-rule="nonzero" stroke="#333e48" fill="#ff6b00"/><path id="shape7" d="M.0,.0L99.9,.0L99.9,39.9L.0,39.9L.0,.0z" transform="translate(102.040600,173.675100)" stroke-width="1.3333300352096558" fill-rule="nonzero" stroke="#333e48" fill="#00c1de"/><path id="shape8" d="M.0,.0L99.9,.0L99.9,39.9L.0,39.9L.0,.0z" transform="translate(221.930600,173.675100)" stroke-width="1.3333300352096558" fill-rule="nonzero" stroke="#333e48" fill="#00c1de"/><path id="shape9" d="M.0,.0L.0,15.0" transform="translate(161.986000,93.859300)" stroke-width="2.7972700595855713" stroke-dasharray="16.7836,11.1891" stroke="#333e48" fill="none"/><path id="shape10" d="M.0,.0L.0,74.8" transform="translate(271.886000,93.859500)" stroke-width="2.7972700595855713" stroke="#333e48" fill="none"/><path id="shape11" d="M.0,.0L.0,29.9" transform="translate(151.996000,24.020600)" stroke-width="2.7972700595855713" stroke="#333e48" fill="none"/><path id="shape12" d="M.0,.0L.0,29.9" transform="translate(271.886000,24.020600)" stroke-width="2.7972700595855713" stroke="#333e48" fill="none"/><path id="shape13" d="M199.8,.0L.0,.0" transform="translate(112.035200,23.023000)" stroke-width="4.6909599304199219" stroke="#333e48" fill="none"/><path id="shape14" d="M.0,.0L.0,39.9" transform="translate(336.826000,29.009100)" stroke-width="1.8002300262451172" stroke-dasharray="4.50058,4.50058" stroke="#333e48" fill="none"/><path id="shape15" d="M.0,.0L99.9,.0L99.9,39.9L.0,39.9L.0,.0z" transform="translate(221.930600,293.395100)" stroke-width="1.3333300352096558" fill-rule="nonzero" stroke="#333e48" fill="#00c1de"/><path id="shape16" d="M10.0,.0L5.0,10.0L.0,.0L10.0,.0z" transform="translate(156.990460,103.836530)" stroke-width="0.99680298566818237" fill-rule="nonzero" stroke="#333e48" fill="#333e48"/><path id="shape17" d="M10.0,.0L5.0,10.0L.0,.0L10.0,.0z" transform="translate(156.990460,163.698530)" stroke-width="0.99680298566818237" fill-rule="nonzero" stroke="#333e48" fill="#333e48"/><path id="shape18" d="M.0,.0L.0,15.0" transform="translate(161.986000,153.721300)" stroke-width="2.7972700595855713" stroke="#333e48" fill="none"/><path id="shape19" d="M10.0,.0L5.0,10.0L.0,.0L10.0,.0z" transform="translate(147.000460,223.560530)" stroke-width="0.99680298566818237" fill-rule="nonzero" stroke="#333e48" fill="#333e48"/><path id="shape20" d="M.0,.0L.0,15.0" transform="translate(151.996000,213.582300)" stroke-width="2.7972700595855713" stroke="#333e48" fill="none"/><path id="shape21" d="M10.0,.0L5.0,10.0L.0,.0L10.0,.0z" transform="translate(266.890460,223.560530)" stroke-width="0.99680298566818237" fill-rule="nonzero" stroke="#333e48" fill="#333e48"/><path id="shape22" d="M.0,.0L.0,15.0" transform="translate(271.886000,213.582300)" stroke-width="2.7972700595855713" stroke="#333e48" fill="none"/><path id="shape23" d="M10.0,.0L5.0,10.0L.0,.0L10.0,.0z" transform="translate(266.890460,163.698530)" stroke-width="0.99680298566818237" fill-rule="nonzero" stroke="#333e48" fill="#333e48"/><path id="shape24" d="M10.0,.0L5.0,10.0L.0,.0L10.0,.0z" transform="translate(266.890460,283.420530)" stroke-width="0.99680298566818237" fill-rule="nonzero" stroke="#333e48" fill="#333e48"/><path id="shape25" d="M.0,.0L.0,15.0" transform="translate(271.886000,273.446300)" stroke-width="2.7972700595855713" stroke="#333e48" fill="none"/><path id="shape26" d="M.0,.0L.0,69.8" transform="translate(112.026000,93.859700)" stroke-width="2.7972700595855713" stroke="#333e48" fill="none"/><path id="shape27" d="M10.0,.0L5.0,10.0L.0,.0L10.0,.0z" transform="translate(107.030460,163.698530)" stroke-width="0.99680298566818237" fill-rule="nonzero" stroke="#333e48" fill="#333e48"/><path id="shape28" d="M10.0,.0L.0,.0" transform="translate(326.840460,68.917000)" stroke-width="1.8002300262451172" stroke-dasharray="4.50058,4.50058" stroke="#333e48" fill="none"/><path id="shape29" d="M.0,.0L.0,219.5" transform="translate(52.086000,53.952000)" stroke-width="1.4952100515365601" stroke-dasharray="3.73803,3.73803" stroke="#7d868c" fill="none"/><path id="shape30" d="M55.0,.0L.0,.0" transform="translate(37.100500,53.952000)" stroke-width="1.3333300352096558" stroke="#7d868c" fill="none"/><path id="shape31" d="M30.0,.0L.0,.0" transform="translate(62.079400,168.687000)" stroke-width="1.3333300352096558" stroke="#7d868c" fill="none"/><path id="shape32" d="M55.0,.0L.0,.0" transform="translate(37.100500,273.449000)" stroke-width="1.3333300352096558" stroke="#7d868c" fill="none"/><path id="shape33" d="M.0,10.0L2.2,.0L4.3,10.0L.0,10.0z" transform="translate(49.916390,53.951530)" stroke-width="0.99680298566818237" fill-rule="nonzero" stroke="#7d868c" fill="#7d868c"/><path id="shape34" d="M4.3,.0L2.2,10.0L.0,.0L4.3,.0z" transform="translate(49.916390,263.470500)" stroke-width="0.99680298566818237" fill-rule="nonzero" stroke="#7d868c" fill="#7d868c"/><path id="shape35" d="M.0,.0L.0,104.8" transform="translate(77.066000,168.686100)" stroke-width="1.4952100515365601" stroke-dasharray="3.73803,3.73803" stroke="#7d868c" fill="none"/><path id="shape36" d="M.0,10.0L2.2,.0L4.3,10.0L.0,10.0z" transform="translate(74.896390,168.686530)" stroke-width="0.99680298566818237" fill-rule="nonzero" stroke="#7d868c" fill="#7d868c"/><path id="shape37" d="M4.3,.0L2.2,10.0L.0,.0L4.3,.0z" transform="translate(74.896390,263.470500)" stroke-width="0.99680298566818237" fill-rule="nonzero" stroke="#7d868c" fill="#7d868c"/><path id="shape38" d="M.0,.0L.0,279.4" transform="translate(371.796000,53.952000)" stroke-width="1.4952100515365601" stroke-dasharray="3.73803,3.73803" stroke="#7d868c" fill="none"/><path id="shape39" d="M.0,.0L40.0,.0" transform="translate(341.823800,53.952000)" stroke-width="1.3333300352096558" stroke="#7d868c" fill="none"/><path id="shape40" d="M.0,.0L25.0,.0" transform="translate(331.837200,173.675000)" stroke-width="1.3333300352096558" stroke="#7d868c" fill="none"/><path id="shape41" d="M.0,.0L50.0,.0" transform="translate(331.838300,333.309000)" stroke-width="1.3333300352096558" stroke="#7d868c" fill="none"/><path id="shape42" d="M4.3,10.0L2.2,.0L.0,10.0L4.3,10.0z" transform="translate(369.626390,53.951530)" stroke-width="0.99680298566818237" fill-rule="nonzero" stroke="#7d868c" fill="#7d868c"/><path id="shape43" d="M.0,.0L2.2,10.0L4.3,.0L.0,.0z" transform="translate(369.626390,323.330500)" stroke-width="0.99680298566818237" fill-rule="nonzero" stroke="#7d868c" fill="#7d868c"/><path id="shape44" d="M.0,.0L.0,159.6" transform="translate(346.816000,173.673500)" stroke-width="1.4952100515365601" stroke-dasharray="3.73803,3.73803" stroke="#7d868c" fill="none"/><path id="shape45" d="M4.3,10.0L2.2,.0L.0,10.0L4.3,10.0z" transform="translate(344.646390,173.674530)" stroke-width="0.99680298566818237" fill-rule="nonzero" stroke="#7d868c" fill="#7d868c"/><path id="shape46" d="M.0,.0L2.2,10.0L4.3,.0L.0,.0z" transform="translate(344.646390,323.330500)" stroke-width="0.99680298566818237" fill-rule="nonzero" stroke="#7d868c" fill="#7d868c"/><path id="shape47" d="M39.3,.0L.0,5.0" transform="translate(336.825400,36.990770)" stroke-width="1.4952100515365601" stroke-dasharray="3.73803,3.73803" stroke="#333e48" fill="none"/><path id="shape48" d="M4.9,2.5C4.9,3.8,3.8,5.0,2.5,5.0C1.1,5.0,.0,3.8,.0,2.5C.0,1.1,1.1,.0,2.5,.0C3.8,.0,4.9,1.1,4.9,2.5z" transform="translate(334.405570,39.640660)" fill-rule="nonzero" fill="#333e48"/><path id="shape49" d="M.0,.0L9.1,.0L9.1,7.5L.0,7.5L.0,.0z" transform="translate(107.038790,123.790650)" fill-rule="nonzero" fill="#ffffff"/><path id="shape50" d="M25.0,.0L.0,15.0" transform="translate(102.037300,118.802300)" stroke-width="1.4952100515365601" stroke-dasharray="3.73803,3.73803" stroke="#333e48" fill="none"/><path id="shape51" d="M4.9,2.5C4.9,3.8,3.8,5.0,2.5,5.0C1.1,5.0,.0,3.8,.0,2.5C.0,1.1,1.1,.0,2.5,.0C3.8,.0,4.9,1.1,4.9,2.5z" transform="translate(124.385570,117.022660)" fill-rule="nonzero" fill="#333e48"/><path id="shape52" d="M26.0,.0L.0,38.2" transform="translate(81.057800,267.340400)" stroke-width="1.4952100515365601" stroke-dasharray="3.73803,3.73803" stroke="#333e48" fill="none"/><path id="shape53" d="M4.9,2.5C4.9,3.8,3.8,5.0,2.5,5.0C1.1,5.0,.0,3.8,.0,2.5C.0,1.1,1.1,.0,2.5,.0C3.8,.0,4.9,1.1,4.9,2.5z" transform="translate(103.985570,266.120660)" fill-rule="nonzero" fill="#333e48"/><path id="shape54" d="M30.0,10.0L.0,.0" transform="translate(72.069400,29.009520)" stroke-width="1.4952100515365601" stroke-dasharray="3.73803,3.73803" stroke="#333e48" fill="none"/><path id="shape55" d="M4.9,2.5C4.9,3.8,3.8,5.0,2.5,5.0C1.1,5.0,.0,3.8,.0,2.5C.0,1.1,1.1,.0,2.5,.0C3.8,.0,4.9,1.1,4.9,2.5z" transform="translate(99.895570,36.842660)" fill-rule="nonzero" fill="#333e48"/><g id="shape56" transform="translate(221.930600,53.951900)"><text xml:space="preserve" style="fill:#ffffff;font-family:Lato,PingFang SC,Mircrosoft YaHei,Arial;font-size:20px"><tspan x="22.0" textLength="59.0" y="17.5" style="font-size:13px">Fragment </tspan><tspan x="31.0" textLength="38.0" y="33.5" style="font-size:13px">Queue</tspan></text></g><g id="shape57" transform="translate(102.037600,53.820900)"><text xml:space="preserve" style="fill:#ffffff;font-family:Lato,PingFang SC,Mircrosoft YaHei,Arial;font-size:20px"><tspan x="9.0" textLength="85.0" y="17.5" style="font-size:13px">Non-fragment </tspan><tspan x="31.0" textLength="38.0" y="33.5" style="font-size:13px">Queue</tspan></text></g><g id="shape58" transform="translate(97.050000,24.020300)"><text xml:space="preserve" style="fill:#7d868c;font-family:Lato,PingFang SC,Mircrosoft YaHei,Arial;font-size:20px"><tspan x="77.4" textLength="75.0" y="23.0" style="font-size:13px">Job Manager</tspan></text></g><g id="shape59" transform="translate(122.021700,113.812900)"><text xml:space="preserve" style="fill:#ffffff;font-family:Lato,PingFang SC,Mircrosoft YaHei,Arial;font-size:20px"><tspan x="27.0" textLength="26.0" y="25.5" style="font-size:13px">Tiler</tspan></text></g><g id="shape60" transform="translate(102.043600,173.560900)"><text xml:space="preserve" style="fill:#ffffff;font-family:Lato,PingFang SC,Mircrosoft YaHei,Arial;font-size:20px"><tspan x="24.0" textLength="52.0" y="17.5" style="font-size:13px">Non-frag</tspan><tspan x="21.5" textLength="57.0" y="33.5" style="font-size:13px">Front-end</tspan></text></g><g id="shape61" transform="translate(221.930600,173.674900)"><text xml:space="preserve" style="fill:#ffffff;font-family:Lato,PingFang SC,Mircrosoft YaHei,Arial;font-size:20px"><tspan x="22.0" textLength="56.0" y="17.5" style="font-size:13px">Fragment</tspan><tspan x="21.5" textLength="57.0" y="33.5" style="font-size:13px">Front-end</tspan></text></g><g id="shape62" transform="translate(102.037000,233.420900)"><text xml:space="preserve" style="fill:#ffffff;font-family:Lato,PingFang SC,Mircrosoft YaHei,Arial;font-size:20px"><tspan x="81.9" textLength="56.0" y="17.5" style="font-size:13px">Execution</tspan><tspan x="95.9" textLength="28.0" y="33.5" style="font-size:13px">Core</tspan></text></g><g id="shape63" transform="translate(221.930600,293.280900)"><text xml:space="preserve" style="fill:#ffffff;font-family:Lato,PingFang SC,Mircrosoft YaHei,Arial;font-size:20px"><tspan x="22.0" textLength="56.0" y="17.5" style="font-size:13px">Fragment</tspan><tspan x="23.0" textLength="54.0" y="33.5" style="font-size:13px">Back-end</tspan></text></g><g id="shape64" transform="translate(97.041900,313.000400)"><text xml:space="preserve" style="fill:#7d868c;font-family:Lato,PingFang SC,Mircrosoft YaHei,Arial;font-size:20px"><tspan x="4.5" textLength="71.0" y="18.0" style="font-size:13px">Shader Core</tspan></text></g><g id="shape65" transform="translate(322.338800,13.653846)"><text xml:space="preserve" style="fill:#333e6b;font-family:Lato,PingFang SC,Mircrosoft YaHei,Arial;font-size:16px"><tspan x="5.5" textLength="19.0" y="12.2" style="font-size:11px">IRQ</tspan></text></g><g id="shape66" transform="translate(373.626200,23.020700)"><text xml:space="preserve" style="fill:#333e48;font-family:Lato,PingFang SC,Mircrosoft YaHei,Arial;font-size:16px"><tspan x="4.3" textLength="50.0" y="17.1" style="font-size:11px">IRQ active</tspan></text></g><g id="shape67" transform="translate(10.782051,17.506300)"><text xml:space="preserve" style="fill:#333e48;font-family:Lato,PingFang SC,Mircrosoft YaHei,Arial;font-size:16px"><tspan x="5.1" textLength="54.0" y="15.0" style="font-size:11px">GPU active</tspan></text></g><g id="shape68" transform="translate(45.915900,108.677500)"><text xml:space="preserve" style="fill:#333e48;font-family:Lato,PingFang SC,Mircrosoft YaHei,Arial;font-size:16px"><tspan x="31.1" textLength="22.0" y="24.1" style="font-size:11px">Tiler</tspan><tspan x="24.1" textLength="29.0" y="34.5" style="font-size:11px">active</tspan></text></g><g id="shape69" transform="translate(20.525641,279.420400)"><text xml:space="preserve" style="fill:#333e48;font-family:Lato,PingFang SC,Mircrosoft YaHei,Arial;font-size:16px"><tspan x="9.2" textLength="47.0" y="23.8" style="font-size:11px">Execution</tspan><tspan x="4.2" textLength="52.0" y="34.1" style="font-size:11px">core active</tspan></text></g><g id="shape70" transform="matrix(0.000000,-1.000000,1.000000,0.000000,28.999900,271.000000)"><text xml:space="preserve" style="fill:#333e48;font-family:Lato,PingFang SC,Mircrosoft YaHei,Arial;font-size:16px"><tspan x="53.2" textLength="107.0" y="19.2" style="font-size:11px">Non-frag queue active</tspan></text></g><g id="shape71" transform="matrix(0.000000,-1.000000,1.000000,0.000000,54.747900,272.000400)"><text xml:space="preserve" style="fill:#333e48;font-family:Lato,PingFang SC,Mircrosoft YaHei,Arial;font-size:16px"><tspan x="13.7" textLength="75.0" y="19.2" style="font-size:11px">Non-frag active</tspan></text></g><g id="shape72" transform="matrix(0.000000,-1.000000,1.000000,0.000000,324.715900,332.000500)"><text xml:space="preserve" style="fill:#333e48;font-family:Lato,PingFang SC,Mircrosoft YaHei,Arial;font-size:16px"><tspan x="40.0" textLength="78.0" y="19.2" style="font-size:11px">Fragment active</tspan></text></g><g id="shape73" transform="matrix(0.000000,-1.000000,1.000000,0.000000,349.195900,332.000000)"><text xml:space="preserve" style="fill:#333e48;font-family:Lato,PingFang SC,Mircrosoft YaHei,Arial;font-size:16px"><tspan x="82.2" textLength="110.0" y="19.2" style="font-size:11px">Fragment queue active</tspan></text></g></g></svg>