<svg width="475" viewBox="0 0 475 422" xmlns:ev="http://www.w3.org/2001/xml-events" xmlns="http://www.w3.org/2000/svg" height="422" xmlns:xlink="http://www.w3.org/1999/xlink"><defs/><g id="page1" transform="translate(5.5,5.5)"><rect width="465" x="0" fill="#ffffff" y="0" height="412"/><path d="M.0,.0L254.7,.0L254.7,169.8L.0,169.8L.0,.0z" stroke="#333e48" id="shape1" fill="#e5eceb" stroke-width="0.44222700595855713" transform="translate(101.449000,228.144000)" fill-rule="nonzero"/><path d="M.0,.0L254.6,.0L254.6,130.1L.0,130.1L.0,.0z" stroke="#333e48" id="shape2" fill="#e5eceb" stroke-width="0.62586301565170288" transform="translate(101.517000,27.995000)" fill-rule="nonzero"/><path d="M.0,.0L75.0,.0L75.0,40.2L.0,40.2L.0,.0z" stroke="#333e48" id="shape3" fill="#002b49" stroke-width="0.86577397584915161" transform="translate(276.263800,113.189500)" fill-rule="nonzero"/><path d="M.0,.0L64.9,.0L64.9,40.3L.0,40.3L.0,.0z" stroke="#333e48" id="shape4" fill="#002b49" stroke-width="0.80670499801635742" transform="translate(106.444500,112.919400)" fill-rule="nonzero"/><path d="M.0,.0L244.7,.0L244.7,40.0L.0,40.0L.0,.0z" stroke="#333e48" id="shape5" fill="#11809f" stroke-width="0.86666697263717651" transform="translate(106.444000,293.085900)" fill-rule="nonzero"/><path d="M.0,.0L64.9,.0L64.9,40.0L.0,40.0L.0,.0z" stroke="#333e48" id="shape6" fill="#ff6b00" stroke-width="0.89947497844696045" transform="translate(191.353500,172.865900)" fill-rule="nonzero"/><path d="M.0,.0L149.8,.0L149.8,40.0L.0,40.0L.0,.0z" stroke="#333e48" id="shape7" fill="#00c1de" stroke-width="0.86666697263717651" transform="translate(106.444600,233.236900)" fill-rule="nonzero"/><path d="M.0,.0L74.9,.0L74.9,40.0L.0,40.0L.0,.0z" stroke="#333e48" id="shape8" fill="#00c1de" stroke-width="0.86418801546096802" transform="translate(276.263800,233.139900)" fill-rule="nonzero"/><path d="M.0,.0L.0,15.0" stroke="#333e48" id="shape9" stroke-width="2.8002901077270508" fill="none" transform="translate(223.819000,153.124710)"/><path d="M.0,.0L.0,74.9" stroke="#333e48" id="shape10" stroke-width="2.8002901077270508" fill="none" transform="translate(313.753000,153.211500)"/><path d="M.2,.0L.0,85.9" stroke-dasharray="4.50543,4.50543" stroke="#333e48" id="shape11" fill="#333e48" stroke-width="1.8021700382232666" transform="translate(366.168000,42.310500)" fill-rule="nonzero"/><path d="M.0,.0L74.2,.0L74.2,40.0L.0,40.0L.0,.0z" stroke="#333e48" id="shape12" fill="#00c1de" stroke-width="0.86666697263717651" transform="translate(276.999700,353.032900)" fill-rule="nonzero"/><path d="M10.0,.0L5.0,10.0L.0,.0L10.0,.0z" stroke="#333e48" id="shape13" fill="#333e48" stroke-width="0.99787801504135132" transform="translate(218.824310,163.115470)" fill-rule="nonzero"/><path d="M10.0,.0L5.0,10.0L.0,.0L10.0,.0z" stroke="#333e48" id="shape14" fill="#333e48" stroke-width="0.99787801504135132" transform="translate(218.824310,223.061470)" fill-rule="nonzero"/><path d="M.0,.0L.0,15.0" stroke="#333e48" id="shape15" stroke-width="2.8002901077270508" fill="none" transform="translate(223.819000,213.070710)"/><path d="M10.0,.0L5.0,10.0L.0,.0L10.0,.0z" stroke="#333e48" id="shape16" fill="#333e48" stroke-width="0.99787801504135132" transform="translate(176.370310,283.192470)" fill-rule="nonzero"/><path d="M.0,.0L.0,15.0" stroke="#333e48" id="shape17" stroke-width="2.8002901077270508" fill="none" transform="translate(181.365000,273.016710)"/><path d="M10.0,.0L5.0,10.0L.0,.0L10.0,.0z" stroke="#333e48" id="shape18" fill="#333e48" stroke-width="0.99787801504135132" transform="translate(308.729310,283.095470)" fill-rule="nonzero"/><path d="M.0,.0L.0,15.0" stroke="#333e48" id="shape19" stroke-width="2.8002901077270508" fill="none" transform="translate(313.724000,273.104710)"/><path d="M10.0,.0L5.0,10.0L.0,.0L10.0,.0z" stroke="#333e48" id="shape20" fill="#333e48" stroke-width="0.99787801504135132" transform="translate(308.758310,223.148470)" fill-rule="nonzero"/><path d="M10.0,.0L5.0,10.0L.0,.0L10.0,.0z" stroke="#333e48" id="shape21" fill="#333e48" stroke-width="0.99787801504135132" transform="translate(308.729310,343.041470)" fill-rule="nonzero"/><path d="M.0,.0L.0,15.0" stroke="#333e48" id="shape22" stroke-width="2.8002901077270508" fill="none" transform="translate(313.724000,333.050710)"/><path d="M.0,.0L.0,69.9" stroke="#333e48" id="shape23" stroke-width="2.8002901077270508" fill="none" transform="translate(138.910000,153.124300)"/><path d="M10.0,.0L5.0,10.0L.0,.0L10.0,.0z" stroke="#333e48" id="shape24" fill="#333e48" stroke-width="0.99787801504135132" transform="translate(133.915310,223.061470)" fill-rule="nonzero"/><path stroke-dasharray="4.50543,4.50543" d="M10.0,.0L.0,.0" stroke="#333e48" id="shape25" stroke-width="1.8021700382232666" fill="none" transform="translate(356.179310,128.234000)"/><path stroke-dasharray="3.74205,3.74205" d="M.0,.0L.0,219.8" stroke="#7d868c" id="shape26" stroke-width="1.4968199729919434" fill="none" transform="translate(56.606000,113.160000)"/><path d="M54.9,.0L.0,.0" stroke="#7d868c" id="shape27" stroke-width="2" fill="none" transform="translate(41.622200,113.160000)"/><path d="M30.0,.0L.0,.0" stroke="#7d868c" id="shape28" stroke-width="2" fill="none" transform="translate(66.595900,228.057000)"/><path d="M54.9,.0L.0,.0" stroke="#7d868c" id="shape29" stroke-width="2" fill="none" transform="translate(41.622200,332.963000)"/><path d="M.0,10.0L2.2,.0L4.3,10.0L.0,10.0z" stroke="#7d868c" id="shape30" fill="#7d868c" stroke-width="0.99787801504135132" transform="translate(54.436760,113.160470)" fill-rule="nonzero"/><path d="M4.3,.0L2.2,10.0L.0,.0L4.3,.0z" stroke="#7d868c" id="shape31" fill="#7d868c" stroke-width="0.99787801504135132" transform="translate(54.436760,322.972440)" fill-rule="nonzero"/><path stroke-dasharray="3.74205,3.74205" d="M.0,.0L.0,104.9" stroke="#7d868c" id="shape32" stroke-width="1.4968199729919434" fill="none" transform="translate(92.580000,228.057000)"/><path d="M.0,10.0L2.2,.0L4.3,10.0L.0,10.0z" stroke="#7d868c" id="shape33" fill="#7d868c" stroke-width="0.99787801504135132" transform="translate(90.410760,228.057470)" fill-rule="nonzero"/><path d="M4.3,.0L2.2,10.0L.0,.0L4.3,.0z" stroke="#7d868c" id="shape34" fill="#7d868c" stroke-width="0.99787801504135132" transform="translate(90.410760,322.972440)" fill-rule="nonzero"/><path stroke-dasharray="3.74205,3.74205" d="M.0,.0L.0,279.8" stroke="#7d868c" id="shape35" stroke-width="1.4968199729919434" fill="none" transform="translate(401.131000,113.247000)"/><path d="M.0,.0L40.0,.0" stroke="#7d868c" id="shape36" stroke-width="2" fill="none" transform="translate(371.163200,113.247000)"/><path d="M.0,.0L25.0,.0" stroke="#7d868c" id="shape37" stroke-width="2" fill="none" transform="translate(361.173300,233.140000)"/><path d="M.0,.0L49.9,.0" stroke="#7d868c" id="shape38" stroke-width="2" fill="none" transform="translate(361.173500,392.997000)"/><path d="M4.3,10.0L2.2,.0L.0,10.0L4.3,10.0z" stroke="#7d868c" id="shape39" fill="#7d868c" stroke-width="0.99787801504135132" transform="translate(398.961750,113.247470)" fill-rule="nonzero"/><path d="M.0,.0L2.2,10.0L4.3,.0L.0,.0z" stroke="#7d868c" id="shape40" fill="#7d868c" stroke-width="0.99787801504135132" transform="translate(398.961750,383.005440)" fill-rule="nonzero"/><path stroke-dasharray="3.74205,3.74205" d="M.0,.0L.0,159.9" stroke="#7d868c" id="shape41" stroke-width="1.4968199729919434" fill="none" transform="translate(376.158000,233.139500)"/><path d="M4.3,10.0L2.2,.0L.0,10.0L4.3,10.0z" stroke="#7d868c" id="shape42" fill="#7d868c" stroke-width="0.99787801504135132" transform="translate(373.988750,233.140470)" fill-rule="nonzero"/><path d="M.0,.0L2.2,10.0L4.3,.0L.0,.0z" stroke="#7d868c" id="shape43" fill="#7d868c" stroke-width="0.99787801504135132" transform="translate(373.988750,383.005440)" fill-rule="nonzero"/><path d="M25.0,.0L.0,5.0" stroke-dasharray="3.74205,3.74205" stroke="#333e48" id="shape44" fill="#333e48" stroke-width="1.4968199729919434" transform="translate(366.168300,60.295240)" fill-rule="nonzero"/><path d="M4.9,2.5C4.9,3.9,3.8,5.0,2.5,5.0C1.1,5.0,.0,3.9,.0,2.5C.0,1.1,1.1,.0,2.5,.0C3.8,.0,4.9,1.1,4.9,2.5z" id="shape45" fill="#333e48" transform="translate(363.743990,62.948150)" fill-rule="nonzero"/><path d="M.0,.0L9.1,.0L9.1,7.5L.0,7.5L.0,.0z" id="shape46" fill="#ffffff" transform="translate(134.699560,183.916350)" fill-rule="nonzero"/><path d="M89.8,.0L.0,15.2" stroke-dasharray="3.74205,3.74205" stroke="#333e48" id="shape47" fill="#333e48" stroke-width="1.4968199729919434" transform="translate(106.553400,177.861460)" fill-rule="nonzero"/><path d="M4.9,2.5C4.9,3.9,3.8,5.0,2.5,5.0C1.1,5.0,.0,3.9,.0,2.5C.0,1.1,1.1,.0,2.5,.0C3.8,.0,4.9,1.1,4.9,2.5z" id="shape48" fill="#333e48" transform="translate(194.014990,175.321150)" fill-rule="nonzero"/><path d="M26.0,.0L.0,38.2" stroke-dasharray="3.74205,3.74205" stroke="#333e48" id="shape49" fill="#333e48" stroke-width="1.4968199729919434" transform="translate(85.575000,326.848400)" fill-rule="nonzero"/><path d="M4.9,2.5C4.9,3.9,3.8,5.0,2.5,5.0C1.1,5.0,.0,3.9,.0,2.5C.0,1.1,1.1,.0,2.5,.0C3.8,.0,4.9,1.1,4.9,2.5z" id="shape50" fill="#333e48" transform="translate(108.494990,325.630150)" fill-rule="nonzero"/><path d="M30.0,10.0L.0,.0" stroke-dasharray="3.74205,3.74205" stroke="#333e48" id="shape51" fill="#333e48" stroke-width="1.4968199729919434" transform="translate(76.475900,23.000460)" fill-rule="nonzero"/><path d="M4.9,2.5C4.9,3.9,3.8,5.0,2.5,5.0C1.1,5.0,.0,3.9,.0,2.5C.0,1.1,1.1,.0,2.5,.0C3.8,.0,4.9,1.1,4.9,2.5z" id="shape52" fill="#333e48" transform="translate(104.302990,30.844150)" fill-rule="nonzero"/><path d="M.0,.0L64.9,.0L64.9,40.2L.0,40.2L.0,.0z" stroke="#333e48" id="shape53" fill="#002b49" stroke-width="0.80567997694015503" transform="translate(191.353500,112.919500)" fill-rule="nonzero"/><path d="M.0,.0L244.7,.0L244.7,40.3L.0,40.3L.0,.0z" stroke="#333e48" id="shape54" fill="#002b49" stroke-width="0.86666697263717651" transform="translate(106.444000,52.973400)" fill-rule="nonzero"/><path d="M35.4,9.5L.0,.0" stroke-dasharray="3.74205,3.74205" stroke="#333e48" id="shape55" fill="#333e48" stroke-width="1.4968199729919434" transform="translate(76.000000,48.477240)" fill-rule="nonzero"/><path d="M4.9,2.5C4.9,3.9,3.8,5.0,2.5,5.0C1.1,5.0,.0,3.9,.0,2.5C.0,1.1,1.1,.0,2.5,.0C3.8,.0,4.9,1.1,4.9,2.5z" id="shape56" fill="#333e48" transform="translate(109.297990,55.821150)" fill-rule="nonzero"/><path d="M.0,.0L.0,20.0" stroke="#333e48" id="shape57" stroke-width="2.8002901077270508" fill="none" transform="translate(138.910000,92.936940)"/><path d="M.0,.0L.0,20.0" stroke="#333e48" id="shape58" stroke-width="2.8002901077270508" fill="none" transform="translate(223.819000,92.936940)"/><path d="M.0,.0L.0,20.0" stroke="#333e48" id="shape59" stroke-width="2.8002901077270508" fill="none" transform="translate(313.753000,92.936940)"/><g id="shape60" transform="translate(101.449000,22.343900)"><text xml:space="preserve" style="fill:#7d868c;font-family:Lato,PingFang SC,Mircrosoft YaHei,Arial;font-size:20px"><tspan textLength="164.0" x="45.3" y="21.5" style="font-size:13px">Command Stream Front-end</tspan></text></g><g id="shape61" transform="translate(102.860900,375.354400)"><text xml:space="preserve" style="fill:#7d868c;font-family:Lato,PingFang SC,Mircrosoft YaHei,Arial;font-size:20px"><tspan textLength="71.0" x="4.5" y="18.0" style="font-size:13px">Shader Core</tspan></text></g><g id="shape62" transform="translate(191.353500,172.807900)"><text xml:space="preserve" style="fill:#ffffff;font-family:Lato,PingFang SC,Mircrosoft YaHei,Arial;font-size:20px"><tspan textLength="26.0" x="19.5" y="25.0" style="font-size:13px">Tiler</tspan></text></g><g id="shape63" transform="translate(107.000000,52.989000)"><text xml:space="preserve" style="fill:#ffffff;font-family:Lato,PingFang SC,Mircrosoft YaHei,Arial;font-size:20px"><tspan textLength="104.0" x="70.4" y="17.5" style="font-size:13px">Command Stream</tspan><tspan textLength="57.0" x="93.9" y="33.5" style="font-size:13px">Processor</tspan></text></g><g id="shape64" transform="translate(106.944500,113.092900)"><text xml:space="preserve" style="fill:#ffffff;font-family:Lato,PingFang SC,Mircrosoft YaHei,Arial;font-size:18px"><tspan textLength="49.0" x="8.0" y="17.5" style="font-size:12px">Compute</tspan><tspan textLength="41.0" x="12.0" y="32.5" style="font-size:12px">Iterator</tspan></text></g><g id="shape65" transform="translate(191.353500,112.920000)"><text xml:space="preserve" style="fill:#ffffff;font-family:Lato,PingFang SC,Mircrosoft YaHei,Arial;font-size:18px"><tspan textLength="51.0" x="7.0" y="17.0" style="font-size:12px">Bin Phase</tspan><tspan textLength="41.0" x="12.0" y="32.0" style="font-size:12px">Iterator</tspan></text></g><g id="shape66" transform="translate(276.263700,112.918900)"><text xml:space="preserve" style="fill:#ffffff;font-family:Lato,PingFang SC,Mircrosoft YaHei,Arial;font-size:18px"><tspan textLength="60.0" x="7.5" y="17.5" style="font-size:12px">Main Phase</tspan><tspan textLength="41.0" x="17.0" y="32.5" style="font-size:12px">Iterator</tspan></text></g><g id="shape67" transform="translate(106.443500,233.236900)"><text xml:space="preserve" style="fill:#ffffff;font-family:Lato,PingFang SC,Mircrosoft YaHei,Arial;font-size:20px"><tspan textLength="95.0" x="27.4" y="17.5" style="font-size:13px">Non-main Phase</tspan><tspan textLength="57.0" x="46.4" y="33.5" style="font-size:13px">Front-end</tspan></text></g><g id="shape68" transform="translate(276.263800,233.081900)"><text xml:space="preserve" style="fill:#ffffff;font-family:Lato,PingFang SC,Mircrosoft YaHei,Arial;font-size:18px"><tspan textLength="60.0" x="7.5" y="17.5" style="font-size:12px">Main Phase</tspan><tspan textLength="53.0" x="11.0" y="32.5" style="font-size:12px">Front-end</tspan></text></g><g id="shape69" transform="translate(106.260000,292.988900)"><text xml:space="preserve" style="fill:#ffffff;font-family:Lato,PingFang SC,Mircrosoft YaHei,Arial;font-size:20px"><tspan textLength="56.0" x="94.4" y="17.5" style="font-size:13px">Execution</tspan><tspan textLength="28.0" x="108.4" y="33.5" style="font-size:13px">Core</tspan></text></g><g id="shape70" transform="translate(277.000500,351.999900)"><text xml:space="preserve" style="fill:#ffffff;font-family:Lato,PingFang SC,Mircrosoft YaHei,Arial;font-size:20px"><tspan textLength="56.0" x="8.5" y="17.0" style="font-size:13px">Fragment</tspan><tspan textLength="54.0" x="9.5" y="33.0" style="font-size:13px">Back-end</tspan></text></g><g id="shape71" transform="translate(11.000000,11.286600)"><text xml:space="preserve" style="fill:#333e48;font-family:Lato,PingFang SC,Mircrosoft YaHei,Arial;font-size:16px"><tspan textLength="54.0" x="8.5" y="15.0" style="font-size:11px">GPU active</tspan></text></g><g id="shape72" transform="translate(11.000000,36.264300)"><text xml:space="preserve" style="fill:#333e48;font-family:Lato,PingFang SC,Mircrosoft YaHei,Arial;font-size:16px"><tspan textLength="57.0" x="5.5" y="15.0" style="font-size:11px">MCU active</tspan></text></g><g id="shape73" transform="translate(393.000000,45.656500)"><text xml:space="preserve" style="fill:#333e48;font-family:Lato,PingFang SC,Mircrosoft YaHei,Arial;font-size:16px"><tspan textLength="50.0" x="4.0" y="17.1" style="font-size:11px">IRQ active</tspan></text></g><g id="shape74" transform="translate(354.178800,18.679500)"><text xml:space="preserve" style="fill:#333e6b;font-family:Lato,PingFang SC,Mircrosoft YaHei,Arial;font-size:16px"><tspan textLength="19.0" x="5.5" y="19.1" style="font-size:11px">IRQ</tspan></text></g><g id="shape75" transform="translate(52.440900,165.516500)"><text xml:space="preserve" style="fill:#333e48;font-family:Lato,PingFang SC,Mircrosoft YaHei,Arial;font-size:16px"><tspan textLength="22.0" x="31.1" y="24.1" style="font-size:11px">Tiler</tspan><tspan textLength="29.0" x="24.1" y="34.5" style="font-size:11px">active</tspan></text></g><g id="shape76" transform="translate(19.000000,341.041400)"><text xml:space="preserve" style="fill:#333e48;font-family:Lato,PingFang SC,Mircrosoft YaHei,Arial;font-size:16px"><tspan textLength="47.0" x="12.0" y="23.8" style="font-size:11px">Execution</tspan><tspan textLength="52.0" x="7.0" y="34.1" style="font-size:11px">core active</tspan></text></g><g id="shape77" transform="matrix(0.000000,-1.000000,1.000000,0.000000,50.528900,331.755500)"><text xml:space="preserve" style="fill:#333e48;font-family:Lato,PingFang SC,Mircrosoft YaHei,Arial;font-size:16px"><tspan textLength="81.0" x="11.7" y="24.0" style="font-size:11px">Non-main phase </tspan><tspan textLength="29.0" x="36.7" y="37.0" style="font-size:11px">active</tspan></text></g><g id="shape78" transform="matrix(0.000000,-1.000000,1.000000,0.000000,23.000000,326.271000)"><text xml:space="preserve" style="fill:#333e48;font-family:Lato,PingFang SC,Mircrosoft YaHei,Arial;font-size:16px"><tspan textLength="115.0" x="49.2" y="16.0" style="font-size:11px">Compute iterator active</tspan><tspan textLength="138.0" x="37.7" y="29.0" style="font-size:11px">Binning phase iterator active</tspan></text></g><g id="shape79" transform="matrix(0.000000,-1.000000,1.000000,0.000000,351.937900,392.106500)"><text xml:space="preserve" style="fill:#333e48;font-family:Lato,PingFang SC,Mircrosoft YaHei,Arial;font-size:16px"><tspan textLength="87.0" x="35.5" y="20.0" style="font-size:11px">Main phase active</tspan></text></g><g id="shape80" transform="matrix(0.000000,-1.000000,1.000000,0.000000,378.079900,390.424000)"><text xml:space="preserve" style="fill:#333e48;font-family:Lato,PingFang SC,Mircrosoft YaHei,Arial;font-size:16px"><tspan textLength="126.0" x="74.2" y="20.0" style="font-size:11px">Main phase iterator active</tspan></text></g></g></svg>