<svg width="628" viewBox="0 0 628 517" xmlns:ev="http://www.w3.org/2001/xml-events" xmlns="http://www.w3.org/2000/svg" height="517" xmlns:xlink="http://www.w3.org/1999/xlink"><defs/><g id="page1" transform="translate(5.5,5.5)"><rect width="618" x="0" fill="#ffffff" y="0" height="507"/><path d="M.0,.0L483.0,.0L483.0,154.8L.0,154.8L.0,.0z" stroke="#333e48" id="shape1" fill="#e5eceb" stroke-width="1.1114100217819214" transform="translate(40.407000,155.933000)" fill-rule="nonzero"/><path stroke-dasharray="3.74278,3.74278" d="M.0,191.3L38.5,20.1L38.5,.0" stroke="#333e48" id="shape2" stroke-width="1.4971100091934204" fill="none" transform="translate(243.142200,115.502300)"/><path stroke-dasharray="3.74278,3.74278" d="M.0,249.1L47.1,60.5L47.0,.0" stroke="#333e48" id="shape3" stroke-width="1.4971100091934204" fill="none" transform="translate(215.162800,21.722000)"/><path d="M.0,.0L20.0,.0" stroke="#7d868c" id="shape4" stroke-width="2.8005900382995605" fill="none" transform="translate(125.229410,175.909000)"/><path d="M.0,.0L134.9,.0" stroke="#7d868c" id="shape5" stroke-width="2.8005900382995605" fill="none" transform="translate(125.229100,190.891000)"/><path d="M.0,.0L74.9,.0L74.9,35.0L.0,35.0L.0,.0z" stroke="#333e48" id="shape6" fill="#11809f" stroke-width="1.3333300352096558" transform="translate(50.284800,165.920800)" fill-rule="nonzero"/><path d="M10.0,.0L5.0,10.0L.0,.0L10.0,.0z" stroke="#333e48" id="shape7" fill="#333e48" stroke-width="0.99807202816009521" transform="translate(180.188710,234.125940)" fill-rule="nonzero"/><path d="M.0,.0L209.2,.0L209.2,64.3L.0,64.3L.0,.0z" stroke="#333e48" id="shape8" fill="#11809f" stroke-width="2.188960075378418" transform="translate(145.877000,166.582600)" fill-rule="nonzero"/><path d="M.0,.0L60.0,.0L60.0,35.0L.0,35.0L.0,.0z" stroke="#333e48" id="shape9" fill="#ff6b00" stroke-width="1.3333300352096558" transform="translate(50.285300,265.801800)" fill-rule="nonzero"/><path d="M.0,.0L79.9,.0L79.9,35.0L.0,35.0L.0,.0z" stroke="#333e48" id="shape10" fill="#ff6b00" stroke-width="1.3333300352096558" transform="translate(120.233700,265.801800)" fill-rule="nonzero"/><path d="M.0,.0L65.0,.0L65.0,35.0L.0,35.0L.0,.0z" stroke="#333e48" id="shape11" fill="#ffc700" stroke-width="1.3333300352096558" transform="translate(210.166100,265.801800)" fill-rule="nonzero"/><path d="M.0,.0L60.0,.0L60.0,35.0L.0,35.0L.0,.0z" stroke="#333e48" id="shape12" fill="#7d868c" stroke-width="1.3333300352096558" transform="translate(285.111200,265.801800)" fill-rule="nonzero"/><path d="M.0,.0L69.9,.0L69.9,35.0L.0,35.0L.0,.0z" stroke="#333e48" id="shape13" fill="#7d868c" stroke-width="1.3333300352096558" transform="translate(355.059000,265.801800)" fill-rule="nonzero"/><path d="M10.0,.0L5.0,10.0L.0,.0L10.0,.0z" stroke="#333e48" id="shape14" fill="#333e48" stroke-width="0.99807202816009521" transform="translate(295.103710,234.125940)" fill-rule="nonzero"/><path d="M10.0,.0L5.0,10.0L.0,.0L10.0,.0z" stroke="#333e48" id="shape15" fill="#333e48" stroke-width="0.99807202816009521" transform="translate(75.266710,255.813940)" fill-rule="nonzero"/><path d="M.0,.0L.0,10.0" stroke="#333e48" id="shape16" stroke-width="2.8008298873901367" fill="none" transform="translate(80.263000,250.819940)"/><path d="M10.0,.0L5.0,10.0L.0,.0L10.0,.0z" stroke="#333e48" id="shape17" fill="#333e48" stroke-width="0.99807202816009521" transform="translate(155.207710,255.813940)" fill-rule="nonzero"/><path d="M.0,.0L.0,10.0" stroke="#333e48" id="shape18" stroke-width="2.8008298873901367" fill="none" transform="translate(160.204000,250.819940)"/><path d="M10.0,.0L5.0,10.0L.0,.0L10.0,.0z" stroke="#333e48" id="shape19" fill="#333e48" stroke-width="0.99807202816009521" transform="translate(238.145710,255.813940)" fill-rule="nonzero"/><path d="M.0,.0L.0,10.0" stroke="#333e48" id="shape20" stroke-width="2.8008298873901367" fill="none" transform="translate(243.142000,250.819940)"/><path d="M10.0,.0L5.0,10.0L.0,.0L10.0,.0z" stroke="#333e48" id="shape21" fill="#333e48" stroke-width="0.99807202816009521" transform="translate(310.092710,255.813940)" fill-rule="nonzero"/><path d="M.0,.0L.0,10.0" stroke="#333e48" id="shape22" stroke-width="2.8008298873901367" fill="none" transform="translate(315.089000,250.819940)"/><path d="M10.0,.0L5.0,10.0L.0,.0L10.0,.0z" stroke="#333e48" id="shape23" fill="#333e48" stroke-width="0.99807202816009521" transform="translate(385.036710,255.813940)" fill-rule="nonzero"/><path d="M.0,.0L.0,10.0" stroke="#333e48" id="shape24" stroke-width="2.8008298873901367" fill="none" transform="translate(390.033000,250.819940)"/><path d="M.0,.0L436.7,.0" stroke="#333e48" id="shape25" stroke-width="4.9963498115539551" fill="none" transform="translate(60.278000,248.537000)"/><path d="M.0,.0L74.9,.0L74.9,20.0L.0,20.0L.0,.0z" stroke="#7d868c" id="shape26" fill="#e5eceb" stroke-width="1.3333300352096558" transform="translate(50.284800,125.968860)" fill-rule="nonzero"/><path d="M10.0,.0L5.0,10.0L.0,.0L10.0,.0z" stroke="#333e48" id="shape27" fill="#333e48" stroke-width="0.99807202816009521" transform="translate(87.757710,155.932940)" fill-rule="nonzero"/><path d="M.0,.0L.0,15.0" stroke="#333e48" id="shape28" stroke-width="2.8008298873901367" fill="none" transform="translate(92.754000,145.944900)"/><path d="M.0,.0L69.9,.0L69.9,35.0L.0,35.0L.0,.0z" stroke="#7d868c" id="shape29" fill="#e5eceb" stroke-width="1.3333300352096558" transform="translate(355.294000,320.736800)" fill-rule="nonzero"/><path d="M10.0,.0L5.0,10.0L.0,.0L10.0,.0z" stroke="#333e48" id="shape30" fill="#333e48" stroke-width="0.99807202816009521" transform="translate(385.036710,310.748940)" fill-rule="nonzero"/><path d="M.0,.0L.0,15.0" stroke="#333e48" id="shape31" stroke-width="2.8008298873901367" fill="none" transform="translate(390.033000,300.760900)"/><path d="M.0,2.5C.0,1.1,1.1,.0,2.5,.0C3.8,.0,4.9,1.1,4.9,2.5C4.9,3.9,3.8,5.0,2.5,5.0C1.1,5.0,.0,3.9,.0,2.5z" id="shape32" fill="#333e48" transform="translate(52.873200,293.442880)" fill-rule="nonzero"/><path d="M10.0,10.0L5.0,.0L.0,10.0L10.0,10.0z" stroke="#333e48" id="shape33" fill="#333e48" stroke-width="0.99807202816009521" transform="translate(238.145710,300.760940)" fill-rule="nonzero"/><path d="M.0,.0L.0,15.0" stroke="#333e48" id="shape34" stroke-width="2.8008298873901367" fill="none" transform="translate(243.142000,305.754900)"/><path d="M10.0,10.0L5.0,.0L.0,10.0L10.0,10.0z" stroke="#333e48" id="shape35" fill="#333e48" stroke-width="0.99807202816009521" transform="translate(145.214710,300.760940)" fill-rule="nonzero"/><path d="M.0,.0L.0,15.0" stroke="#333e48" id="shape36" stroke-width="2.8008298873901367" fill="none" transform="translate(150.211000,305.754900)"/><g id="group37" transform="translate(165.199710,300.760870)"><path d="M10.0,.0L5.0,10.0L.0,.0L10.0,.0z" stroke="#333e48" id="shape38" fill="#333e48" stroke-width="0.99807202816009521" transform="translate(0.000000,9.988140)" fill-rule="nonzero"/><path d="M.0,15.0L.0,.0" stroke="#333e48" id="shape39" stroke-width="2.8008298873901367" fill="none" transform="translate(4.996290,0.000000)"/></g><path stroke-dasharray="3.74278,3.74278" d="M41.2,.0L.0,53.3L.0,99.9" stroke="#333e48" id="shape40" stroke-width="1.4971100091934204" fill="none" transform="translate(14.136400,295.954300)"/><path d="M.0,2.5C.0,1.1,1.1,.0,2.5,.0C3.8,.0,4.9,1.1,4.9,2.5C4.9,3.9,3.8,5.0,2.5,5.0C1.1,5.0,.0,3.9,.0,2.5z" id="shape41" fill="#333e48" transform="translate(11.637800,353.499880)" fill-rule="nonzero"/><path d="M.0,2.5C.0,1.1,1.1,.0,2.5,.0C3.8,.0,4.9,1.1,4.9,2.5C4.9,3.9,3.8,5.0,2.5,5.0C1.1,5.0,.0,3.9,.0,2.5z" id="shape42" fill="#333e48" transform="translate(11.637800,373.401880)" fill-rule="nonzero"/><path d="M.0,2.5C.0,1.1,1.1,.0,2.5,.0C3.8,.0,4.9,1.1,4.9,2.5C4.9,3.9,3.8,5.0,2.5,5.0C1.1,5.0,.0,3.9,.0,2.5z" id="shape43" fill="#333e48" transform="translate(11.788800,393.403880)" fill-rule="nonzero"/><path d="M.0,2.5C.0,1.1,1.1,.0,2.5,.0C3.8,.0,4.9,1.1,4.9,2.5C4.9,3.9,3.8,5.0,2.5,5.0C1.1,5.0,.0,3.9,.0,2.5z" id="shape44" fill="#333e48" transform="translate(122.907200,293.264880)" fill-rule="nonzero"/><path stroke-dasharray="3.74278,3.74278" d="M.0,.0L35.3,91.5L35.8,191.6" stroke="#333e48" id="shape45" stroke-width="1.4971100091934204" fill="none" transform="translate(125.264400,295.766200)"/><path d="M.0,2.5C.0,1.1,1.1,.0,2.5,.0C3.8,.0,4.9,1.1,4.9,2.5C4.9,3.9,3.8,5.0,2.5,5.0C1.1,5.0,.0,3.9,.0,2.5z" id="shape46" fill="#333e48" transform="translate(158.553200,384.778880)" fill-rule="nonzero"/><path d="M.0,2.5C.0,1.1,1.1,.0,2.5,.0C3.8,.0,4.9,1.1,4.9,2.5C4.9,3.9,3.8,5.0,2.5,5.0C1.1,5.0,.0,3.9,.0,2.5z" id="shape47" fill="#333e48" transform="translate(158.704200,404.956880)" fill-rule="nonzero"/><path d="M.0,2.5C.0,1.1,1.1,.0,2.5,.0C3.8,.0,4.9,1.1,4.9,2.5C4.9,3.9,3.8,5.0,2.5,5.0C1.1,5.0,.0,3.9,.0,2.5z" id="shape48" fill="#333e48" transform="translate(158.704200,424.858880)" fill-rule="nonzero"/><path d="M.0,2.5C.0,1.1,1.1,.0,2.5,.0C3.8,.0,4.9,1.1,4.9,2.5C4.9,3.9,3.8,5.0,2.5,5.0C1.1,5.0,.0,3.9,.0,2.5z" id="shape49" fill="#333e48" transform="translate(158.855200,444.861880)" fill-rule="nonzero"/><path d="M.0,2.5C.0,1.1,1.1,.0,2.5,.0C3.8,.0,4.9,1.1,4.9,2.5C4.9,3.9,3.8,5.0,2.5,5.0C1.1,5.0,.0,3.9,.0,2.5z" id="shape50" fill="#333e48" transform="translate(158.704200,464.811880)" fill-rule="nonzero"/><path d="M.0,2.5C.0,1.1,1.1,.0,2.5,.0C3.8,.0,4.9,1.1,4.9,2.5C4.9,3.9,3.8,5.0,2.5,5.0C1.1,5.0,.0,3.9,.0,2.5z" id="shape51" fill="#333e48" transform="translate(158.855200,484.813880)" fill-rule="nonzero"/><path d="M4.9,2.5C4.9,1.1,3.8,.0,2.5,.0C1.1,.0,.0,1.1,.0,2.5C.0,3.9,1.1,5.0,2.5,5.0C3.8,5.0,4.9,3.9,4.9,2.5z" id="shape52" fill="#333e48" transform="translate(147.684200,303.870880)" fill-rule="nonzero"/><path stroke-dasharray="3.74278,3.74278" d="M.0,.0L156.5,115.6L156.5,136.7" stroke="#333e48" id="shape53" stroke-width="1.4971100091934204" fill="none" transform="translate(147.850000,305.755000)"/><path d="M4.9,2.5C4.9,1.1,3.8,.0,2.5,.0C1.1,.0,.0,1.1,.0,2.5C.0,3.9,1.1,5.0,2.5,5.0C3.8,5.0,4.9,3.9,4.9,2.5z" id="shape54" fill="#333e48" transform="translate(302.145200,419.098880)" fill-rule="nonzero"/><path d="M4.9,2.5C4.9,1.1,3.8,.0,2.5,.0C1.1,.0,.0,1.1,.0,2.5C.0,3.9,1.1,5.0,2.5,5.0C3.8,5.0,4.9,3.9,4.9,2.5z" id="shape55" fill="#333e48" transform="translate(301.995200,439.277880)" fill-rule="nonzero"/><path d="M4.9,2.5C4.9,1.1,3.8,.0,2.5,.0C1.1,.0,.0,1.1,.0,2.5C.0,3.9,1.1,5.0,2.5,5.0C3.8,5.0,4.9,3.9,4.9,2.5z" id="shape56" fill="#333e48" transform="translate(167.670200,311.861880)" fill-rule="nonzero"/><path stroke-dasharray="3.74278,3.74278" d="M.0,.0L77.4,33.2" stroke="#333e48" id="shape57" stroke-width="1.4971100091934204" fill="none" transform="translate(170.999800,314.162200)"/><path d="M4.9,2.4C4.9,1.1,3.8,.0,2.5,.0C1.1,.0,.0,1.1,.0,2.4C.0,3.7,1.1,4.7,2.5,4.7C3.8,4.7,4.9,3.7,4.9,2.4z" id="shape58" fill="#333e48" transform="translate(337.541200,293.309730)" fill-rule="nonzero"/><path stroke-dasharray="3.74278,3.74278" d="M6.8,.0L.4,75.8L.0,95.4" stroke="#333e48" id="shape59" stroke-width="1.4971100091934204" fill="none" transform="translate(332.717920,295.666500)"/><path d="M4.9,2.5C4.9,1.1,3.8,.0,2.5,.0C1.1,.0,.0,1.1,.0,2.5C.0,3.9,1.1,5.0,2.5,5.0C3.8,5.0,4.9,3.9,4.9,2.5z" id="shape60" fill="#333e48" transform="translate(330.719200,368.536880)" fill-rule="nonzero"/><path d="M4.9,2.5C4.9,1.1,3.8,.0,2.5,.0C1.1,.0,.0,1.1,.0,2.5C.0,3.9,1.1,5.0,2.5,5.0C3.8,5.0,4.9,3.9,4.9,2.5z" id="shape61" fill="#333e48" transform="translate(330.569200,388.538880)" fill-rule="nonzero"/><path d="M4.9,2.5C4.9,3.9,3.8,5.0,2.5,5.0C1.1,5.0,.0,3.9,.0,2.5C.0,1.1,1.1,.0,2.5,.0C3.8,.0,4.9,1.1,4.9,2.5z" id="shape62" fill="#333e48" transform="translate(213.055200,268.279880)" fill-rule="nonzero"/><path d="M.0,2.5C.0,3.9,1.1,5.0,2.5,5.0C3.8,5.0,4.9,3.9,4.9,2.5C4.9,1.1,3.8,.0,2.5,.0C1.1,.0,.0,1.1,.0,2.5z" id="shape63" fill="#333e48" transform="translate(147.850200,168.359880)" fill-rule="nonzero"/><path stroke-dasharray="3.74278,3.74278" d="M13.2,137.4L.0,79.7L.2,.0" stroke="#333e48" id="shape64" stroke-width="1.4971100091934204" fill="none" transform="translate(136.905870,33.909000)"/><path d="M4.9,2.5C4.9,3.9,3.8,5.0,2.5,5.0C1.1,5.0,.0,3.9,.0,2.5C.0,1.1,1.1,.0,2.5,.0C3.8,.0,4.9,1.1,4.9,2.5z" stroke="#333e48" id="shape65" fill="#333e48" stroke-width="0.99807202816009521" transform="translate(260.114200,80.056880)" fill-rule="nonzero"/><path d="M4.9,2.5C4.9,3.9,3.8,5.0,2.5,5.0C1.1,5.0,.0,3.9,.0,2.5C.0,1.1,1.1,.0,2.5,.0C3.8,.0,4.9,1.1,4.9,2.5z" stroke="#333e48" id="shape66" fill="#333e48" stroke-width="0.99807202816009521" transform="translate(260.114200,60.099880)" fill-rule="nonzero"/><path d="M4.9,2.5C4.9,3.9,3.8,5.0,2.5,5.0C1.1,5.0,.0,3.9,.0,2.5C.0,1.1,1.1,.0,2.5,.0C3.8,.0,4.9,1.1,4.9,2.5z" stroke="#333e48" id="shape67" fill="#333e48" stroke-width="0.99807202816009521" transform="translate(260.114200,40.141880)" fill-rule="nonzero"/><path d="M4.9,2.5C4.9,3.9,3.8,5.0,2.5,5.0C1.1,5.0,.0,3.9,.0,2.5C.0,1.1,1.1,.0,2.5,.0C3.8,.0,4.9,1.1,4.9,2.5z" stroke="#333e48" id="shape68" fill="#333e48" stroke-width="0.99807202816009521" transform="translate(260.114200,20.183880)" fill-rule="nonzero"/><path d="M.0,2.5C.0,3.9,1.1,5.0,2.5,5.0C3.8,5.0,4.9,3.9,4.9,2.5C4.9,1.1,3.8,.0,2.5,.0C1.1,.0,.0,1.1,.0,2.5z" stroke="#333e48" id="shape69" fill="#333e48" stroke-width="1.4971100091934204" transform="translate(279.221200,133.176880)" fill-rule="nonzero"/><path d="M.0,2.5C.0,3.9,1.1,5.0,2.5,5.0C3.8,5.0,4.9,3.9,4.9,2.5C4.9,1.1,3.8,.0,2.5,.0C1.1,.0,.0,1.1,.0,2.5z" stroke="#333e48" id="shape70" fill="#333e48" stroke-width="1.4971100091934204" transform="translate(279.221200,113.247880)" fill-rule="nonzero"/><path d="M4.9,2.5C4.9,1.1,3.8,.0,2.5,.0C1.1,.0,.0,1.1,.0,2.5C.0,3.9,1.1,5.0,2.5,5.0C3.8,5.0,4.9,3.9,4.9,2.5z" id="shape71" fill="#333e48" transform="translate(240.402200,304.521880)" fill-rule="nonzero"/><path d="M.0,2.5C.0,3.9,1.1,5.0,2.5,5.0C3.8,5.0,4.9,3.9,4.9,2.5C4.9,1.1,3.8,.0,2.5,.0C1.1,.0,.0,1.1,.0,2.5z" id="shape72" fill="#333e48" transform="translate(52.994200,168.342880)" fill-rule="nonzero"/><path d="M.0,2.5C.0,3.9,1.1,5.0,2.5,5.0C3.8,5.0,4.9,3.9,4.9,2.5C4.9,1.1,3.8,.0,2.5,.0C1.1,.0,.0,1.1,.0,2.5z" stroke="#333e48" id="shape73" fill="#333e48" stroke-width="0.99807202816009521" transform="translate(11.637800,39.664780)" fill-rule="nonzero"/><path d="M.0,2.5C.0,3.9,1.1,5.0,2.5,5.0C3.8,5.0,4.9,3.9,4.9,2.5C4.9,1.1,3.8,.0,2.5,.0C1.1,.0,.0,1.1,.0,2.5z" stroke="#333e48" id="shape74" fill="#333e48" stroke-width="0.99807202816009521" transform="translate(11.788800,19.485880)" fill-rule="nonzero"/><path d="M.0,.0L40.0,.0L40.0,35.0L.0,35.0L.0,.0z" stroke="#333e48" id="shape75" fill="#00c1de" stroke-width="1.3333300352096558" transform="translate(155.206800,185.896800)" fill-rule="nonzero"/><path d="M.0,.0L40.0,.0L40.0,35.0L.0,35.0L.0,.0z" stroke="#333e48" id="shape76" fill="#00c1de" stroke-width="1.3333300352096558" transform="translate(205.169800,185.896800)" fill-rule="nonzero"/><path d="M.0,.0L40.0,.0L40.0,35.0L.0,35.0L.0,.0z" stroke="#333e48" id="shape77" fill="#00c1de" stroke-width="1.3333300352096558" transform="translate(255.132800,185.896800)" fill-rule="nonzero"/><path d="M.0,.0L40.0,.0L40.0,35.0L.0,35.0L.0,.0z" stroke="#333e48" id="shape78" fill="#00c1de" stroke-width="1.3333300352096558" transform="translate(305.095800,185.896800)" fill-rule="nonzero"/><path stroke-dasharray="3.74278,3.74278" d="M41.7,149.9L.3,21.0L.0,.0" stroke="#333e48" id="shape79" stroke-width="1.4971100091934204" fill="none" transform="translate(13.786400,21.341800)"/><path d="M4.9,2.5C4.9,3.9,3.8,5.0,2.5,5.0C1.1,5.0,.0,3.9,.0,2.5C.0,1.1,1.1,.0,2.5,.0C3.8,.0,4.9,1.1,4.9,2.5z" stroke="#333e48" id="shape80" fill="#333e48" stroke-width="0.99807202816009521" transform="translate(134.667200,91.494880)" fill-rule="nonzero"/><path d="M4.9,2.5C4.9,3.9,3.8,5.0,2.5,5.0C1.1,5.0,.0,3.9,.0,2.5C.0,1.1,1.1,.0,2.5,.0C3.8,.0,4.9,1.1,4.9,2.5z" stroke="#333e48" id="shape81" fill="#333e48" stroke-width="0.99807202816009521" transform="translate(134.667200,71.537880)" fill-rule="nonzero"/><path d="M4.9,2.5C4.9,3.9,3.8,5.0,2.5,5.0C1.1,5.0,.0,3.9,.0,2.5C.0,1.1,1.1,.0,2.5,.0C3.8,.0,4.9,1.1,4.9,2.5z" stroke="#333e48" id="shape82" fill="#333e48" stroke-width="0.99807202816009521" transform="translate(134.667200,51.579880)" fill-rule="nonzero"/><path d="M4.9,2.5C4.9,3.9,3.8,5.0,2.5,5.0C1.1,5.0,.0,3.9,.0,2.5C.0,1.1,1.1,.0,2.5,.0C3.8,.0,4.9,1.1,4.9,2.5z" stroke="#333e48" id="shape83" fill="#333e48" stroke-width="0.99807202816009521" transform="translate(134.667200,31.621880)" fill-rule="nonzero"/><path d="M4.9,2.5C4.9,3.9,3.8,5.0,2.5,5.0C1.1,5.0,.0,3.9,.0,2.5C.0,1.1,1.1,.0,2.5,.0C3.8,.0,4.9,1.1,4.9,2.5z" stroke="#333e48" id="shape84" fill="#333e48" stroke-width="0.99807202816009521" transform="translate(134.860200,111.290880)" fill-rule="nonzero"/><path d="M.0,.0L.0,10.0" stroke="#333e48" id="shape85" stroke-width="2.8008298873901367" fill="none" transform="translate(185.185000,230.346940)"/><path d="M.0,.0L.0,10.0" stroke="#333e48" id="shape86" stroke-width="2.8008298873901367" fill="none" transform="translate(300.600000,230.346940)"/><g id="shape87" transform="translate(50.284800,119.172900)"><text xml:space="preserve" style="fill:#7d868c;font-family:Lato,PingFang SC,Mircrosoft YaHei,Arial;font-size:20px"><tspan textLength="63.0" x="6.0" y="21.1" style="font-size:13px">Front-ends</tspan></text></g><g id="shape88" transform="translate(356.059000,319.161700)"><text xml:space="preserve" style="fill:#7d868c;font-family:Lato,PingFang SC,Mircrosoft YaHei,Arial;font-size:20px"><tspan textLength="58.5" x="7.0" y="17.7" style="font-size:13px">Fragment </tspan><tspan textLength="52.0" x="9.0" y="30.5" style="font-size:13px">Back end</tspan></text></g><g id="shape89" transform="translate(452.052000,157.995700)"><text xml:space="preserve" style="fill:#7d868c;font-family:Lato,PingFang SC,Mircrosoft YaHei,Arial;font-size:20px"><tspan textLength="56.0" x="9.5" y="17.0" style="font-size:13px">Execution</tspan><tspan textLength="28.0" x="37.5" y="29.8" style="font-size:13px">Core</tspan></text></g><g id="shape90" transform="translate(50.529800,165.872900)"><text xml:space="preserve" style="fill:#ffffff;font-family:Lato,PingFang SC,Mircrosoft YaHei,Arial;font-size:20px"><tspan textLength="32.0" x="21.5" y="15.6" style="font-size:13px">Warp</tspan><tspan textLength="52.0" x="11.5" y="28.4" style="font-size:13px">Manager</tspan></text></g><g id="shape91" transform="translate(50.530100,264.733700)"><text xml:space="preserve" style="fill:#ffffff;font-family:Lato,PingFang SC,Mircrosoft YaHei,Arial;font-size:20px"><tspan textLength="44.0" x="8.0" y="17.0" style="font-size:13px">Varying</tspan><tspan textLength="24.0" x="18.0" y="29.8" style="font-size:13px">Unit</tspan></text></g><g id="shape92" transform="translate(120.412600,264.733700)"><text xml:space="preserve" style="fill:#ffffff;font-family:Lato,PingFang SC,Mircrosoft YaHei,Arial;font-size:20px"><tspan textLength="63.0" x="8.5" y="17.0" style="font-size:13px">Load/Store</tspan><tspan textLength="24.0" x="28.0" y="29.8" style="font-size:13px">Unit</tspan></text></g><g id="shape93" transform="translate(210.411100,264.733700)"><text xml:space="preserve" style="fill:#333e48;font-family:Lato,PingFang SC,Mircrosoft YaHei,Arial;font-size:20px"><tspan textLength="43.0" x="11.0" y="17.0" style="font-size:13px">Texture</tspan><tspan textLength="24.0" x="20.5" y="29.8" style="font-size:13px">Unit</tspan></text></g><g id="shape94" transform="translate(285.356200,264.733800)"><text xml:space="preserve" style="fill:#ffffff;font-family:Lato,PingFang SC,Mircrosoft YaHei,Arial;font-size:20px"><tspan textLength="44.0" x="8.0" y="17.0" style="font-size:13px">Late ZS</tspan><tspan textLength="24.0" x="18.0" y="29.8" style="font-size:13px">Unit</tspan></text></g><g id="shape95" transform="translate(355.304000,264.733700)"><text xml:space="preserve" style="fill:#ffffff;font-family:Lato,PingFang SC,Mircrosoft YaHei,Arial;font-size:20px"><tspan textLength="32.0" x="19.0" y="17.0" style="font-size:13px">Blend</tspan><tspan textLength="24.0" x="23.0" y="29.8" style="font-size:13px">Unit</tspan></text></g><g id="shape96" transform="translate(155.500900,180.460800)"><text xml:space="preserve" style="fill:#ffffff;font-family:Lato,PingFang SC,Mircrosoft YaHei,Arial;font-size:20px"><tspan textLength="29.5" x="6.0" y="21.1" style="font-size:13px">FMA </tspan><tspan textLength="25.0" x="7.5" y="33.9" style="font-size:13px">Pipe</tspan></text></g><g id="shape97" transform="translate(205.353900,179.896800)"><text xml:space="preserve" style="fill:#ffffff;font-family:Lato,PingFang SC,Mircrosoft YaHei,Arial;font-size:20px"><tspan textLength="28.5" x="7.0" y="21.2" style="font-size:13px">CVT </tspan><tspan textLength="25.0" x="7.5" y="34.0" style="font-size:13px">Pipe</tspan></text></g><g id="shape98" transform="translate(255.132900,179.896800)"><text xml:space="preserve" style="fill:#ffffff;font-family:Lato,PingFang SC,Mircrosoft YaHei,Arial;font-size:20px"><tspan textLength="26.0" x="8.5" y="21.2" style="font-size:13px">SFU </tspan><tspan textLength="25.0" x="7.5" y="34.0" style="font-size:13px">Pipe</tspan></text></g><g id="shape99" transform="translate(305.096900,180.896800)"><text xml:space="preserve" style="fill:#ffffff;font-family:Lato,PingFang SC,Mircrosoft YaHei,Arial;font-size:20px"><tspan textLength="30.0" x="5.5" y="21.2" style="font-size:13px">MSG </tspan><tspan textLength="25.0" x="7.5" y="34.0" style="font-size:13px">Pipe</tspan></text></g><g id="shape100" transform="translate(145.215000,165.921540)"><text xml:space="preserve" style="fill:#ffffff;font-family:Lato,PingFang SC,Mircrosoft YaHei,Arial;font-size:20px"><tspan textLength="89.0" x="60.1" y="16.1" style="font-size:13px">Processing Unit</tspan></text></g><g id="shape101" transform="translate(17.357700,16.118110)"><text xml:space="preserve" style="fill:#333e48;font-family:Lato,PingFang SC,Mircrosoft YaHei,Arial;font-size:16px"><tspan textLength="92.0" x="4.4" y="11.4" style="font-size:11px">Warps with all regs</tspan></text></g><g id="shape102" transform="translate(18.357700,30.581500)"><text xml:space="preserve" style="fill:#333e48;font-family:Lato,PingFang SC,Mircrosoft YaHei,Arial;font-size:16px"><tspan textLength="100.0" x="4.4" y="16.5" style="font-size:11px">Warps with all quads</tspan></text></g><g id="shape103" transform="translate(283.397400,92.494600)"><text xml:space="preserve" style="fill:#333e48;font-family:Lato,PingFang SC,Mircrosoft YaHei,Arial;font-size:16px"><tspan textLength="128.0" x="4.4" y="26.6" style="font-size:11px">Texture read bytes from L2</tspan></text></g><g id="shape104" transform="translate(283.398000,112.682600)"><text xml:space="preserve" style="fill:#333e48;font-family:Lato,PingFang SC,Mircrosoft YaHei,Arial;font-size:16px"><tspan textLength="156.0" x="4.3" y="26.6" style="font-size:11px">Texture read bytes from external</tspan></text></g><g id="shape105" transform="translate(265.919900,15.118110)"><text xml:space="preserve" style="fill:#333e48;font-family:Lato,PingFang SC,Mircrosoft YaHei,Arial;font-size:16px"><tspan textLength="78.0" x="4.0" y="11.2" style="font-size:11px">Texture samples</tspan></text></g><g id="shape106" transform="translate(265.919600,19.844700)"><text xml:space="preserve" style="fill:#333e48;font-family:Lato,PingFang SC,Mircrosoft YaHei,Arial;font-size:16px"><tspan textLength="107.0" x="4.1" y="26.6" style="font-size:11px">Texture filtering active</tspan></text></g><g id="shape107" transform="translate(265.920600,39.786600)"><text xml:space="preserve" style="fill:#333e48;font-family:Lato,PingFang SC,Mircrosoft YaHei,Arial;font-size:16px"><tspan textLength="110.0" x="4.1" y="26.6" style="font-size:11px">2x Trilinear path active</tspan></text></g><g id="shape108" transform="translate(264.919600,67.736700)"><text xml:space="preserve" style="fill:#333e48;font-family:Lato,PingFang SC,Mircrosoft YaHei,Arial;font-size:16px"><tspan textLength="107.0" x="4.1" y="19.3" style="font-size:11px">4x Bilinear path active</tspan></text></g><g id="shape109" transform="translate(139.287900,24.236220)"><text xml:space="preserve" style="fill:#333e48;font-family:Lato,PingFang SC,Mircrosoft YaHei,Arial;font-size:16px"><tspan textLength="82.0" x="4.4" y="13.6" style="font-size:11px">FMA instructions</tspan></text></g><g id="shape110" transform="translate(139.288000,39.302400)"><text xml:space="preserve" style="fill:#333e48;font-family:Lato,PingFang SC,Mircrosoft YaHei,Arial;font-size:16px"><tspan textLength="80.0" x="4.4" y="19.6" style="font-size:11px">CVT instructions</tspan></text></g><g id="shape111" transform="translate(139.288000,58.904400)"><text xml:space="preserve" style="fill:#333e48;font-family:Lato,PingFang SC,Mircrosoft YaHei,Arial;font-size:16px"><tspan textLength="79.0" x="4.4" y="19.6" style="font-size:11px">SFU instructions</tspan></text></g><g id="shape112" transform="translate(139.288000,78.861400)"><text xml:space="preserve" style="fill:#333e48;font-family:Lato,PingFang SC,Mircrosoft YaHei,Arial;font-size:16px"><tspan textLength="83.0" x="4.4" y="19.6" style="font-size:11px">MSG instructions</tspan></text></g><g id="shape113" transform="translate(139.288000,99.445400)"><text xml:space="preserve" style="fill:#333e48;font-family:Lato,PingFang SC,Mircrosoft YaHei,Arial;font-size:16px"><tspan textLength="103.0" x="4.4" y="20.0" style="font-size:11px">Diverged instructions</tspan></text></g><g id="shape114" transform="translate(247.669800,335.142700)"><text xml:space="preserve" style="fill:#333e48;font-family:Lato,PingFang SC,Mircrosoft YaHei,Arial;font-size:16px"><tspan textLength="72.0" x="4.4" y="16.1" style="font-size:11px">L/S write bytes</tspan></text></g><g id="shape115" transform="translate(14.408700,343.647600)"><text xml:space="preserve" style="fill:#333e48;font-family:Lato,PingFang SC,Mircrosoft YaHei,Arial;font-size:16px"><tspan textLength="69.0" x="4.4" y="16.5" style="font-size:11px">Varying active</tspan></text></g><g id="shape116" transform="translate(14.909700,363.533600)"><text xml:space="preserve" style="fill:#333e48;font-family:Lato,PingFang SC,Mircrosoft YaHei,Arial;font-size:16px"><tspan textLength="100.0" x="4.4" y="16.5" style="font-size:11px">Varying 16-bit active</tspan></text></g><g id="shape117" transform="translate(14.838500,381.105200)"><text xml:space="preserve" style="fill:#333e48;font-family:Lato,PingFang SC,Mircrosoft YaHei,Arial;font-size:16px"><tspan textLength="100.0" x="4.4" y="19.5" style="font-size:11px">Varying 32-bit active</tspan></text></g><g id="shape118" transform="translate(162.224700,454.654600)"><text xml:space="preserve" style="fill:#333e48;font-family:Lato,PingFang SC,Mircrosoft YaHei,Arial;font-size:16px"><tspan textLength="82.0" x="4.4" y="16.5" style="font-size:11px">L/S partial writes</tspan></text></g><g id="shape119" transform="translate(162.224700,434.720600)"><text xml:space="preserve" style="fill:#333e48;font-family:Lato,PingFang SC,Mircrosoft YaHei,Arial;font-size:16px"><tspan textLength="66.0" x="4.4" y="16.5" style="font-size:11px">L/S full writes</tspan></text></g><g id="shape120" transform="translate(162.224700,414.734600)"><text xml:space="preserve" style="fill:#333e48;font-family:Lato,PingFang SC,Mircrosoft YaHei,Arial;font-size:16px"><tspan textLength="79.0" x="4.4" y="16.5" style="font-size:11px">L/S partial reads</tspan></text></g><g id="shape121" transform="translate(162.224700,394.847600)"><text xml:space="preserve" style="fill:#333e48;font-family:Lato,PingFang SC,Mircrosoft YaHei,Arial;font-size:16px"><tspan textLength="63.0" x="4.4" y="16.5" style="font-size:11px">L/S full reads</tspan></text></g><g id="shape122" transform="translate(162.224700,374.214600)"><text xml:space="preserve" style="fill:#333e48;font-family:Lato,PingFang SC,Mircrosoft YaHei,Arial;font-size:16px"><tspan textLength="47.0" x="4.4" y="16.5" style="font-size:11px">L/S active</tspan></text></g><g id="shape123" transform="translate(162.224700,477.641600)"><text xml:space="preserve" style="fill:#333e48;font-family:Lato,PingFang SC,Mircrosoft YaHei,Arial;font-size:16px"><tspan textLength="56.0" x="4.4" y="12.8" style="font-size:11px">L/S atomics</tspan></text></g><g id="shape124" transform="translate(307.336700,406.022200)"><text xml:space="preserve" style="fill:#333e48;font-family:Lato,PingFang SC,Mircrosoft YaHei,Arial;font-size:16px"><tspan textLength="108.0" x="4.2" y="19.1" style="font-size:11px">L/S read bytes from L2</tspan></text></g><g id="shape125" transform="translate(307.336500,430.252700)"><text xml:space="preserve" style="fill:#333e48;font-family:Lato,PingFang SC,Mircrosoft YaHei,Arial;font-size:16px"><tspan textLength="136.0" x="4.3" y="16.1" style="font-size:11px">L/S read bytes from external</tspan></text></g><g id="shape126" transform="translate(334.923900,358.568700)"><text xml:space="preserve" style="fill:#333e48;font-family:Lato,PingFang SC,Mircrosoft YaHei,Arial;font-size:16px"><tspan textLength="101.0" x="4.0" y="16.1" style="font-size:11px">Quads late ZS tested</tspan></text></g><g id="shape127" transform="translate(334.688400,378.797700)"><text xml:space="preserve" style="fill:#333e48;font-family:Lato,PingFang SC,Mircrosoft YaHei,Arial;font-size:16px"><tspan textLength="97.0" x="4.2" y="16.1" style="font-size:11px">Quads late ZS killed</tspan></text></g><path d="M.0,.0L79.0,.0L79.0,35.0L.0,35.0L.0,.0z" stroke="#333e48" id="shape128" fill="#002b49" stroke-width="0.99807202816009521" transform="translate(433.903000,265.801700)" fill-rule="nonzero"/><path d="M10.0,.0L5.0,10.0L.0,.0L10.0,.0z" stroke="#333e48" id="shape129" fill="#333e48" stroke-width="0.99807202816009521" transform="translate(463.880710,255.813940)" fill-rule="nonzero"/><path d="M.0,.0L.0,10.0" stroke="#333e48" id="shape130" stroke-width="2.8008298873901367" fill="none" transform="translate(468.877000,250.819940)"/><g id="shape131" transform="translate(433.903000,264.733700)"><text xml:space="preserve" style="fill:#ffffff;font-family:Lato,PingFang SC,Mircrosoft YaHei,Arial;font-size:20px"><tspan textLength="66.0" x="6.5" y="17.0" style="font-size:13px">Ray Tracing</tspan><tspan textLength="24.0" x="27.5" y="29.8" style="font-size:13px">Unit</tspan></text></g><path d="M4.9,2.4C4.9,1.1,3.8,.0,2.5,.0C1.1,.0,.0,1.1,.0,2.4C.0,3.7,1.1,4.7,2.5,4.7C3.8,4.7,4.9,3.7,4.9,2.4z" id="shape132" fill="#333e48" transform="translate(437.451200,293.309730)" fill-rule="nonzero"/><path stroke-dasharray="3.74278,3.74278" d="M.0,.0L36.7,75.5L36.9,153.1" stroke="#333e48" id="shape133" stroke-width="1.4971100091934204" fill="none" transform="translate(439.727700,295.954600)"/><path d="M4.9,2.5C4.9,1.1,3.8,.0,2.5,.0C1.1,.0,.0,1.1,.0,2.5C.0,3.9,1.1,5.0,2.5,5.0C3.8,5.0,4.9,3.9,4.9,2.5z" id="shape134" fill="#333e48" transform="translate(474.059200,368.536880)" fill-rule="nonzero"/><path d="M4.9,2.5C4.9,1.1,3.8,.0,2.5,.0C1.1,.0,.0,1.1,.0,2.5C.0,3.9,1.1,5.0,2.5,5.0C3.8,5.0,4.9,3.9,4.9,2.5z" id="shape135" fill="#333e48" transform="translate(473.909200,388.538880)" fill-rule="nonzero"/><g id="shape136" transform="translate(479.263900,357.568700)"><text xml:space="preserve" style="fill:#333e48;font-family:Lato,PingFang SC,Mircrosoft YaHei,Arial;font-size:16px"><tspan textLength="71.0" x="4.4" y="16.1" style="font-size:11px">Box test cycles</tspan></text></g><g id="shape137" transform="translate(479.028200,377.797700)"><text xml:space="preserve" style="fill:#333e48;font-family:Lato,PingFang SC,Mircrosoft YaHei,Arial;font-size:16px"><tspan textLength="65.0" x="4.5" y="16.1" style="font-size:11px">Tri test cycles</tspan></text></g><path d="M4.9,2.5C4.9,1.1,3.8,.0,2.5,.0C1.1,.0,.0,1.1,.0,2.5C.0,3.9,1.1,5.0,2.5,5.0C3.8,5.0,4.9,3.9,4.9,2.5z" id="shape138" fill="#333e48" transform="translate(474.209200,407.473880)" fill-rule="nonzero"/><path d="M4.9,2.5C4.9,1.1,3.8,.0,2.5,.0C1.1,.0,.0,1.1,.0,2.5C.0,3.9,1.1,5.0,2.5,5.0C3.8,5.0,4.9,3.9,4.9,2.5z" id="shape139" fill="#333e48" transform="translate(474.059200,427.475880)" fill-rule="nonzero"/><g id="shape140" transform="translate(479.028200,415.098800)"><text xml:space="preserve" style="fill:#333e48;font-family:Lato,PingFang SC,Mircrosoft YaHei,Arial;font-size:16px"><tspan textLength="112.0" x="4.5" y="18.9" style="font-size:11px">Tri test warp coherency</tspan></text></g><path d="M4.9,2.5C4.9,1.1,3.8,.0,2.5,.0C1.1,.0,.0,1.1,.0,2.5C.0,3.9,1.1,5.0,2.5,5.0C3.8,5.0,4.9,3.9,4.9,2.5z" id="shape141" fill="#333e48" transform="translate(473.909200,447.050880)" fill-rule="nonzero"/><g id="shape142" transform="translate(478.878200,434.673800)"><text xml:space="preserve" style="fill:#333e48;font-family:Lato,PingFang SC,Mircrosoft YaHei,Arial;font-size:16px"><tspan textLength="84.0" x="4.1" y="18.9" style="font-size:11px">Tri test hit results</tspan></text></g><g id="shape143" transform="translate(479.130900,398.390700)"><text xml:space="preserve" style="fill:#333e48;font-family:Lato,PingFang SC,Mircrosoft YaHei,Arial;font-size:16px"><tspan textLength="118.0" x="4.3" y="16.1" style="font-size:11px">Box test warp coherency</tspan></text></g><path d="M4.9,2.5C4.9,3.9,3.8,5.0,2.5,5.0C1.1,5.0,.0,3.9,.0,2.5C.0,1.1,1.1,.0,2.5,.0C3.8,.0,4.9,1.1,4.9,2.5z" stroke="#333e48" id="shape144" fill="#333e48" stroke-width="0.99807202816009521" transform="translate(260.114200,20.183880)" fill-rule="nonzero"/></g></svg>