<svg width="534" viewBox="0 0 534 505" xmlns:ev="http://www.w3.org/2001/xml-events" xmlns="http://www.w3.org/2000/svg" height="505" xmlns:xlink="http://www.w3.org/1999/xlink"><defs/><g id="page1" transform="translate(5.5,5.5)"><rect width="524" x="0" fill="#ffffff" y="0" height="495"/><path d="M.0,.0L219.7,.0L219.7,49.9L.0,49.9L.0,.0z" stroke="#333e48" id="shape1" fill="#11809f" stroke-width="1.3333300352096558" transform="translate(124.957000,212.568600)" fill-rule="nonzero"/><path d="M.0,.0L99.9,.0L99.9,34.9L.0,34.9L.0,.0z" stroke="#333e48" id="shape2" fill="#00c1de" stroke-width="1.3333300352096558" transform="translate(124.957900,162.673800)" fill-rule="nonzero"/><path d="M10.0,.0L5.0,10.0L.0,.0L10.0,.0z" stroke="#333e48" id="shape3" fill="#333e48" stroke-width="0.99650001525878906" transform="translate(169.894990,202.589530)" fill-rule="nonzero"/><path d="M.0,.0L.0,10.0" stroke="#333e48" id="shape4" stroke-width="2.7964200973510742" fill="none" transform="translate(174.888000,197.600530)"/><path d="M10.0,.0L5.0,10.0L.0,.0L10.0,.0z" stroke="#333e48" id="shape5" fill="#333e48" stroke-width="0.99650001525878906" transform="translate(289.727990,202.589530)" fill-rule="nonzero"/><path d="M.0,.0L.0,10.0" stroke="#333e48" id="shape6" stroke-width="2.7964200973510742" fill="none" transform="translate(294.721000,197.600530)"/><path d="M.0,.0L25.0,.0" stroke="#7d868c" id="shape7" stroke-width="2" fill="none" transform="translate(349.643500,12.989000)"/><path d="M.0,.0L25.0,.0" stroke="#7d868c" id="shape8" stroke-width="2" fill="none" transform="translate(349.643500,467.032000)"/><path stroke-dasharray="3.73688,3.73688" d="M.0,.0L.0,439.1" stroke="#7d868c" id="shape9" stroke-width="1.4947500228881836" fill="none" transform="translate(364.623000,17.979000)"/><path d="M4.3,10.0L2.2,.0L.0,10.0L4.3,10.0z" stroke="#7d868c" id="shape10" fill="#7d868c" stroke-width="0.99650001525878906" transform="translate(362.454490,12.989530)" fill-rule="nonzero"/><path d="M.0,.0L2.2,10.0L4.3,.0L.0,.0z" stroke="#7d868c" id="shape11" fill="#7d868c" stroke-width="0.99650001525878906" transform="translate(362.454490,457.052500)" fill-rule="nonzero"/><path d="M.0,.0L99.9,.0L99.9,34.9L.0,34.9L.0,.0z" stroke="#333e48" id="shape12" fill="#00c1de" stroke-width="1.3333300352096558" transform="translate(244.790900,12.988800)" fill-rule="nonzero"/><path d="M10.0,.0L5.0,10.0L.0,.0L10.0,.0z" stroke="#333e48" id="shape13" fill="#333e48" stroke-width="0.99650001525878906" transform="translate(289.727990,52.905530)" fill-rule="nonzero"/><path d="M.0,.0L.0,10.0" stroke="#333e48" id="shape14" stroke-width="2.7964200973510742" fill="none" transform="translate(294.721000,47.915530)"/><path d="M.0,.0L99.9,.0L99.9,20.0L.0,20.0L.0,.0z" stroke="#333e48" id="shape15" fill="#00c1de" stroke-width="1.3333300352096558" transform="translate(244.790900,62.884060)" fill-rule="nonzero"/><path d="M10.0,.0L5.0,10.0L.0,.0L10.0,.0z" stroke="#333e48" id="shape16" fill="#333e48" stroke-width="0.99650001525878906" transform="translate(304.706990,102.799530)" fill-rule="nonzero"/><path d="M.0,.0L.0,10.0" stroke="#333e48" id="shape17" stroke-width="2.7964200973510742" fill="none" transform="translate(309.700000,97.810530)"/><path d="M.0,.0L69.9,.0L69.9,34.9L.0,34.9L.0,.0z" stroke="#333e48" id="shape18" fill="#00c1de" stroke-width="1.3333300352096558" transform="translate(274.748900,112.778800)" fill-rule="nonzero"/><path d="M.0,.0L.0,64.9" stroke="#333e48" id="shape19" stroke-width="2.7964200973510742" fill="none" transform="translate(259.769000,97.810400)"/><path d="M.0,.0L.0,24.9" stroke="#333e48" id="shape20" stroke-width="2.7964200973510742" fill="none" transform="translate(309.700000,147.705300)"/><path d="M.0,.0L99.9,.0L99.9,20.0L.0,20.0L.0,.0z" stroke="#333e48" id="shape21" fill="#00c1de" stroke-width="1.3333300352096558" transform="translate(244.790900,177.642060)" fill-rule="nonzero"/><path d="M10.0,.0L5.0,10.0L.0,.0L10.0,.0z" stroke="#333e48" id="shape22" fill="#333e48" stroke-width="0.99650001525878906" transform="translate(289.727990,267.452530)" fill-rule="nonzero"/><path d="M.0,.0L.0,10.0" stroke="#333e48" id="shape23" stroke-width="2.7964200973510742" fill="none" transform="translate(294.721000,262.463530)"/><path d="M.0,.0L99.9,.0L99.9,20.0L.0,20.0L.0,.0z" stroke="#333e48" id="shape24" fill="#00c1de" stroke-width="1.3333300352096558" transform="translate(244.790900,277.432060)" fill-rule="nonzero"/><path d="M10.0,.0L5.0,10.0L.0,.0L10.0,.0z" stroke="#333e48" id="shape25" fill="#333e48" stroke-width="0.99650001525878906" transform="translate(289.727990,302.379530)" fill-rule="nonzero"/><path d="M.0,.0L.0,10.0" stroke="#333e48" id="shape26" stroke-width="2.7964200973510742" fill="none" transform="translate(294.721000,297.389530)"/><path d="M.0,.0L99.9,.0L99.9,20.0L.0,20.0L.0,.0z" stroke="#333e48" id="shape27" fill="#ff6b00" stroke-width="1.3333300352096558" transform="translate(244.790900,312.358060)" fill-rule="nonzero"/><path d="M10.0,.0L5.0,10.0L.0,.0L10.0,.0z" stroke="#333e48" id="shape28" fill="#333e48" stroke-width="0.99650001525878906" transform="translate(289.727990,337.305530)" fill-rule="nonzero"/><path d="M.0,.0L.0,10.0" stroke="#333e48" id="shape29" stroke-width="2.7964200973510742" fill="none" transform="translate(294.721000,332.316530)"/><path d="M.0,.0L99.9,.0L99.9,20.0L.0,20.0L.0,.0z" stroke="#333e48" id="shape30" fill="#00c1de" stroke-width="1.3333300352096558" transform="translate(244.790900,347.284060)" fill-rule="nonzero"/><path d="M.0,.0L25.0,.0" stroke="#7d868c" id="shape31" stroke-width="2" fill="none" transform="translate(95.000500,162.674000)"/><path d="M.0,.0L25.0,.0" stroke="#7d868c" id="shape32" stroke-width="2" fill="none" transform="translate(95.000500,262.463000)"/><path stroke-dasharray="3.73688,3.73688" d="M.0,.0L.0,89.8" stroke="#7d868c" id="shape33" stroke-width="1.4947500228881836" fill="none" transform="translate(109.979000,167.663700)"/><path d="M4.3,10.0L2.2,.0L.0,10.0L4.3,10.0z" stroke="#7d868c" id="shape34" fill="#7d868c" stroke-width="0.99650001525878906" transform="translate(107.810490,162.673530)" fill-rule="nonzero"/><path d="M.0,.0L2.2,10.0L4.3,.0L.0,.0z" stroke="#7d868c" id="shape35" fill="#7d868c" stroke-width="0.99650001525878906" transform="translate(107.810490,252.484500)" fill-rule="nonzero"/><g id="group36" transform="matrix(0.965926,-0.258819,0.258819,0.965926,232.723462,122.969339)"><path d="M5.1,2.5C5.1,3.8,3.9,5.0,2.5,5.0C1.1,5.0,.0,3.8,.0,2.5C.0,1.1,1.1,.0,2.5,.0C3.9,.0,5.1,1.1,5.1,2.5z" id="shape37" fill="#333e48" transform="translate(74.883170,0.000000)" fill-rule="nonzero"/><path d="M77.4,.0L.0,2.3" stroke-dasharray="3.73688,3.73688" stroke="#333e48" id="shape38" fill="#333e48" stroke-width="1.4947500228881836" transform="translate(0.000000,2.225160)" fill-rule="nonzero"/></g><path d="M.0,.0L.0,15.0" stroke="#333e48" id="shape39" stroke-width="2.7964200973510742" fill="none" transform="translate(294.721000,82.841790)"/><path d="M.0,.0L49.9,.0" stroke="#333e48" id="shape40" stroke-width="2.7961800098419189" stroke-linecap="square" fill="none" transform="translate(259.770000,97.810000)"/><g id="group41" transform="translate(337.214900,115.543890)"><path d="M.0,2.5C.0,3.8,1.1,5.0,2.5,5.0C3.8,5.0,4.9,3.8,4.9,2.5C4.9,1.1,3.8,.0,2.5,.0C1.1,.0,.0,1.1,.0,2.5z" id="shape42" fill="#333e48" fill-rule="nonzero"/><path d="M.0,.0L44.9,9.0" stroke-dasharray="3.73688,3.73688" stroke="#333e48" id="shape43" fill="#333e48" stroke-width="1.4947500228881836" transform="translate(2.443100,2.225150)" fill-rule="nonzero"/></g><g id="group44" transform="translate(337.214900,140.490850)"><path d="M.0,2.5C.0,3.8,1.1,5.0,2.5,5.0C3.8,5.0,4.9,3.8,4.9,2.5C4.9,1.1,3.8,.0,2.5,.0C1.1,.0,.0,1.1,.0,2.5z" id="shape45" fill="#333e48" fill-rule="nonzero"/><path d="M.0,.0L44.9,8.0" stroke-dasharray="3.73688,3.73688" stroke="#333e48" id="shape46" fill="#333e48" stroke-width="1.4947500228881836" transform="translate(2.443200,2.225160)" fill-rule="nonzero"/></g><g id="group47" transform="translate(337.567400,172.653250)"><path d="M.0,2.5C.0,3.8,1.1,5.0,2.5,5.0C3.8,5.0,4.9,3.8,4.9,2.5C4.9,1.1,3.8,.0,2.5,.0C1.1,.0,.0,1.1,.0,2.5z" id="shape48" fill="#333e48" transform="translate(0.000000,7.753760)" fill-rule="nonzero"/><path d="M.0,10.0L44.6,.0" stroke-dasharray="3.73688,3.73688" stroke="#333e48" id="shape49" fill="#333e48" stroke-width="1.4947500228881836" transform="translate(2.443200,0.000000)" fill-rule="nonzero"/></g><g id="group50" transform="translate(291.879300,203.065900)"><path d="M.0,2.5C.0,3.8,1.1,5.0,2.5,5.0C3.8,5.0,4.9,3.8,4.9,2.5C4.9,1.1,3.8,.0,2.5,.0C1.1,.0,.0,1.1,.0,2.5z" id="shape51" fill="#333e48" fill-rule="nonzero"/><path d="M.0,.0L89.9,17.8" stroke-dasharray="3.73688,3.73688" stroke="#333e48" id="shape52" fill="#333e48" stroke-width="1.4947500228881836" transform="translate(2.443100,2.225190)" fill-rule="nonzero"/></g><g id="group53" transform="translate(119.258800,203.607300)"><path d="M.0,2.5C.0,3.8,1.1,5.0,2.5,5.0C3.8,5.0,4.9,3.8,4.9,2.5C4.9,1.1,3.8,.0,2.5,.0C1.1,.0,.0,1.1,.0,2.5z" id="shape54" fill="#333e48" transform="translate(53.186020,0.000000)" fill-rule="nonzero"/><path d="M55.6,.0L.0,77.3" stroke-dasharray="3.73688,3.73688" stroke="#333e48" id="shape55" fill="#333e48" stroke-width="1.4947500228881836" transform="translate(0.000000,2.225100)" fill-rule="nonzero"/></g><g id="group56" transform="translate(337.214900,352.274130)"><path d="M.0,2.5C.0,3.8,1.1,5.0,2.5,5.0C3.8,5.0,4.9,3.8,4.9,2.5C4.9,1.1,3.8,.0,2.5,.0C1.1,.0,.0,1.1,.0,2.5z" id="shape57" fill="#333e48" transform="translate(0.000000,2.472050)" fill-rule="nonzero"/><path d="M.0,4.7L44.9,.0" stroke-dasharray="3.73688,3.73688" stroke="#333e48" id="shape58" fill="#333e48" stroke-width="1.4947500228881836" transform="translate(2.443200,0.000000)" fill-rule="nonzero"/></g><path d="M10.0,.0L5.0,10.0L.0,.0L10.0,.0z" stroke="#333e48" id="shape59" fill="#333e48" stroke-width="0.99650001525878906" transform="translate(289.727990,372.231530)" fill-rule="nonzero"/><path d="M.0,.0L.0,10.0" stroke="#333e48" id="shape60" stroke-width="2.7964200973510742" fill="none" transform="translate(294.721000,367.242530)"/><path d="M.0,.0L99.9,.0L99.9,34.9L.0,34.9L.0,.0z" stroke="#333e48" id="shape61" fill="#00c1de" stroke-width="1.3333300352096558" transform="translate(244.790900,382.210800)" fill-rule="nonzero"/><g id="group62" transform="translate(337.214900,253.253100)"><path d="M.0,2.5C.0,3.8,1.1,5.0,2.5,5.0C3.8,5.0,4.9,3.8,4.9,2.5C4.9,1.1,3.8,.0,2.5,.0C1.1,.0,.0,1.1,.0,2.5z" id="shape63" fill="#333e48" fill-rule="nonzero"/><path d="M.0,.0L44.9,31.9" stroke-dasharray="3.73688,3.73688" stroke="#333e48" id="shape64" fill="#333e48" stroke-width="1.4947500228881836" transform="translate(2.443200,2.225200)" fill-rule="nonzero"/></g><path d="M.0,2.5C.0,3.8,1.1,5.0,2.5,5.0C3.8,5.0,4.9,3.8,4.9,2.5C4.9,1.1,3.8,.0,2.5,.0C1.1,.0,.0,1.1,.0,2.5z" id="shape65" fill="#333e48" transform="translate(337.566820,190.386160)" fill-rule="nonzero"/><path stroke-dasharray="3.73688,3.73688" d="M.0,.0L44.6,.0" stroke="#333e48" id="shape66" stroke-width="1.4947500228881836" fill="none" transform="translate(340.011000,192.611000)"/><path d="M.0,2.5C.0,3.8,1.1,5.0,2.5,5.0C3.8,5.0,4.9,3.8,4.9,2.5C4.9,1.1,3.8,.0,2.5,.0C1.1,.0,.0,1.1,.0,2.5z" id="shape67" fill="#333e48" transform="translate(337.214820,396.950160)" fill-rule="nonzero"/><path d="M.0,7.0L44.9,.0" stroke-dasharray="3.73688,3.73688" stroke="#333e48" id="shape68" fill="#333e48" stroke-width="1.4947500228881836" transform="translate(339.657500,392.189360)" fill-rule="nonzero"/><path d="M.0,.0L49.9,.0" stroke="#333e48" id="shape69" stroke-width="2.7961800098419189" stroke-linecap="square" fill="none" transform="translate(259.770000,162.674000)"/><path d="M10.0,.0L5.0,10.0L.0,.0L10.0,.0z" stroke="#333e48" id="shape70" fill="#333e48" stroke-width="0.99650001525878906" transform="translate(304.706990,167.663530)" fill-rule="nonzero"/><path d="M.0,.0L89.9,38.0" stroke-dasharray="3.73688,3.73688" stroke="#333e48" id="shape71" fill="#333e48" stroke-width="1.4947500228881836" transform="translate(294.720900,205.084200)" fill-rule="nonzero"/><path d="M10.0,.0L5.0,10.0L.0,.0L10.0,.0z" stroke="#333e48" id="shape72" fill="#333e48" stroke-width="0.99650001525878906" transform="translate(289.727990,422.126530)" fill-rule="nonzero"/><path d="M.0,.0L.0,10.0" stroke="#333e48" id="shape73" stroke-width="2.7964200973510742" fill="none" transform="translate(294.721000,417.137530)"/><path d="M.0,.0L99.9,.0L99.9,34.9L.0,34.9L.0,.0z" stroke="#333e48" id="shape74" fill="#00c1de" stroke-width="1.3333300352096558" transform="translate(244.790900,432.105800)" fill-rule="nonzero"/><path d="M10.0,.0L5.0,10.0L.0,.0L10.0,.0z" stroke="#333e48" id="shape75" fill="#333e48" stroke-width="0.99650001525878906" transform="translate(289.727990,472.021530)" fill-rule="nonzero"/><path d="M.0,.0L.0,10.0" stroke="#333e48" id="shape76" stroke-width="2.7964200973510742" fill="none" transform="translate(294.721000,467.031530)"/><path d="M.0,2.5C.0,3.8,1.1,5.0,2.5,5.0C3.8,5.0,4.9,3.8,4.9,2.5C4.9,1.1,3.8,.0,2.5,.0C1.1,.0,.0,1.1,.0,2.5z" id="shape77" fill="#333e48" transform="translate(292.277820,472.291160)" fill-rule="nonzero"/><path d="M.0,2.5L89.9,.0" stroke-dasharray="3.73688,3.73688" stroke="#333e48" id="shape78" fill="#333e48" stroke-width="1.4947500228881836" transform="translate(294.720900,472.021630)" fill-rule="nonzero"/><g id="shape79" transform="translate(244.790900,10.988900)"><text xml:space="preserve" style="fill:#ffffff;font-family:Lato,PingFang SC,Mircrosoft YaHei,Arial;font-size:20px"><tspan textLength="49.0" x="26.9" y="17.7" style="font-size:13px">Polygon </tspan><tspan textLength="65.0" x="17.4" y="30.5" style="font-size:13px">List Reader</tspan></text></g><g id="shape80" transform="translate(244.790200,55.384000)"><text xml:space="preserve" style="fill:#ffffff;font-family:Lato,PingFang SC,Mircrosoft YaHei,Arial;font-size:20px"><tspan textLength="59.0" x="20.1" y="21.2" style="font-size:13px">Rasterizer</tspan></text></g><g id="shape81" transform="translate(275.399000,106.634000)"><text xml:space="preserve" style="fill:#ffffff;font-family:Lato,PingFang SC,Mircrosoft YaHei,Arial;font-size:20px"><tspan textLength="30.0" x="20.0" y="21.3" style="font-size:13px">Early</tspan><tspan textLength="42.0" x="14.0" y="34.1" style="font-size:13px">ZS Test</tspan></text></g><g id="shape82" transform="translate(124.957200,157.673000)"><text xml:space="preserve" style="fill:#ffffff;font-family:Lato,PingFang SC,Mircrosoft YaHei,Arial;font-size:20px"><tspan textLength="52.0" x="23.6" y="21.3" style="font-size:13px">Non-frag</tspan><tspan textLength="57.0" x="21.1" y="34.1" style="font-size:13px">Front-end</tspan></text></g><g id="shape83" transform="translate(244.790200,170.142000)"><text xml:space="preserve" style="fill:#ffffff;font-family:Lato,PingFang SC,Mircrosoft YaHei,Arial;font-size:20px"><tspan textLength="62.0" x="18.6" y="21.6" style="font-size:13px">FPK Buffer</tspan></text></g><g id="shape84" transform="translate(125.783000,212.568600)"><text xml:space="preserve" style="fill:#ffffff;font-family:Lato,PingFang SC,Mircrosoft YaHei,Arial;font-size:20px"><tspan textLength="56.0" x="81.8" y="25.2" style="font-size:13px">Execution</tspan><tspan textLength="28.0" x="95.8" y="38.0" style="font-size:13px">Core</tspan></text></g><g id="shape85" transform="translate(244.790200,269.932000)"><text xml:space="preserve" style="fill:#ffffff;font-family:Lato,PingFang SC,Mircrosoft YaHei,Arial;font-size:20px"><tspan textLength="44.0" x="27.6" y="21.2" style="font-size:13px">Blender</tspan></text></g><g id="shape86" transform="translate(243.276200,304.858000)"><text xml:space="preserve" style="fill:#ffffff;font-family:Lato,PingFang SC,Mircrosoft YaHei,Arial;font-size:20px"><tspan textLength="53.0" x="23.1" y="21.2" style="font-size:13px">Tile RAM</tspan></text></g><g id="shape87" transform="translate(245.116200,339.784000)"><text xml:space="preserve" style="fill:#ffffff;font-family:Lato,PingFang SC,Mircrosoft YaHei,Arial;font-size:20px"><tspan textLength="54.0" x="22.6" y="21.6" style="font-size:13px">Tile write</tspan></text></g><g id="shape88" transform="translate(245.132200,377.058000)"><text xml:space="preserve" style="fill:#ffffff;font-family:Lato,PingFang SC,Mircrosoft YaHei,Arial;font-size:20px"><tspan textLength="67.0" x="16.1" y="21.3" style="font-size:13px">Transaction</tspan><tspan textLength="64.0" x="17.6" y="34.1" style="font-size:13px">Elimination</tspan></text></g><g id="shape89" transform="translate(244.790200,425.605400)"><text xml:space="preserve" style="fill:#ffffff;font-family:Lato,PingFang SC,Mircrosoft YaHei,Arial;font-size:20px"><tspan textLength="71.0" x="14.1" y="21.2" style="font-size:13px">Framebuffer</tspan><tspan textLength="75.0" x="12.1" y="34.0" style="font-size:13px">Compression</tspan></text></g><g id="shape90" transform="translate(106.699800,73.562000)"><text xml:space="preserve" style="fill:#333e48;font-family:Lato,PingFang SC,Mircrosoft YaHei,Arial;font-size:16px"><tspan textLength="83.0" x="39.1" y="15.0" style="font-size:11px">Quads rasterized</tspan></text></g><g id="shape91" transform="translate(73.713800,114.778000)"><text xml:space="preserve" style="fill:#333e48;font-family:Lato,PingFang SC,Mircrosoft YaHei,Arial;font-size:16px"><tspan textLength="109.0" x="46.1" y="15.0" style="font-size:11px">Quads early-ZS tested</tspan></text></g><g id="shape92" transform="translate(11.000000,277.432000)"><text xml:space="preserve" style="fill:#333e48;font-family:Lato,PingFang SC,Mircrosoft YaHei,Arial;font-size:16px"><tspan textLength="100.0" x="4.0" y="15.0" style="font-size:11px">Non-fragment warps</tspan></text></g><g id="shape93" transform="translate(384.000000,139.673000)"><text xml:space="preserve" style="fill:#333e48;font-family:Lato,PingFang SC,Mircrosoft YaHei,Arial;font-size:16px"><tspan textLength="105.0" x="4.0" y="15.0" style="font-size:11px">Quads early-ZS killed</tspan></text></g><g id="shape94" transform="matrix(0.000000,-1.000000,1.000000,0.000000,87.979000,256.361700)"><text xml:space="preserve" style="fill:#333e48;font-family:Lato,PingFang SC,Mircrosoft YaHei,Arial;font-size:16px"><tspan textLength="75.0" x="4.3" y="15.0" style="font-size:11px">Non-frag active</tspan></text></g><g id="shape95" transform="translate(384.000000,161.153000)"><text xml:space="preserve" style="fill:#333e48;font-family:Lato,PingFang SC,Mircrosoft YaHei,Arial;font-size:16px"><tspan textLength="83.0" x="4.0" y="15.0" style="font-size:11px">FPK buffer active</tspan></text></g><g id="shape96" transform="matrix(0.000000,-1.000000,1.000000,0.000000,364.623000,109.405000)"><text xml:space="preserve" style="fill:#333e48;font-family:Lato,PingFang SC,Mircrosoft YaHei,Arial;font-size:16px"><tspan textLength="78.0" x="4.0" y="15.0" style="font-size:11px">Fragment active</tspan></text></g><g id="shape97" transform="translate(384.000000,181.365000)"><text xml:space="preserve" style="fill:#333e48;font-family:Lato,PingFang SC,Mircrosoft YaHei,Arial;font-size:16px"><tspan textLength="83.0" x="4.0" y="15.0" style="font-size:11px">Quads FPK killed</tspan></text></g><g id="shape98" transform="translate(384.000000,212.568000)"><text xml:space="preserve" style="fill:#333e48;font-family:Lato,PingFang SC,Mircrosoft YaHei,Arial;font-size:16px"><tspan textLength="78.0" x="4.0" y="15.0" style="font-size:11px">Fragment warps</tspan></text></g><g id="shape99" transform="translate(384.000000,233.474000)"><text xml:space="preserve" style="fill:#333e48;font-family:Lato,PingFang SC,Mircrosoft YaHei,Arial;font-size:16px"><tspan textLength="49.0" x="4.0" y="15.0" style="font-size:11px">Full warps</tspan></text></g><g id="shape100" transform="translate(384.000000,276.048000)"><text xml:space="preserve" style="fill:#333e48;font-family:Lato,PingFang SC,Mircrosoft YaHei,Arial;font-size:16px"><tspan textLength="101.0" x="4.0" y="15.0" style="font-size:11px">Execution core active</tspan></text></g><g id="shape101" transform="translate(384.000000,339.784000)"><text xml:space="preserve" style="fill:#333e48;font-family:Lato,PingFang SC,Mircrosoft YaHei,Arial;font-size:16px"><tspan textLength="70.0" x="4.0" y="15.0" style="font-size:11px">Fragment tiles</tspan></text></g><g id="shape102" transform="translate(384.000000,380.907000)"><text xml:space="preserve" style="fill:#333e48;font-family:Lato,PingFang SC,Mircrosoft YaHei,Arial;font-size:16px"><tspan textLength="107.0" x="4.0" y="15.0" style="font-size:11px">Unchanged tiles killed</tspan></text></g><g id="shape103" transform="translate(383.999900,460.521000)"><text xml:space="preserve" style="fill:#333e48;font-family:Lato,PingFang SC,Mircrosoft YaHei,Arial;font-size:16px"><tspan textLength="74.0" x="4.4" y="15.0" style="font-size:11px">Tile write bytes</tspan></text></g><g id="group104" transform="translate(233.805400,85.842050)"><path d="M4.9,2.5C4.9,3.8,3.8,5.0,2.5,5.0C1.1,5.0,.0,3.8,.0,2.5C.0,1.1,1.1,.0,2.5,.0C3.8,.0,4.9,1.1,4.9,2.5z" id="shape105" fill="#333e48" transform="translate(57.440920,3.762220)" fill-rule="nonzero"/><path d="M59.9,6.0L.0,.0" stroke-dasharray="3.73688,3.73688" stroke="#333e48" id="shape106" fill="#333e48" stroke-width="1.4947500228881836" fill-rule="nonzero"/></g><g id="group107" transform="translate(233.839500,95.595740)"><path d="M4.9,2.5C4.9,3.8,3.8,5.0,2.5,5.0C1.1,5.0,.0,3.8,.0,2.5C.0,1.1,1.1,.0,2.5,.0C3.8,.0,4.9,1.1,4.9,2.5z" id="shape108" fill="#333e48" transform="translate(57.690520,0.000000)" fill-rule="nonzero"/><path d="M60.2,.0L.0,6.0" stroke-dasharray="3.73688,3.73688" stroke="#333e48" id="shape109" fill="#333e48" stroke-width="1.4947500228881836" transform="translate(0.000000,2.225160)" fill-rule="nonzero"/></g><g id="shape110" transform="translate(95.000200,91.300000)"><text xml:space="preserve" style="fill:#333e48;font-family:Lato,PingFang SC,Mircrosoft YaHei,Arial;font-size:16px"><tspan textLength="114.0" x="20.0" y="15.0" style="font-size:11px">Partial quads rasterized</tspan></text></g><g id="shape111" transform="translate(384.595000,115.544000)"><text xml:space="preserve" style="fill:#333e48;font-family:Lato,PingFang SC,Mircrosoft YaHei,Arial;font-size:16px"><tspan textLength="118.0" x="4.0" y="15.0" style="font-size:11px">Quads early-ZS updated</tspan></text></g></g></svg>