<svg width="498" viewBox="0 0 498 547" xmlns:ev="http://www.w3.org/2001/xml-events" xmlns="http://www.w3.org/2000/svg" height="547" xmlns:xlink="http://www.w3.org/1999/xlink"><defs/><g id="page1" transform="translate(5.5,5.5)"><rect width="488" x="0" fill="#ffffff" y="0" height="537"/><path d="M.0,.0L394.6,.0L394.6,154.8L.0,154.8L.0,.0z" stroke="#333e48" id="shape1" fill="#e5eceb" stroke-width="1.3333300352096558" transform="translate(55.172000,184.143000)" fill-rule="nonzero"/><path stroke-dasharray="3.74278,3.74278" d="M.0,192.1L20.7,20.1L20.8,.0" stroke="#333e48" id="shape2" stroke-width="1.4971100091934204" fill="none" transform="translate(256.661000,143.502100)"/><path stroke-dasharray="3.74278,3.74278" d="M.0,249.1L47.1,60.5L47.0,.0" stroke="#333e48" id="shape3" stroke-width="1.4971100091934204" fill="none" transform="translate(229.162800,49.722000)"/><path d="M.0,.0L20.0,.0" stroke="#7d868c" id="shape4" stroke-width="2.8005900382995605" fill="none" transform="translate(139.229410,203.909000)"/><path d="M.0,.0L134.9,.0" stroke="#7d868c" id="shape5" stroke-width="2.8005900382995605" fill="none" transform="translate(139.229100,218.891000)"/><path d="M.0,.0L74.9,.0L74.9,35.0L.0,35.0L.0,.0z" stroke="#333e48" id="shape6" fill="#11809f" stroke-width="1.3333300352096558" transform="translate(64.284800,193.920800)" fill-rule="nonzero"/><path d="M10.0,.0L5.0,10.0L.0,.0L10.0,.0z" stroke="#333e48" id="shape7" fill="#333e48" stroke-width="0.99807202816009521" transform="translate(194.188710,262.125940)" fill-rule="nonzero"/><path d="M.0,.0L.0,10.0" stroke="#333e48" id="shape8" stroke-width="2.8008298873901367" fill="none" transform="translate(199.185000,228.878940)"/><path d="M.0,.0L209.2,.0L209.2,64.3L.0,64.3L.0,.0z" stroke="#333e48" id="shape9" fill="#11809f" stroke-width="2.188960075378418" transform="translate(159.877000,194.582600)" fill-rule="nonzero"/><path d="M.0,.0L60.0,.0L60.0,35.0L.0,35.0L.0,.0z" stroke="#333e48" id="shape10" fill="#ff6b00" stroke-width="1.3333300352096558" transform="translate(64.285300,293.801800)" fill-rule="nonzero"/><path d="M.0,.0L79.9,.0L79.9,35.0L.0,35.0L.0,.0z" stroke="#333e48" id="shape11" fill="#ff6b00" stroke-width="1.3333300352096558" transform="translate(134.233700,293.801800)" fill-rule="nonzero"/><path d="M.0,.0L65.0,.0L65.0,35.0L.0,35.0L.0,.0z" stroke="#333e48" id="shape12" fill="#ffc700" stroke-width="1.3333300352096558" transform="translate(224.166100,293.801800)" fill-rule="nonzero"/><path d="M.0,.0L60.0,.0L60.0,35.0L.0,35.0L.0,.0z" stroke="#333e48" id="shape13" fill="#7d868c" stroke-width="1.3333300352096558" transform="translate(299.111200,293.801800)" fill-rule="nonzero"/><path d="M.0,.0L69.9,.0L69.9,35.0L.0,35.0L.0,.0z" stroke="#333e48" id="shape14" fill="#7d868c" stroke-width="1.3333300352096558" transform="translate(369.059000,293.801800)" fill-rule="nonzero"/><path d="M10.0,.0L5.0,10.0L.0,.0L10.0,.0z" stroke="#333e48" id="shape15" fill="#333e48" stroke-width="0.99807202816009521" transform="translate(309.103710,262.125940)" fill-rule="nonzero"/><path d="M10.0,.0L5.0,10.0L.0,.0L10.0,.0z" stroke="#333e48" id="shape16" fill="#333e48" stroke-width="0.99807202816009521" transform="translate(89.266710,283.813940)" fill-rule="nonzero"/><path d="M.0,.0L.0,10.0" stroke="#333e48" id="shape17" stroke-width="2.8008298873901367" fill="none" transform="translate(94.263000,278.819940)"/><path d="M10.0,.0L5.0,10.0L.0,.0L10.0,.0z" stroke="#333e48" id="shape18" fill="#333e48" stroke-width="0.99807202816009521" transform="translate(169.207710,283.813940)" fill-rule="nonzero"/><path d="M.0,.0L.0,10.0" stroke="#333e48" id="shape19" stroke-width="2.8008298873901367" fill="none" transform="translate(174.204000,278.819940)"/><path d="M10.0,.0L5.0,10.0L.0,.0L10.0,.0z" stroke="#333e48" id="shape20" fill="#333e48" stroke-width="0.99807202816009521" transform="translate(252.145710,283.813940)" fill-rule="nonzero"/><path d="M.0,.0L.0,10.0" stroke="#333e48" id="shape21" stroke-width="2.8008298873901367" fill="none" transform="translate(257.142000,278.819940)"/><path d="M10.0,.0L5.0,10.0L.0,.0L10.0,.0z" stroke="#333e48" id="shape22" fill="#333e48" stroke-width="0.99807202816009521" transform="translate(324.092710,283.813940)" fill-rule="nonzero"/><path d="M.0,.0L.0,10.0" stroke="#333e48" id="shape23" stroke-width="2.8008298873901367" fill="none" transform="translate(329.089000,278.819940)"/><path d="M10.0,.0L5.0,10.0L.0,.0L10.0,.0z" stroke="#333e48" id="shape24" fill="#333e48" stroke-width="0.99807202816009521" transform="translate(399.036710,283.813940)" fill-rule="nonzero"/><path d="M.0,.0L.0,10.0" stroke="#333e48" id="shape25" stroke-width="2.8008298873901367" fill="none" transform="translate(404.033000,278.819940)"/><path d="M.0,.0L349.7,.0" stroke="#333e48" id="shape26" stroke-width="4.9963498115539551" fill="none" transform="translate(74.278000,276.537000)"/><path d="M.0,.0L74.9,.0L74.9,20.0L.0,20.0L.0,.0z" stroke="#7d868c" id="shape27" fill="#e5eceb" stroke-width="1.3333300352096558" transform="translate(64.284800,153.968860)" fill-rule="nonzero"/><path d="M10.0,.0L5.0,10.0L.0,.0L10.0,.0z" stroke="#333e48" id="shape28" fill="#333e48" stroke-width="0.99807202816009521" transform="translate(101.757710,183.932940)" fill-rule="nonzero"/><path d="M.0,.0L.0,15.0" stroke="#333e48" id="shape29" stroke-width="2.8008298873901367" fill="none" transform="translate(106.754000,173.944900)"/><path d="M.0,.0L69.9,.0L69.9,35.0L.0,35.0L.0,.0z" stroke="#7d868c" id="shape30" fill="#e5eceb" stroke-width="1.3333300352096558" transform="translate(367.294000,348.736800)" fill-rule="nonzero"/><path d="M10.0,.0L5.0,10.0L.0,.0L10.0,.0z" stroke="#333e48" id="shape31" fill="#333e48" stroke-width="0.99807202816009521" transform="translate(399.036710,338.748940)" fill-rule="nonzero"/><path d="M.0,.0L.0,15.0" stroke="#333e48" id="shape32" stroke-width="2.8008298873901367" fill="none" transform="translate(404.033000,328.760900)"/><path d="M.0,2.5C.0,1.1,1.1,.0,2.5,.0C3.8,.0,4.9,1.1,4.9,2.5C4.9,3.9,3.8,5.0,2.5,5.0C1.1,5.0,.0,3.9,.0,2.5z" id="shape33" fill="#333e48" transform="translate(66.873200,321.442880)" fill-rule="nonzero"/><path d="M10.0,10.0L5.0,.0L.0,10.0L10.0,10.0z" stroke="#333e48" id="shape34" fill="#333e48" stroke-width="0.99807202816009521" transform="translate(252.145710,328.760940)" fill-rule="nonzero"/><path d="M.0,.0L.0,15.0" stroke="#333e48" id="shape35" stroke-width="2.8008298873901367" fill="none" transform="translate(257.142000,333.754900)"/><path d="M10.0,10.0L5.0,.0L.0,10.0L10.0,10.0z" stroke="#333e48" id="shape36" fill="#333e48" stroke-width="0.99807202816009521" transform="translate(159.214710,328.760940)" fill-rule="nonzero"/><path d="M.0,.0L.0,15.0" stroke="#333e48" id="shape37" stroke-width="2.8008298873901367" fill="none" transform="translate(164.211000,333.754900)"/><g id="group38" transform="translate(179.199710,328.760870)"><path d="M10.0,.0L5.0,10.0L.0,.0L10.0,.0z" stroke="#333e48" id="shape39" fill="#333e48" stroke-width="0.99807202816009521" transform="translate(0.000000,9.988140)" fill-rule="nonzero"/><path d="M.0,15.0L.0,.0" stroke="#333e48" id="shape40" stroke-width="2.8008298873901367" fill="none" transform="translate(4.996290,0.000000)"/></g><path stroke-dasharray="3.74278,3.74278" d="M56.0,.0L.2,49.9L.0,99.9" stroke="#333e48" id="shape41" stroke-width="1.4971100091934204" fill="none" transform="translate(13.322800,323.766400)"/><path d="M.0,2.5C.0,1.1,1.1,.0,2.5,.0C3.8,.0,4.9,1.1,4.9,2.5C4.9,3.9,3.8,5.0,2.5,5.0C1.1,5.0,.0,3.9,.0,2.5z" id="shape42" fill="#333e48" transform="translate(10.824200,381.311880)" fill-rule="nonzero"/><path d="M.0,2.5C.0,1.1,1.1,.0,2.5,.0C3.8,.0,4.9,1.1,4.9,2.5C4.9,3.9,3.8,5.0,2.5,5.0C1.1,5.0,.0,3.9,.0,2.5z" id="shape43" fill="#333e48" transform="translate(10.824200,401.213880)" fill-rule="nonzero"/><path d="M.0,2.5C.0,1.1,1.1,.0,2.5,.0C3.8,.0,4.9,1.1,4.9,2.5C4.9,3.9,3.8,5.0,2.5,5.0C1.1,5.0,.0,3.9,.0,2.5z" id="shape44" fill="#333e48" transform="translate(10.975200,421.215880)" fill-rule="nonzero"/><path d="M.0,2.5C.0,1.1,1.1,.0,2.5,.0C3.8,.0,4.9,1.1,4.9,2.5C4.9,3.9,3.8,5.0,2.5,5.0C1.1,5.0,.0,3.9,.0,2.5z" id="shape45" fill="#333e48" transform="translate(136.907200,321.264880)" fill-rule="nonzero"/><path stroke-dasharray="3.74278,3.74278" d="M.0,.0L35.3,91.5L35.8,191.6" stroke="#333e48" id="shape46" stroke-width="1.4971100091934204" fill="none" transform="translate(139.264400,323.766200)"/><path d="M.0,2.5C.0,1.1,1.1,.0,2.5,.0C3.8,.0,4.9,1.1,4.9,2.5C4.9,3.9,3.8,5.0,2.5,5.0C1.1,5.0,.0,3.9,.0,2.5z" id="shape47" fill="#333e48" transform="translate(172.553200,412.778880)" fill-rule="nonzero"/><path d="M.0,2.5C.0,1.1,1.1,.0,2.5,.0C3.8,.0,4.9,1.1,4.9,2.5C4.9,3.9,3.8,5.0,2.5,5.0C1.1,5.0,.0,3.9,.0,2.5z" id="shape48" fill="#333e48" transform="translate(172.704200,432.956880)" fill-rule="nonzero"/><path d="M.0,2.5C.0,1.1,1.1,.0,2.5,.0C3.8,.0,4.9,1.1,4.9,2.5C4.9,3.9,3.8,5.0,2.5,5.0C1.1,5.0,.0,3.9,.0,2.5z" id="shape49" fill="#333e48" transform="translate(172.704200,452.858880)" fill-rule="nonzero"/><path d="M.0,2.5C.0,1.1,1.1,.0,2.5,.0C3.8,.0,4.9,1.1,4.9,2.5C4.9,3.9,3.8,5.0,2.5,5.0C1.1,5.0,.0,3.9,.0,2.5z" id="shape50" fill="#333e48" transform="translate(172.855200,472.861880)" fill-rule="nonzero"/><path d="M.0,2.5C.0,1.1,1.1,.0,2.5,.0C3.8,.0,4.9,1.1,4.9,2.5C4.9,3.9,3.8,5.0,2.5,5.0C1.1,5.0,.0,3.9,.0,2.5z" id="shape51" fill="#333e48" transform="translate(172.704200,492.811880)" fill-rule="nonzero"/><path d="M.0,2.5C.0,1.1,1.1,.0,2.5,.0C3.8,.0,4.9,1.1,4.9,2.5C4.9,3.9,3.8,5.0,2.5,5.0C1.1,5.0,.0,3.9,.0,2.5z" id="shape52" fill="#333e48" transform="translate(172.855200,512.813880)" fill-rule="nonzero"/><path d="M4.9,2.5C4.9,1.1,3.8,.0,2.5,.0C1.1,.0,.0,1.1,.0,2.5C.0,3.9,1.1,5.0,2.5,5.0C3.8,5.0,4.9,3.9,4.9,2.5z" id="shape53" fill="#333e48" transform="translate(161.684200,331.870880)" fill-rule="nonzero"/><path stroke-dasharray="3.74278,3.74278" d="M.0,.0L156.5,115.6L156.5,136.7" stroke="#333e48" id="shape54" stroke-width="1.4971100091934204" fill="none" transform="translate(161.850000,333.755000)"/><path d="M4.9,2.5C4.9,1.1,3.8,.0,2.5,.0C1.1,.0,.0,1.1,.0,2.5C.0,3.9,1.1,5.0,2.5,5.0C3.8,5.0,4.9,3.9,4.9,2.5z" id="shape55" fill="#333e48" transform="translate(316.145200,447.098880)" fill-rule="nonzero"/><path d="M4.9,2.5C4.9,1.1,3.8,.0,2.5,.0C1.1,.0,.0,1.1,.0,2.5C.0,3.9,1.1,5.0,2.5,5.0C3.8,5.0,4.9,3.9,4.9,2.5z" id="shape56" fill="#333e48" transform="translate(315.995200,467.277880)" fill-rule="nonzero"/><path d="M4.9,2.5C4.9,1.1,3.8,.0,2.5,.0C1.1,.0,.0,1.1,.0,2.5C.0,3.9,1.1,5.0,2.5,5.0C3.8,5.0,4.9,3.9,4.9,2.5z" id="shape57" fill="#333e48" transform="translate(181.670200,339.861880)" fill-rule="nonzero"/><path stroke-dasharray="3.74278,3.74278" d="M.0,.0L77.4,33.2" stroke="#333e48" id="shape58" stroke-width="1.4971100091934204" fill="none" transform="translate(184.999800,342.162200)"/><path d="M4.9,2.4C4.9,1.1,3.8,.0,2.5,.0C1.1,.0,.0,1.1,.0,2.4C.0,3.7,1.1,4.7,2.5,4.7C3.8,4.7,4.9,3.7,4.9,2.4z" id="shape59" fill="#333e48" transform="translate(351.541200,321.309730)" fill-rule="nonzero"/><path stroke-dasharray="3.74278,3.74278" d="M.0,.0L10.0,76.0L9.6,95.7" stroke="#333e48" id="shape60" stroke-width="1.4971100091934204" fill="none" transform="translate(354.070400,323.413000)"/><path d="M4.9,2.5C4.9,1.1,3.8,.0,2.5,.0C1.1,.0,.0,1.1,.0,2.5C.0,3.9,1.1,5.0,2.5,5.0C3.8,5.0,4.9,3.9,4.9,2.5z" id="shape61" fill="#333e48" transform="translate(361.719200,396.536880)" fill-rule="nonzero"/><path d="M4.9,2.5C4.9,1.1,3.8,.0,2.5,.0C1.1,.0,.0,1.1,.0,2.5C.0,3.9,1.1,5.0,2.5,5.0C3.8,5.0,4.9,3.9,4.9,2.5z" id="shape62" fill="#333e48" transform="translate(361.569200,416.538880)" fill-rule="nonzero"/><path d="M4.9,2.5C4.9,3.9,3.8,5.0,2.5,5.0C1.1,5.0,.0,3.9,.0,2.5C.0,1.1,1.1,.0,2.5,.0C3.8,.0,4.9,1.1,4.9,2.5z" id="shape63" fill="#333e48" transform="translate(227.055200,296.279880)" fill-rule="nonzero"/><path d="M.0,2.5C.0,3.9,1.1,5.0,2.5,5.0C3.8,5.0,4.9,3.9,4.9,2.5C4.9,1.1,3.8,.0,2.5,.0C1.1,.0,.0,1.1,.0,2.5z" id="shape64" fill="#333e48" transform="translate(161.850200,196.359880)" fill-rule="nonzero"/><path stroke-dasharray="3.74278,3.74278" d="M25.2,137.1L.0,79.7L.2,.0" stroke="#333e48" id="shape65" stroke-width="1.4971100091934204" fill="none" transform="translate(139.006300,61.909200)"/><path d="M4.9,2.5C4.9,3.9,3.8,5.0,2.5,5.0C1.1,5.0,.0,3.9,.0,2.5C.0,1.1,1.1,.0,2.5,.0C3.8,.0,4.9,1.1,4.9,2.5z" stroke="#333e48" id="shape66" fill="#333e48" stroke-width="0.99807202816009521" transform="translate(274.114200,108.056880)" fill-rule="nonzero"/><path d="M4.9,2.5C4.9,3.9,3.8,5.0,2.5,5.0C1.1,5.0,.0,3.9,.0,2.5C.0,1.1,1.1,.0,2.5,.0C3.8,.0,4.9,1.1,4.9,2.5z" stroke="#333e48" id="shape67" fill="#333e48" stroke-width="0.99807202816009521" transform="translate(274.114200,88.099880)" fill-rule="nonzero"/><path d="M4.9,2.5C4.9,3.9,3.8,5.0,2.5,5.0C1.1,5.0,.0,3.9,.0,2.5C.0,1.1,1.1,.0,2.5,.0C3.8,.0,4.9,1.1,4.9,2.5z" stroke="#333e48" id="shape68" fill="#333e48" stroke-width="0.99807202816009521" transform="translate(274.114200,68.141880)" fill-rule="nonzero"/><path d="M4.9,2.5C4.9,3.9,3.8,5.0,2.5,5.0C1.1,5.0,.0,3.9,.0,2.5C.0,1.1,1.1,.0,2.5,.0C3.8,.0,4.9,1.1,4.9,2.5z" stroke="#333e48" id="shape69" fill="#333e48" stroke-width="0.99807202816009521" transform="translate(274.114200,48.183880)" fill-rule="nonzero"/><path d="M.0,2.5C.0,3.9,1.1,5.0,2.5,5.0C3.8,5.0,4.9,3.9,4.9,2.5C4.9,1.1,3.8,.0,2.5,.0C1.1,.0,.0,1.1,.0,2.5z" stroke="#333e48" id="shape70" fill="#333e48" stroke-width="1.4971100091934204" transform="translate(274.986200,161.176880)" fill-rule="nonzero"/><path d="M.0,2.5C.0,3.9,1.1,5.0,2.5,5.0C3.8,5.0,4.9,3.9,4.9,2.5C4.9,1.1,3.8,.0,2.5,.0C1.1,.0,.0,1.1,.0,2.5z" stroke="#333e48" id="shape71" fill="#333e48" stroke-width="1.4971100091934204" transform="translate(274.986200,141.247880)" fill-rule="nonzero"/><path d="M4.9,2.5C4.9,1.1,3.8,.0,2.5,.0C1.1,.0,.0,1.1,.0,2.5C.0,3.9,1.1,5.0,2.5,5.0C3.8,5.0,4.9,3.9,4.9,2.5z" id="shape72" fill="#333e48" transform="translate(254.402200,332.521880)" fill-rule="nonzero"/><path d="M.0,2.5C.0,3.9,1.1,5.0,2.5,5.0C3.8,5.0,4.9,3.9,4.9,2.5C4.9,1.1,3.8,.0,2.5,.0C1.1,.0,.0,1.1,.0,2.5z" id="shape73" fill="#333e48" transform="translate(66.994200,196.342880)" fill-rule="nonzero"/><path d="M.0,2.5C.0,3.9,1.1,5.0,2.5,5.0C3.8,5.0,4.9,3.9,4.9,2.5C4.9,1.1,3.8,.0,2.5,.0C1.1,.0,.0,1.1,.0,2.5z" stroke="#333e48" id="shape74" fill="#333e48" stroke-width="0.99807202816009521" transform="translate(16.865200,40.402480)" fill-rule="nonzero"/><path d="M.0,2.5C.0,3.9,1.1,5.0,2.5,5.0C3.8,5.0,4.9,3.9,4.9,2.5C4.9,1.1,3.8,.0,2.5,.0C1.1,.0,.0,1.1,.0,2.5z" stroke="#333e48" id="shape75" fill="#333e48" stroke-width="0.99807202816009521" transform="translate(17.016200,20.223580)" fill-rule="nonzero"/><path d="M.0,.0L40.0,.0L40.0,35.0L.0,35.0L.0,.0z" stroke="#333e48" id="shape76" fill="#00c1de" stroke-width="1.3333300352096558" transform="translate(169.206800,213.896800)" fill-rule="nonzero"/><path d="M.0,.0L40.0,.0L40.0,35.0L.0,35.0L.0,.0z" stroke="#333e48" id="shape77" fill="#00c1de" stroke-width="1.3333300352096558" transform="translate(219.169800,213.896800)" fill-rule="nonzero"/><path d="M.0,.0L40.0,.0L40.0,35.0L.0,35.0L.0,.0z" stroke="#333e48" id="shape78" fill="#00c1de" stroke-width="1.3333300352096558" transform="translate(269.132800,213.896800)" fill-rule="nonzero"/><path d="M.0,.0L40.0,.0L40.0,35.0L.0,35.0L.0,.0z" stroke="#333e48" id="shape79" fill="#00c1de" stroke-width="1.3333300352096558" transform="translate(319.095800,213.896800)" fill-rule="nonzero"/><path stroke-dasharray="3.74278,3.74278" d="M50.5,176.1L.3,21.0L.0,.0" stroke="#333e48" id="shape80" stroke-width="1.4971100091934204" fill="none" transform="translate(19.013800,22.079600)"/><path d="M4.9,2.5C4.9,3.9,3.8,5.0,2.5,5.0C1.1,5.0,.0,3.9,.0,2.5C.0,1.1,1.1,.0,2.5,.0C3.8,.0,4.9,1.1,4.9,2.5z" stroke="#333e48" id="shape81" fill="#333e48" stroke-width="0.99807202816009521" transform="translate(136.768200,119.494880)" fill-rule="nonzero"/><path d="M4.9,2.5C4.9,3.9,3.8,5.0,2.5,5.0C1.1,5.0,.0,3.9,.0,2.5C.0,1.1,1.1,.0,2.5,.0C3.8,.0,4.9,1.1,4.9,2.5z" stroke="#333e48" id="shape82" fill="#333e48" stroke-width="0.99807202816009521" transform="translate(136.768200,99.537880)" fill-rule="nonzero"/><path d="M4.9,2.5C4.9,3.9,3.8,5.0,2.5,5.0C1.1,5.0,.0,3.9,.0,2.5C.0,1.1,1.1,.0,2.5,.0C3.8,.0,4.9,1.1,4.9,2.5z" stroke="#333e48" id="shape83" fill="#333e48" stroke-width="0.99807202816009521" transform="translate(136.768200,79.579880)" fill-rule="nonzero"/><path d="M4.9,2.5C4.9,3.9,3.8,5.0,2.5,5.0C1.1,5.0,.0,3.9,.0,2.5C.0,1.1,1.1,.0,2.5,.0C3.8,.0,4.9,1.1,4.9,2.5z" stroke="#333e48" id="shape84" fill="#333e48" stroke-width="0.99807202816009521" transform="translate(136.768200,59.621880)" fill-rule="nonzero"/><path d="M4.9,2.5C4.9,3.9,3.8,5.0,2.5,5.0C1.1,5.0,.0,3.9,.0,2.5C.0,1.1,1.1,.0,2.5,.0C3.8,.0,4.9,1.1,4.9,2.5z" stroke="#333e48" id="shape85" fill="#333e48" stroke-width="0.99807202816009521" transform="translate(136.961200,139.290880)" fill-rule="nonzero"/><path d="M.0,.0L.0,10.0" stroke="#333e48" id="shape86" stroke-width="2.8008298873901367" fill="none" transform="translate(199.185000,258.346940)"/><path d="M.0,.0L.0,10.0" stroke="#333e48" id="shape87" stroke-width="2.8008298873901367" fill="none" transform="translate(314.600000,258.346940)"/><g id="shape88" transform="translate(64.284800,155.166900)"><text xml:space="preserve" style="fill:#7d868c;font-family:Lato,PingFang SC,Mircrosoft YaHei,Arial;font-size:20px"><tspan textLength="63.0" x="6.0" y="14.1" style="font-size:13px">Front-ends</tspan></text></g><g id="shape89" transform="translate(368.059000,347.161700)"><text xml:space="preserve" style="fill:#7d868c;font-family:Lato,PingFang SC,Mircrosoft YaHei,Arial;font-size:20px"><tspan textLength="58.5" x="7.0" y="17.7" style="font-size:13px">Fragment </tspan><tspan textLength="52.0" x="9.0" y="30.5" style="font-size:13px">Back end</tspan></text></g><g id="shape90" transform="translate(376.817000,182.429700)"><text xml:space="preserve" style="fill:#7d868c;font-family:Lato,PingFang SC,Mircrosoft YaHei,Arial;font-size:20px"><tspan textLength="56.0" x="9.5" y="17.0" style="font-size:13px">Execution</tspan><tspan textLength="28.0" x="37.5" y="29.8" style="font-size:13px">Core</tspan></text></g><g id="shape91" transform="translate(64.529800,193.872900)"><text xml:space="preserve" style="fill:#ffffff;font-family:Lato,PingFang SC,Mircrosoft YaHei,Arial;font-size:20px"><tspan textLength="32.0" x="21.5" y="15.6" style="font-size:13px">Warp</tspan><tspan textLength="52.0" x="11.5" y="28.4" style="font-size:13px">Manager</tspan></text></g><g id="shape92" transform="translate(64.530200,294.233300)"><text xml:space="preserve" style="fill:#ffffff;font-family:Lato,PingFang SC,Mircrosoft YaHei,Arial;font-size:20px"><tspan textLength="44.0" x="8.0" y="16.4" style="font-size:13px">Varying</tspan><tspan textLength="24.0" x="18.0" y="29.2" style="font-size:13px">Unit</tspan></text></g><g id="shape93" transform="translate(134.233600,295.406800)"><text xml:space="preserve" style="fill:#ffffff;font-family:Lato,PingFang SC,Mircrosoft YaHei,Arial;font-size:20px"><tspan textLength="63.0" x="8.5" y="15.2" style="font-size:13px">Load/Store</tspan><tspan textLength="24.0" x="28.0" y="28.0" style="font-size:13px">Unit</tspan></text></g><g id="shape94" transform="translate(224.411100,294.710300)"><text xml:space="preserve" style="fill:#333e48;font-family:Lato,PingFang SC,Mircrosoft YaHei,Arial;font-size:20px"><tspan textLength="43.0" x="11.0" y="16.2" style="font-size:13px">Texture</tspan><tspan textLength="24.0" x="20.5" y="29.0" style="font-size:13px">Unit</tspan></text></g><g id="shape95" transform="translate(299.356200,294.709400)"><text xml:space="preserve" style="fill:#ffffff;font-family:Lato,PingFang SC,Mircrosoft YaHei,Arial;font-size:20px"><tspan textLength="44.0" x="8.0" y="16.2" style="font-size:13px">Late ZS</tspan><tspan textLength="24.0" x="18.0" y="29.0" style="font-size:13px">Unit</tspan></text></g><g id="shape96" transform="translate(369.304000,294.709400)"><text xml:space="preserve" style="fill:#ffffff;font-family:Lato,PingFang SC,Mircrosoft YaHei,Arial;font-size:20px"><tspan textLength="32.0" x="19.0" y="16.2" style="font-size:13px">Blend</tspan><tspan textLength="24.0" x="23.0" y="29.0" style="font-size:13px">Unit</tspan></text></g><g id="shape97" transform="translate(169.745800,213.896800)"><text xml:space="preserve" style="fill:#ffffff;font-family:Lato,PingFang SC,Mircrosoft YaHei,Arial;font-size:20px"><tspan textLength="29.5" x="6.0" y="17.0" style="font-size:13px">FMA </tspan><tspan textLength="25.0" x="7.5" y="29.8" style="font-size:13px">Pipe</tspan></text></g><g id="shape98" transform="translate(219.598800,213.896400)"><text xml:space="preserve" style="fill:#ffffff;font-family:Lato,PingFang SC,Mircrosoft YaHei,Arial;font-size:20px"><tspan textLength="28.5" x="7.0" y="17.0" style="font-size:13px">CVT </tspan><tspan textLength="25.0" x="7.5" y="29.8" style="font-size:13px">Pipe</tspan></text></g><g id="shape99" transform="translate(269.377800,213.896400)"><text xml:space="preserve" style="fill:#ffffff;font-family:Lato,PingFang SC,Mircrosoft YaHei,Arial;font-size:20px"><tspan textLength="26.0" x="8.5" y="17.0" style="font-size:13px">SFU </tspan><tspan textLength="25.0" x="7.5" y="29.8" style="font-size:13px">Pipe</tspan></text></g><g id="shape100" transform="translate(319.341800,213.896800)"><text xml:space="preserve" style="fill:#ffffff;font-family:Lato,PingFang SC,Mircrosoft YaHei,Arial;font-size:20px"><tspan textLength="30.0" x="5.5" y="17.0" style="font-size:13px">MSG </tspan><tspan textLength="25.0" x="7.5" y="29.8" style="font-size:13px">Pipe</tspan></text></g><g id="shape101" transform="translate(159.215000,188.921500)"><text xml:space="preserve" style="fill:#ffffff;font-family:Lato,PingFang SC,Mircrosoft YaHei,Arial;font-size:20px"><tspan textLength="89.0" x="60.1" y="21.1" style="font-size:13px">Processing Unit</tspan></text></g><g id="shape102" transform="translate(279.907500,138.458500)"><text xml:space="preserve" style="fill:#333e48;font-family:Lato,PingFang SC,Mircrosoft YaHei,Arial;font-size:16px"><tspan textLength="128.0" x="4.4" y="9.8" style="font-size:11px">Texture read bytes from L2</tspan></text></g><g id="shape103" transform="translate(279.036000,44.633930)"><text xml:space="preserve" style="fill:#333e48;font-family:Lato,PingFang SC,Mircrosoft YaHei,Arial;font-size:16px"><tspan textLength="78.0" x="4.0" y="10.5" style="font-size:11px">Texture samples</tspan></text></g><g id="shape104" transform="translate(261.669800,363.142700)"><text xml:space="preserve" style="fill:#333e48;font-family:Lato,PingFang SC,Mircrosoft YaHei,Arial;font-size:16px"><tspan textLength="72.0" x="4.4" y="16.1" style="font-size:11px">L/S write bytes</tspan></text></g><g id="shape105" transform="translate(13.594700,371.459600)"><text xml:space="preserve" style="fill:#333e48;font-family:Lato,PingFang SC,Mircrosoft YaHei,Arial;font-size:16px"><tspan textLength="69.0" x="4.4" y="16.5" style="font-size:11px">Varying active</tspan></text></g><g id="shape106" transform="translate(14.095700,391.345600)"><text xml:space="preserve" style="fill:#333e48;font-family:Lato,PingFang SC,Mircrosoft YaHei,Arial;font-size:16px"><tspan textLength="100.0" x="4.4" y="16.5" style="font-size:11px">Varying 16-bit active</tspan></text></g><g id="shape107" transform="translate(14.024500,408.917200)"><text xml:space="preserve" style="fill:#333e48;font-family:Lato,PingFang SC,Mircrosoft YaHei,Arial;font-size:16px"><tspan textLength="100.0" x="4.4" y="19.0" style="font-size:11px">Varying 32-bit active</tspan></text></g><g id="shape108" transform="translate(176.224700,482.654600)"><text xml:space="preserve" style="fill:#333e48;font-family:Lato,PingFang SC,Mircrosoft YaHei,Arial;font-size:16px"><tspan textLength="82.0" x="4.4" y="16.5" style="font-size:11px">L/S partial writes</tspan></text></g><g id="shape109" transform="translate(176.224700,462.720600)"><text xml:space="preserve" style="fill:#333e48;font-family:Lato,PingFang SC,Mircrosoft YaHei,Arial;font-size:16px"><tspan textLength="66.0" x="4.4" y="16.5" style="font-size:11px">L/S full writes</tspan></text></g><g id="shape110" transform="translate(176.224700,442.734600)"><text xml:space="preserve" style="fill:#333e48;font-family:Lato,PingFang SC,Mircrosoft YaHei,Arial;font-size:16px"><tspan textLength="79.0" x="4.4" y="16.5" style="font-size:11px">L/S partial reads</tspan></text></g><g id="shape111" transform="translate(176.224700,422.847600)"><text xml:space="preserve" style="fill:#333e48;font-family:Lato,PingFang SC,Mircrosoft YaHei,Arial;font-size:16px"><tspan textLength="63.0" x="4.4" y="16.5" style="font-size:11px">L/S full reads</tspan></text></g><g id="shape112" transform="translate(176.224700,402.214600)"><text xml:space="preserve" style="fill:#333e48;font-family:Lato,PingFang SC,Mircrosoft YaHei,Arial;font-size:16px"><tspan textLength="47.0" x="4.4" y="16.5" style="font-size:11px">L/S active</tspan></text></g><g id="shape113" transform="translate(176.224700,502.641600)"><text xml:space="preserve" style="fill:#333e48;font-family:Lato,PingFang SC,Mircrosoft YaHei,Arial;font-size:16px"><tspan textLength="56.0" x="4.4" y="16.5" style="font-size:11px">L/S atomics</tspan></text></g><g id="shape114" transform="translate(321.336700,434.022200)"><text xml:space="preserve" style="fill:#333e48;font-family:Lato,PingFang SC,Mircrosoft YaHei,Arial;font-size:16px"><tspan textLength="108.0" x="4.2" y="19.1" style="font-size:11px">L/S read bytes from L2</tspan></text></g><g id="shape115" transform="translate(321.336500,457.252700)"><text xml:space="preserve" style="fill:#333e48;font-family:Lato,PingFang SC,Mircrosoft YaHei,Arial;font-size:16px"><tspan textLength="136.0" x="4.3" y="16.1" style="font-size:11px">L/S read bytes from external</tspan></text></g><g id="shape116" transform="translate(364.923900,385.568700)"><text xml:space="preserve" style="fill:#333e48;font-family:Lato,PingFang SC,Mircrosoft YaHei,Arial;font-size:16px"><tspan textLength="101.0" x="4.0" y="16.1" style="font-size:11px">Quads late ZS tested</tspan></text></g><g id="shape117" transform="translate(364.688400,405.797700)"><text xml:space="preserve" style="fill:#333e48;font-family:Lato,PingFang SC,Mircrosoft YaHei,Arial;font-size:16px"><tspan textLength="97.0" x="4.2" y="16.1" style="font-size:11px">Quads late ZS killed</tspan></text></g><g id="shape118" transform="translate(279.908000,155.252350)"><text xml:space="preserve" style="fill:#333e48;font-family:Lato,PingFang SC,Mircrosoft YaHei,Arial;font-size:16px"><tspan textLength="156.0" x="4.3" y="12.9" style="font-size:11px">Texture read bytes from external</tspan></text></g><g id="shape119" transform="translate(279.035500,103.368300)"><text xml:space="preserve" style="fill:#333e48;font-family:Lato,PingFang SC,Mircrosoft YaHei,Arial;font-size:16px"><tspan textLength="107.0" x="4.1" y="11.7" style="font-size:11px">4x Bilinear path active</tspan></text></g><g id="shape120" transform="translate(22.584700,11.140400)"><text xml:space="preserve" style="fill:#333e48;font-family:Lato,PingFang SC,Mircrosoft YaHei,Arial;font-size:16px"><tspan textLength="92.0" x="4.4" y="16.1" style="font-size:11px">Warps with all regs</tspan></text></g><g id="shape121" transform="translate(22.584700,31.319300)"><text xml:space="preserve" style="fill:#333e48;font-family:Lato,PingFang SC,Mircrosoft YaHei,Arial;font-size:16px"><tspan textLength="100.0" x="4.4" y="16.5" style="font-size:11px">Warps with all quads</tspan></text></g><g id="shape122" transform="translate(279.035500,65.155430)"><text xml:space="preserve" style="fill:#333e48;font-family:Lato,PingFang SC,Mircrosoft YaHei,Arial;font-size:16px"><tspan textLength="107.0" x="4.1" y="10.5" style="font-size:11px">Texture filtering active</tspan></text></g><g id="shape123" transform="translate(279.035500,84.392290)"><text xml:space="preserve" style="fill:#333e48;font-family:Lato,PingFang SC,Mircrosoft YaHei,Arial;font-size:16px"><tspan textLength="110.0" x="4.1" y="10.7" style="font-size:11px">2x Trilinear path active</tspan></text></g><g id="shape124" transform="translate(141.882900,46.988500)"><text xml:space="preserve" style="fill:#333e48;font-family:Lato,PingFang SC,Mircrosoft YaHei,Arial;font-size:16px"><tspan textLength="82.0" x="4.4" y="20.0" style="font-size:11px">FMA instructions</tspan></text></g><g id="shape125" transform="translate(141.883000,66.946500)"><text xml:space="preserve" style="fill:#333e48;font-family:Lato,PingFang SC,Mircrosoft YaHei,Arial;font-size:16px"><tspan textLength="80.0" x="4.4" y="19.6" style="font-size:11px">CVT instructions</tspan></text></g><g id="shape126" transform="translate(141.883000,86.904500)"><text xml:space="preserve" style="fill:#333e48;font-family:Lato,PingFang SC,Mircrosoft YaHei,Arial;font-size:16px"><tspan textLength="79.0" x="4.4" y="19.6" style="font-size:11px">SFU instructions</tspan></text></g><g id="shape127" transform="translate(141.883000,106.861400)"><text xml:space="preserve" style="fill:#333e48;font-family:Lato,PingFang SC,Mircrosoft YaHei,Arial;font-size:16px"><tspan textLength="83.0" x="4.4" y="19.6" style="font-size:11px">MSG instructions</tspan></text></g><g id="shape128" transform="translate(141.883000,133.375070)"><text xml:space="preserve" style="fill:#333e48;font-family:Lato,PingFang SC,Mircrosoft YaHei,Arial;font-size:16px"><tspan textLength="103.0" x="4.4" y="12.9" style="font-size:11px">Diverged instructions</tspan></text></g><g id="shape129" transform="translate(14.095700,391.345600)"><text xml:space="preserve" style="fill:#333e48;font-family:Lato,PingFang SC,Mircrosoft YaHei,Arial;font-size:16px"><tspan textLength="100.0" x="4.4" y="16.5" style="font-size:11px">Varying 16-bit active</tspan></text></g></g></svg>